<?xml version="1.0" encoding="utf-8"?>
<!-- Generator: Adobe Illustrator 22.1.0, SVG Export Plug-In . SVG Version: 6.00 Build 0)  -->
<svg version="1.1" id="Layer_1" xmlns="http://www.w3.org/2000/svg" xmlns:xlink="http://www.w3.org/1999/xlink" x="0px" y="0px"
	 viewBox="0 0 735 852" style="enable-background:new 0 0 735 852;" xml:space="preserve">
<style type="text/css">
	.st0{display:none;clip-path:url(#SVGID_2_);fill:#144F85;}
	.st1{fill:#969696;stroke:#000000;stroke-width:2.3395;stroke-miterlimit:10;}
	.st2{enable-background:new    ;}
	.st3{fill:#FFFFFF;}
	.st4{fill:#6CC900;}
	.st5{fill:#6CA800;}
	.st6{fill:#745C00;}
	.st7{fill:#AAD646;}
	.st8{fill:#646464;stroke:#000000;stroke-width:2.3395;stroke-miterlimit:10;}
	.st9{fill:none;stroke:#000000;stroke-width:2.339;stroke-miterlimit:10;stroke-dasharray:2;}
	.st10{fill:#DADADA;stroke:#000000;stroke-width:2.3395;stroke-miterlimit:10;}
	.st11{fill:#3C3C3B;stroke:#000000;stroke-width:2.3395;stroke-miterlimit:10;}
</style>
<title></title>
<g>
	<g>
		<g>
			<g>
				<g>
					<defs>
						<polygon id="SVGID_1_" points="367.6,18.3 720.3,220.7 722,628.7 367.5,834.7 15.7,631 16.3,225.3 						"/>
					</defs>
					<use xlink:href="#SVGID_1_"  style="overflow:visible;fill:#144F85;"/>
					<clipPath id="SVGID_2_">
						<use xlink:href="#SVGID_1_"  style="overflow:visible;"/>
					</clipPath>
					<circle class="st0" cx="414.4" cy="428.8" r="442.1"/>
				</g>
			</g>
		</g>
	</g>
</g>
<path class="st1" d="M705.6,196.2L427.8,35.8L367.5,1l-60.3,34.8L29.4,196.2L0.1,213.1v424.3l29.3,16.9l281.3,162.4l56.9,32.8
	l56.9-32.8l281.3-162.4l29.3-16.9V213.1L705.6,196.2z M705.6,621.5L367.5,816.7L29.4,621.5V231L367.5,35.8l0,0L705.6,231V621.5z"/>
<g class="st2">
	<path class="st3" d="M375.8,805.8l0.8-0.6c0.4,0.6,0.7,0.9,1,1s0.6,0.1,1-0.1c0.2-0.1,0.4-0.3,0.5-0.5s0.1-0.4,0.1-0.7
		c0-0.2-0.2-0.6-0.4-1l-3-5.1l1-0.6l2.9,5.1c0.4,0.6,0.6,1.1,0.6,1.6c0,0.4,0,0.8-0.3,1.2c-0.2,0.4-0.6,0.7-1,0.9
		c-0.7,0.4-1.3,0.5-1.8,0.3C376.7,807,376.2,806.5,375.8,805.8z"/>
	<path class="st3" d="M385.7,801.9c-0.2,0.5-0.4,0.9-0.6,1.2s-0.5,0.6-0.9,0.8c-0.6,0.3-1.1,0.5-1.6,0.4s-0.9-0.4-1.1-0.8
		c-0.2-0.3-0.2-0.5-0.2-0.8s0.1-0.6,0.2-0.8s0.3-0.5,0.5-0.7s0.4-0.4,0.7-0.6c0.7-0.5,1.2-0.9,1.4-1.3c-0.1-0.1-0.1-0.2-0.1-0.2
		c-0.2-0.4-0.5-0.6-0.7-0.6c-0.4-0.1-0.8,0-1.2,0.3c-0.4,0.2-0.7,0.5-0.8,0.8c-0.1,0.3-0.1,0.6,0,1.1l-1,0.4
		c-0.1-0.4-0.2-0.8-0.1-1.2c0.1-0.3,0.2-0.7,0.5-1s0.6-0.6,1.1-0.9c0.5-0.3,0.9-0.4,1.2-0.5c0.4-0.1,0.6,0,0.9,0
		c0.2,0.1,0.4,0.2,0.6,0.5c0.1,0.1,0.3,0.4,0.5,0.8l0.7,1.2c0.5,0.8,0.8,1.4,1,1.6c0.2,0.2,0.4,0.4,0.6,0.5l-1,0.6
		C386,802.4,385.9,802.2,385.7,801.9z M384.4,800c-0.3,0.3-0.7,0.7-1.3,1.2c-0.3,0.3-0.6,0.5-0.7,0.6c-0.1,0.2-0.2,0.3-0.2,0.5
		s0,0.3,0.1,0.5s0.3,0.4,0.6,0.4c0.3,0.1,0.6,0,1-0.2s0.6-0.5,0.8-0.8c0.2-0.3,0.3-0.6,0.2-1c0-0.3-0.1-0.6-0.4-1L384.4,800z"/>
	<path class="st3" d="M388.3,801.3l-3.1-5.4l0.8-0.5l0.4,0.8c0.1-0.8,0.5-1.4,1.2-1.9c0.3-0.2,0.7-0.3,1-0.3s0.6,0,0.9,0.1
		c0.2,0.1,0.5,0.3,0.7,0.5c0.1,0.2,0.3,0.4,0.6,0.9l1.9,3.3l-0.9,0.5l-1.9-3.3c-0.2-0.4-0.4-0.6-0.6-0.8c-0.2-0.1-0.4-0.2-0.6-0.2
		s-0.5,0.1-0.7,0.2c-0.4,0.2-0.7,0.5-0.8,1c-0.1,0.4,0,1,0.4,1.7l1.7,2.9L388.3,801.3z"/>
	<path class="st3" d="M396.8,794.1l1-0.4c0.2,0.6,0.1,1.2-0.1,1.8s-0.7,1-1.3,1.3c-0.8,0.5-1.6,0.6-2.3,0.4
		c-0.7-0.2-1.4-0.8-1.9-1.6c-0.5-0.9-0.7-1.7-0.5-2.5s0.6-1.4,1.4-1.8c0.7-0.4,1.5-0.5,2.2-0.3s1.4,0.8,1.9,1.7
		c0,0.1,0.1,0.1,0.1,0.2l-4,2.3c0.4,0.6,0.8,0.9,1.3,1.1s0.9,0.1,1.4-0.2c0.3-0.2,0.6-0.4,0.7-0.8
		C396.9,795,396.9,794.6,396.8,794.1z M393,794.4l3-1.7c-0.3-0.4-0.6-0.7-0.9-0.8c-0.5-0.2-1-0.1-1.4,0.1c-0.4,0.2-0.7,0.6-0.8,1
		C392.7,793.4,392.7,793.9,393,794.4z"/>
	<path class="st3" d="M399.9,794.6l-4.3-7.4l0.9-0.5l2.4,4.2l0.9-3.4l1.2-0.7l-0.9,3.2l4.2,2.1l-1.1,0.7l-3.4-1.7l-0.3,1l1.2,2.1
		L399.9,794.6z"/>
	<path class="st3" d="M409.8,788.9l-3.8-6.6l-2.5,1.4l-0.5-0.9l5.9-3.4l0.5,0.9l-2.5,1.4l3.8,6.6L409.8,788.9z"/>
	<path class="st3" d="M414.1,786.4l-4.3-7.4l0.9-0.5l1.5,2.7c0.1-0.7,0.5-1.3,1.2-1.7c0.4-0.2,0.8-0.4,1.2-0.4c0.4,0,0.7,0.1,1,0.3
		s0.6,0.6,0.9,1.1l2,3.4l-0.9,0.5l-2-3.4c-0.3-0.5-0.6-0.7-0.9-0.8s-0.7,0-1,0.2s-0.5,0.4-0.6,0.7c-0.2,0.3-0.2,0.6-0.2,0.9
		s0.2,0.7,0.4,1.1l1.7,2.9L414.1,786.4z"/>
	<path class="st3" d="M418,780.6c-0.6-1-0.7-1.9-0.4-2.7c0.2-0.7,0.7-1.2,1.3-1.6c0.7-0.4,1.5-0.5,2.2-0.3c0.8,0.2,1.4,0.8,1.9,1.6
		c0.4,0.7,0.6,1.3,0.6,1.8s-0.1,1-0.4,1.5c-0.3,0.4-0.6,0.8-1.1,1.1c-0.8,0.4-1.5,0.5-2.2,0.3C419.2,782.1,418.6,781.5,418,780.6z
		 M419,780c0.4,0.7,0.8,1.1,1.3,1.3s1,0.1,1.4-0.1c0.5-0.3,0.7-0.7,0.8-1.2c0.1-0.5-0.1-1.1-0.5-1.8s-0.8-1.1-1.3-1.3
		s-1-0.1-1.4,0.1c-0.5,0.3-0.7,0.7-0.8,1.2C418.4,778.7,418.6,779.3,419,780z"/>
	<path class="st3" d="M425.7,779.7l-3.1-5.4l0.8-0.5l0.4,0.8c0-0.4,0.1-0.7,0.3-1c0.2-0.3,0.5-0.6,0.8-0.8c0.4-0.2,0.8-0.3,1.1-0.3
		c0.4,0,0.7,0.1,0.9,0.4c0.1-0.9,0.4-1.5,1.1-1.9c0.5-0.3,1-0.4,1.5-0.3c0.5,0.1,0.9,0.5,1.2,1.1l2.1,3.7l-0.9,0.5l-2-3.4
		c-0.2-0.4-0.4-0.6-0.5-0.7c-0.2-0.1-0.3-0.2-0.5-0.2s-0.4,0-0.6,0.2c-0.4,0.2-0.6,0.5-0.7,0.9s0,0.9,0.3,1.4l1.8,3.1l-0.9,0.5
		l-2-3.5c-0.2-0.4-0.5-0.7-0.8-0.8s-0.6-0.1-0.9,0.1c-0.3,0.1-0.5,0.4-0.6,0.6c-0.1,0.3-0.2,0.6-0.1,0.9s0.2,0.7,0.5,1.2l1.6,2.8
		L425.7,779.7z"/>
	<path class="st3" d="M437.5,772.1c-0.2,0.5-0.4,0.9-0.6,1.2s-0.5,0.6-0.9,0.8c-0.6,0.3-1.1,0.5-1.6,0.4s-0.9-0.4-1.1-0.8
		c-0.2-0.3-0.2-0.5-0.2-0.8s0.1-0.6,0.2-0.8s0.3-0.5,0.5-0.7s0.4-0.4,0.7-0.6c0.7-0.5,1.2-0.9,1.4-1.3c-0.1-0.1-0.1-0.2-0.1-0.2
		c-0.2-0.4-0.5-0.6-0.7-0.6c-0.4-0.1-0.8,0-1.2,0.3c-0.4,0.2-0.7,0.5-0.8,0.8c-0.1,0.3-0.1,0.6,0,1.1l-1,0.4
		c-0.1-0.4-0.2-0.8-0.1-1.2c0.1-0.3,0.2-0.7,0.5-1s0.6-0.6,1.1-0.9c0.5-0.3,0.9-0.4,1.2-0.5c0.4-0.1,0.6,0,0.9,0
		c0.2,0.1,0.4,0.2,0.6,0.5c0.1,0.1,0.3,0.4,0.5,0.8l0.7,1.2c0.5,0.8,0.8,1.4,1,1.6c0.2,0.2,0.4,0.4,0.6,0.5l-1,0.6
		C437.9,772.5,437.7,772.3,437.5,772.1z M436.2,770.1c-0.3,0.3-0.7,0.7-1.3,1.2c-0.3,0.3-0.6,0.5-0.7,0.6c-0.1,0.2-0.2,0.3-0.2,0.5
		s0,0.3,0.1,0.5s0.3,0.4,0.6,0.4c0.3,0.1,0.6,0,1-0.2s0.6-0.5,0.8-0.8c0.2-0.3,0.3-0.6,0.2-1c0-0.3-0.1-0.6-0.4-1L436.2,770.1z"/>
	<path class="st3" d="M438.9,770l0.8-0.7c0.3,0.3,0.6,0.5,0.9,0.6s0.7,0,1.1-0.3c0.4-0.2,0.7-0.5,0.8-0.8c0.1-0.3,0.1-0.5,0-0.8
		c-0.1-0.2-0.3-0.3-0.5-0.3s-0.5,0.1-1.1,0.2c-0.8,0.2-1.3,0.3-1.6,0.4c-0.3,0-0.6,0-0.9-0.2c-0.3-0.1-0.5-0.3-0.6-0.6
		c-0.1-0.2-0.2-0.5-0.2-0.8s0-0.5,0.2-0.8c0.1-0.2,0.2-0.4,0.4-0.6c0.2-0.2,0.4-0.4,0.7-0.6c0.4-0.2,0.8-0.4,1.2-0.5
		c0.4-0.1,0.7,0,1,0.1s0.5,0.3,0.8,0.7l-0.8,0.6c-0.2-0.3-0.4-0.4-0.7-0.4c-0.3,0-0.6,0-1,0.2s-0.7,0.5-0.8,0.7
		c-0.1,0.2-0.1,0.5,0,0.6s0.2,0.2,0.3,0.3c0.1,0.1,0.3,0.1,0.5,0c0.1,0,0.4-0.1,0.9-0.2c0.7-0.2,1.3-0.3,1.6-0.4s0.6,0,0.9,0.1
		s0.5,0.3,0.7,0.7c0.2,0.3,0.3,0.6,0.2,1s-0.2,0.7-0.4,1.1c-0.3,0.3-0.6,0.6-1,0.9c-0.7,0.4-1.3,0.6-1.9,0.5S439.3,770.5,438.9,770z
		"/>
	<path class="st3" d="M445.6,768.3l-0.6-1l1-0.6l0.6,1c0.2,0.4,0.3,0.7,0.3,1s-0.1,0.6-0.3,0.9l-0.5-0.2c0.1-0.2,0.2-0.4,0.2-0.6
		s-0.1-0.5-0.3-0.8L445.6,768.3z"/>
	<path class="st3" d="M449.5,762.8l0.9-0.6c0.3,0.3,0.5,0.6,0.8,0.7s0.7,0.2,1.1,0.1c0.4,0,0.8-0.2,1.3-0.4c0.4-0.2,0.7-0.5,0.9-0.7
		s0.3-0.6,0.4-0.8c0-0.3,0-0.5-0.2-0.8c-0.1-0.2-0.3-0.4-0.6-0.5c-0.2-0.1-0.5-0.1-0.9-0.1c-0.2,0-0.8,0.2-1.5,0.4s-1.3,0.4-1.7,0.4
		c-0.5,0-0.9-0.1-1.2-0.2c-0.3-0.2-0.6-0.4-0.8-0.8c-0.2-0.4-0.3-0.8-0.3-1.2s0.2-0.9,0.5-1.3s0.7-0.8,1.2-1
		c0.6-0.3,1.1-0.5,1.6-0.6s1,0,1.4,0.2s0.8,0.5,1,1l-0.9,0.6c-0.3-0.4-0.7-0.7-1.1-0.8s-0.9,0.1-1.5,0.4c-0.6,0.3-1,0.7-1.1,1.1
		c-0.1,0.4-0.1,0.7,0,1c0.2,0.3,0.4,0.4,0.7,0.5c0.3,0.1,0.9,0,1.8-0.3s1.5-0.4,1.9-0.5c0.5-0.1,1,0,1.4,0.2s0.7,0.5,0.9,0.9
		c0.2,0.4,0.3,0.8,0.3,1.3s-0.2,0.9-0.5,1.4s-0.7,0.8-1.3,1.1c-0.7,0.4-1.3,0.6-1.9,0.7c-0.6,0.1-1.1,0-1.6-0.3
		C450.2,763.7,449.8,763.3,449.5,762.8z"/>
	<path class="st3" d="M459.6,759.1l0.6,0.7c-0.2,0.2-0.4,0.4-0.6,0.5c-0.3,0.2-0.6,0.3-0.9,0.3c-0.2,0-0.5-0.1-0.6-0.2
		c-0.2-0.1-0.4-0.5-0.7-1l-1.8-3.1l-0.7,0.4l-0.4-0.7l0.7-0.4l-0.8-1.3l0.6-1.1l1.1,1.9l0.9-0.5l0.4,0.7l-0.9,0.5l1.8,3.2
		c0.2,0.3,0.3,0.4,0.3,0.5s0.2,0.1,0.3,0.1c0.1,0,0.2,0,0.4-0.1C459.3,759.3,459.4,759.2,459.6,759.1z"/>
	<path class="st3" d="M463.6,755.5l1-0.4c0.2,0.6,0.1,1.2-0.1,1.8c-0.2,0.5-0.7,1-1.3,1.3c-0.8,0.5-1.6,0.6-2.3,0.4
		s-1.4-0.8-1.9-1.6c-0.5-0.9-0.7-1.7-0.5-2.5s0.6-1.4,1.4-1.8c0.7-0.4,1.5-0.5,2.2-0.3s1.4,0.8,1.9,1.7c0,0.1,0.1,0.1,0.1,0.2
		l-4,2.3c0.4,0.6,0.8,0.9,1.3,1.1c0.5,0.1,0.9,0.1,1.4-0.2c0.3-0.2,0.6-0.4,0.7-0.8S463.7,756,463.6,755.5z M459.8,755.8l3-1.7
		c-0.3-0.4-0.6-0.7-0.9-0.8c-0.5-0.2-1-0.1-1.4,0.1c-0.4,0.2-0.7,0.6-0.8,1C459.5,754.8,459.5,755.3,459.8,755.8z"/>
	<path class="st3" d="M466.9,756l-2.7-4.7l-0.8,0.5L463,751l0.8-0.5l-0.3-0.6c-0.2-0.4-0.3-0.7-0.4-0.9c0-0.3,0-0.6,0.1-0.8
		s0.4-0.5,0.8-0.8c0.3-0.1,0.6-0.3,0.9-0.4l0.3,0.9c-0.2,0.1-0.4,0.2-0.6,0.3c-0.3,0.2-0.4,0.3-0.5,0.5c0,0.2,0,0.4,0.2,0.8l0.3,0.5
		l1.1-0.6l0.4,0.7l-1.1,0.6l2.7,4.7L466.9,756z"/>
	<path class="st3" d="M472.7,751.7c-0.2,0.5-0.4,0.9-0.6,1.2s-0.5,0.6-0.9,0.8c-0.6,0.3-1.1,0.5-1.6,0.4s-0.9-0.4-1.1-0.8
		c-0.2-0.3-0.2-0.5-0.2-0.8s0-0.6,0.2-0.8c0.1-0.2,0.3-0.5,0.5-0.7s0.4-0.4,0.7-0.6c0.7-0.5,1.2-0.9,1.4-1.3
		c-0.1-0.1-0.1-0.2-0.1-0.2c-0.2-0.4-0.5-0.6-0.7-0.6c-0.4-0.1-0.8,0-1.2,0.3c-0.4,0.2-0.7,0.5-0.8,0.8c-0.1,0.3-0.1,0.6,0,1.1
		l-1,0.4c-0.1-0.4-0.2-0.8-0.1-1.2c0.1-0.3,0.2-0.7,0.5-1s0.6-0.6,1.1-0.9c0.5-0.3,0.9-0.4,1.2-0.5c0.3-0.1,0.6,0,0.9,0
		c0.2,0.1,0.4,0.2,0.6,0.5c0.1,0.1,0.3,0.4,0.5,0.8l0.7,1.2c0.5,0.8,0.8,1.4,1,1.6c0.2,0.2,0.4,0.4,0.6,0.5l-1,0.6
		C473.1,752.1,472.9,752,472.7,751.7z M471.5,749.7c-0.3,0.3-0.7,0.7-1.3,1.2c-0.3,0.3-0.6,0.5-0.7,0.6c-0.1,0.2-0.2,0.3-0.2,0.5
		s0,0.3,0.1,0.5s0.4,0.4,0.6,0.4c0.3,0.1,0.6,0,1-0.2s0.6-0.5,0.8-0.8c0.2-0.3,0.3-0.6,0.2-1c0-0.3-0.1-0.6-0.4-1L471.5,749.7z"/>
	<path class="st3" d="M475.4,751.1l-3.1-5.4l0.8-0.5l0.4,0.8c0.1-0.8,0.5-1.4,1.2-1.9c0.3-0.2,0.7-0.3,1-0.3s0.6,0,0.9,0.1
		c0.2,0.1,0.5,0.3,0.7,0.5c0.1,0.2,0.3,0.4,0.6,0.9l1.9,3.3l-0.9,0.5l-1.9-3.3c-0.2-0.4-0.4-0.6-0.6-0.8c-0.2-0.1-0.4-0.2-0.6-0.2
		s-0.5,0.1-0.7,0.2c-0.4,0.2-0.7,0.5-0.8,1c-0.1,0.4,0,1,0.4,1.7l1.7,2.9L475.4,751.1z"/>
	<path class="st3" d="M488,740.3l1.1-0.3c0.3,0.9,0.2,1.8,0,2.5c-0.3,0.7-0.8,1.3-1.6,1.8c-0.8,0.5-1.5,0.7-2.2,0.6
		c-0.7,0-1.3-0.3-2-0.8s-1.1-1.1-1.5-1.8c-0.4-0.8-0.7-1.5-0.7-2.3c0-0.7,0.1-1.4,0.5-2s0.9-1.1,1.5-1.5c0.7-0.4,1.5-0.6,2.2-0.5
		s1.4,0.4,2,1l-0.8,0.8c-0.5-0.4-1-0.7-1.4-0.7c-0.5-0.1-1,0.1-1.5,0.3c-0.6,0.3-1,0.7-1.2,1.2s-0.3,1-0.2,1.6
		c0.1,0.6,0.3,1.1,0.6,1.6c0.4,0.6,0.8,1.1,1.2,1.5s0.9,0.6,1.5,0.6s1-0.1,1.5-0.4c0.6-0.3,0.9-0.7,1.1-1.3
		C488.2,741.7,488.2,741,488,740.3z"/>
	<path class="st3" d="M489.7,739.2c-0.6-1-0.7-1.9-0.4-2.7c0.2-0.7,0.7-1.2,1.3-1.6c0.7-0.4,1.5-0.5,2.2-0.3
		c0.8,0.2,1.4,0.8,1.9,1.6c0.4,0.7,0.6,1.3,0.6,1.8s-0.1,1-0.4,1.5c-0.3,0.4-0.6,0.8-1.1,1.1c-0.8,0.4-1.5,0.5-2.2,0.3
		C490.8,740.7,490.2,740.2,489.7,739.2z M490.6,738.7c0.4,0.7,0.8,1.1,1.3,1.3s1,0.1,1.4-0.1c0.5-0.3,0.7-0.7,0.8-1.2
		c0.1-0.5-0.1-1.1-0.5-1.8s-0.8-1.1-1.3-1.3s-1-0.1-1.4,0.1c-0.5,0.3-0.7,0.7-0.8,1.2C490.1,737.4,490.2,738,490.6,738.7z"/>
	<path class="st3" d="M495.5,735.9c-0.6-1-0.7-1.9-0.4-2.7c0.2-0.7,0.7-1.2,1.3-1.6c0.7-0.4,1.5-0.5,2.2-0.3
		c0.8,0.2,1.4,0.8,1.9,1.6c0.4,0.7,0.6,1.3,0.6,1.8s-0.1,1-0.4,1.5c-0.3,0.4-0.6,0.8-1.1,1.1c-0.8,0.4-1.5,0.5-2.2,0.3
		C496.6,737.4,496,736.8,495.5,735.9z M496.4,735.4c0.4,0.7,0.8,1.1,1.3,1.3s1,0.1,1.4-0.1c0.5-0.3,0.7-0.7,0.8-1.2
		c0.1-0.5-0.1-1.1-0.5-1.8s-0.8-1.1-1.3-1.3s-1-0.1-1.4,0.1c-0.5,0.3-0.7,0.7-0.8,1.2C495.8,734.1,496,734.7,496.4,735.4z"/>
	<path class="st3" d="M503.1,735.1l-3.1-5.4l0.8-0.5l0.5,0.8c0-0.5,0-0.9,0.1-1.1s0.3-0.4,0.5-0.5c0.3-0.2,0.7-0.3,1.1-0.2l0.2,1
		c-0.3,0-0.6,0.1-0.8,0.2c-0.2,0.1-0.3,0.3-0.4,0.5s-0.1,0.4-0.1,0.7c0.1,0.4,0.2,0.8,0.5,1.2l1.6,2.8L503.1,735.1z"/>
	<path class="st3" d="M505.3,731.7l0.8-0.7c0.3,0.3,0.6,0.5,0.9,0.6s0.7,0,1.1-0.3c0.4-0.2,0.7-0.5,0.8-0.8c0.1-0.3,0.1-0.5,0-0.8
		c-0.1-0.2-0.3-0.3-0.5-0.3s-0.5,0.1-1.1,0.2c-0.8,0.2-1.3,0.3-1.6,0.4s-0.6,0-0.9-0.2c-0.3-0.1-0.5-0.3-0.6-0.6
		c-0.1-0.2-0.2-0.5-0.2-0.8s0-0.5,0.2-0.8c0.1-0.2,0.2-0.4,0.4-0.6c0.2-0.2,0.4-0.4,0.7-0.6c0.4-0.2,0.8-0.4,1.2-0.5
		c0.4-0.1,0.7,0,1,0.1s0.5,0.3,0.8,0.7l-0.8,0.6c-0.2-0.3-0.4-0.4-0.7-0.4c-0.3,0-0.6,0-1,0.2s-0.7,0.5-0.8,0.7
		c-0.1,0.2-0.1,0.5,0,0.6s0.2,0.2,0.3,0.3c0.1,0.1,0.3,0.1,0.5,0c0.1,0,0.4-0.1,0.9-0.2c0.7-0.2,1.3-0.3,1.6-0.4
		c0.3,0,0.6,0,0.9,0.1s0.5,0.3,0.7,0.7c0.2,0.3,0.3,0.6,0.2,1c0,0.4-0.2,0.7-0.4,1.1s-0.6,0.6-1,0.9c-0.7,0.4-1.3,0.6-1.9,0.5
		C506.2,732.5,505.7,732.2,505.3,731.7z"/>
	<path class="st3" d="M512,729.9l-0.6-1l1-0.6l0.6,1c0.2,0.4,0.3,0.7,0.3,1s-0.1,0.6-0.3,0.9l-0.5-0.2c0.1-0.2,0.2-0.4,0.2-0.6
		s-0.1-0.5-0.3-0.8L512,729.9z"/>
	<path class="st3" d="M517.6,726.7l-4.3-7.4l2.8-1.6c0.6-0.3,1.1-0.5,1.5-0.6c0.4,0,0.8,0,1.2,0.2s0.7,0.5,0.9,0.8s0.3,0.7,0.3,1
		c0,0.4-0.1,0.8-0.4,1.1c0.5-0.1,1-0.1,1.4,0.1c0.4,0.2,0.8,0.5,1,0.9c0.2,0.3,0.3,0.7,0.3,1.1c0,0.4,0,0.7-0.1,1s-0.3,0.6-0.6,0.8
		c-0.3,0.3-0.7,0.5-1.1,0.8L517.6,726.7z M516.1,721.8l1.6-0.9c0.4-0.3,0.7-0.5,0.9-0.6c0.2-0.2,0.3-0.5,0.4-0.7
		c0-0.2,0-0.5-0.2-0.8c-0.1-0.2-0.3-0.4-0.6-0.5c-0.2-0.1-0.5-0.2-0.7-0.1s-0.7,0.2-1.2,0.5l-1.5,0.9L516.1,721.8z M518.1,725.3
		l1.9-1.1c0.3-0.2,0.5-0.3,0.7-0.4c0.2-0.2,0.4-0.3,0.5-0.5s0.1-0.4,0.1-0.6c0-0.2-0.1-0.5-0.2-0.7c-0.2-0.3-0.4-0.5-0.6-0.6
		c-0.3-0.1-0.5-0.2-0.8-0.1c-0.3,0.1-0.7,0.2-1.2,0.5l-1.7,1L518.1,725.3z"/>
	<path class="st3" d="M527.2,718.9l1-0.4c0.2,0.6,0.1,1.2-0.1,1.8s-0.7,1-1.3,1.3c-0.8,0.5-1.6,0.6-2.3,0.4s-1.4-0.8-1.9-1.6
		c-0.5-0.9-0.7-1.7-0.5-2.5s0.6-1.4,1.4-1.8c0.7-0.4,1.5-0.5,2.2-0.3s1.4,0.8,1.9,1.7c0,0.1,0.1,0.1,0.1,0.2l-4,2.3
		c0.4,0.6,0.8,0.9,1.3,1.1c0.5,0.1,0.9,0.1,1.4-0.2c0.3-0.2,0.6-0.4,0.7-0.8C527.2,719.7,527.3,719.3,527.2,718.9z M523.3,719.1
		l3-1.7c-0.3-0.4-0.6-0.7-0.9-0.8c-0.5-0.2-1-0.1-1.4,0.1c-0.4,0.2-0.7,0.6-0.8,1C523,718.2,523.1,718.6,523.3,719.1z"/>
	<path class="st3" d="M530.3,719.4l-3.1-5.4l0.8-0.5l0.5,0.8c0-0.5,0-0.9,0.1-1.1s0.3-0.4,0.5-0.5c0.3-0.2,0.7-0.3,1.1-0.2l0.2,1
		c-0.3,0-0.6,0.1-0.8,0.2c-0.2,0.1-0.3,0.3-0.4,0.5c-0.1,0.2-0.1,0.4-0.1,0.7c0.1,0.4,0.2,0.8,0.5,1.2l1.6,2.8L530.3,719.4z"/>
	<path class="st3" d="M533.7,717.4l-3.1-5.4l0.8-0.5l0.4,0.8c0.1-0.8,0.5-1.4,1.2-1.9c0.3-0.2,0.7-0.3,1-0.3s0.6,0,0.9,0.1
		c0.2,0.1,0.5,0.3,0.7,0.5c0.1,0.2,0.3,0.4,0.6,0.9l1.9,3.3l-0.9,0.5l-1.9-3.3c-0.2-0.4-0.4-0.6-0.6-0.8c-0.2-0.1-0.4-0.2-0.6-0.2
		s-0.5,0.1-0.7,0.2c-0.4,0.2-0.7,0.5-0.8,1c-0.1,0.4,0,1,0.4,1.7l1.7,2.9L533.7,717.4z"/>
	<path class="st3" d="M543,712.1l-0.4-0.7c0,0.7-0.4,1.3-1,1.7c-0.4,0.2-0.9,0.4-1.4,0.3c-0.5,0-1-0.2-1.4-0.5s-0.8-0.7-1.1-1.3
		c-0.3-0.5-0.5-1.1-0.6-1.6s0-1,0.2-1.5c0.2-0.4,0.6-0.8,1-1c0.3-0.2,0.7-0.3,1-0.3s0.6,0,0.9,0.2l-1.5-2.7l0.9-0.5l4.3,7.4
		L543,712.1z M538.6,711c0.4,0.7,0.8,1.1,1.3,1.3s0.9,0.1,1.3-0.1c0.4-0.2,0.6-0.6,0.7-1.1s-0.1-1.1-0.4-1.7
		c-0.4-0.7-0.9-1.2-1.4-1.4s-0.9-0.2-1.3,0.1c-0.4,0.2-0.6,0.6-0.7,1.1C538,709.7,538.2,710.3,538.6,711z"/>
	<path class="st3" d="M548.3,709l-4.3-7.4l2.8-1.6c0.6-0.3,1.1-0.5,1.5-0.6c0.4,0,0.8,0,1.2,0.2s0.7,0.5,0.9,0.8s0.3,0.7,0.3,1
		s-0.1,0.8-0.4,1.1c0.5-0.1,1-0.1,1.4,0.1c0.4,0.2,0.8,0.5,1,0.9c0.2,0.3,0.3,0.7,0.3,1.1c0,0.4,0,0.7-0.1,1s-0.3,0.6-0.6,0.8
		c-0.3,0.3-0.7,0.5-1.1,0.8L548.3,709z M546.8,704.1l1.6-0.9c0.4-0.3,0.7-0.5,0.9-0.6c0.2-0.2,0.3-0.5,0.4-0.7c0-0.2,0-0.5-0.2-0.8
		c-0.1-0.2-0.3-0.4-0.6-0.6c-0.2-0.1-0.5-0.2-0.7-0.1c-0.3,0.1-0.7,0.2-1.2,0.5l-1.5,0.9L546.8,704.1z M548.7,707.6l1.9-1.1
		c0.3-0.2,0.5-0.3,0.6-0.4c0.2-0.2,0.4-0.3,0.5-0.5s0.1-0.4,0.1-0.6c0-0.2-0.1-0.5-0.2-0.7c-0.2-0.3-0.4-0.5-0.6-0.6
		c-0.3-0.1-0.5-0.2-0.8-0.1c-0.3,0.1-0.7,0.2-1.2,0.5l-1.7,1L548.7,707.6z"/>
	<path class="st3" d="M551.4,698.7l-0.6-1.1l0.9-0.5l0.6,1.1L551.4,698.7z M555.1,705.1l-3.1-5.4l0.9-0.5l3.1,5.4L555.1,705.1z"/>
	<path class="st3" d="M556.1,702.3l0.8-0.7c0.3,0.3,0.6,0.5,0.9,0.6c0.3,0.1,0.7,0,1.1-0.3c0.4-0.2,0.7-0.5,0.8-0.8s0.1-0.5,0-0.8
		c-0.1-0.2-0.3-0.3-0.5-0.3s-0.5,0.1-1.1,0.2c-0.8,0.2-1.3,0.3-1.6,0.4c-0.3,0-0.6,0-0.9-0.2c-0.3-0.1-0.5-0.3-0.6-0.6
		c-0.1-0.2-0.2-0.5-0.2-0.8s0-0.5,0.2-0.8c0.1-0.2,0.2-0.4,0.4-0.6c0.2-0.2,0.4-0.4,0.7-0.6c0.4-0.2,0.8-0.4,1.2-0.5s0.7,0,1,0.1
		s0.5,0.3,0.8,0.7l-0.8,0.6c-0.2-0.3-0.4-0.4-0.7-0.4s-0.6,0-1,0.2s-0.7,0.5-0.8,0.7s-0.1,0.5,0,0.6s0.2,0.2,0.3,0.3s0.3,0.1,0.5,0
		c0.1,0,0.4-0.1,0.9-0.2c0.7-0.2,1.3-0.3,1.6-0.4c0.3,0,0.6,0,0.9,0.1c0.3,0.1,0.5,0.3,0.7,0.7c0.2,0.3,0.3,0.6,0.2,1
		c0,0.4-0.2,0.7-0.4,1.1c-0.3,0.3-0.6,0.6-1,0.9c-0.7,0.4-1.3,0.6-1.9,0.5S556.6,702.9,556.1,702.3z"/>
	<path class="st3" d="M565,696.7l1-0.4c0.3,0.7,0.3,1.3,0.1,1.9c-0.2,0.6-0.6,1-1.2,1.4c-0.7,0.4-1.5,0.5-2.2,0.3s-1.3-0.8-1.9-1.7
		c-0.3-0.6-0.5-1.1-0.6-1.7c-0.1-0.5,0-1,0.3-1.5c0.3-0.4,0.6-0.8,1.1-1.1c0.6-0.3,1.2-0.5,1.7-0.4s1,0.4,1.4,0.8l-0.8,0.6
		c-0.3-0.3-0.6-0.5-0.9-0.6c-0.3-0.1-0.6,0-0.9,0.2c-0.5,0.3-0.7,0.6-0.8,1.1s0.1,1.1,0.5,1.8s0.9,1.2,1.3,1.3
		c0.5,0.2,0.9,0.1,1.4-0.1c0.4-0.2,0.6-0.5,0.7-0.8C565.3,697.7,565.2,697.2,565,696.7z"/>
	<path class="st3" d="M567.8,697.7l-4.3-7.4l0.9-0.5l1.5,2.7c0.1-0.7,0.5-1.3,1.2-1.7c0.4-0.2,0.8-0.4,1.2-0.4s0.7,0.1,1,0.3
		s0.6,0.6,0.9,1.1l2,3.4l-0.9,0.5l-2-3.4c-0.3-0.5-0.6-0.7-0.9-0.8c-0.3-0.1-0.7,0-1,0.2s-0.5,0.4-0.6,0.7c-0.2,0.3-0.2,0.6-0.2,0.9
		s0.2,0.7,0.4,1.1l1.7,2.9L567.8,697.7z"/>
	<path class="st3" d="M573.6,694.4l-4.3-7.4l0.9-0.5l4.3,7.4L573.6,694.4z"/>
</g>
<g>
	<path class="st3" d="M90.9,307l-1.6-3.9c-2.6,4.7-6.2,8-10.6,9.7c-3.2,1.2-6,1.4-8.5,0.5c-2.5-1-4.1-2.5-5-5
		c-1-2.6-0.6-5.3,0.9-8.2c1.7-2.8,4.7-5.2,9.3-6.9c1.2-0.4,2.6-1,4.1-1.3c1.5-0.4,3.2-0.7,5-1l-1.6-4.3c-0.5-1.5-1.7-2.4-3.5-3
		c-1.8-0.5-4-0.3-6.8,0.8c-2.1,0.8-4.7,2.5-8.1,5.2c-0.5,0.5-1,0.7-1.2,0.8c-0.3,0.1-0.7,0.1-1,0c-0.4-0.1-0.6-0.4-0.7-0.8
		c-0.1-0.3-0.2-0.7,0-1c0.1-0.4,1.2-1.4,3.1-2.7c3-2.2,5.3-3.6,7-4.2c3.3-1.3,6.4-1.5,8.9-0.5c2.5,0.9,4.2,2.4,5,4.6l6.8,17.7
		l3.6-1.4c0.7-0.3,1.2-0.3,1.5-0.1c0.4,0.1,0.7,0.4,0.8,0.8c0.1,0.4,0.1,0.8,0,1.1s-0.6,0.7-1.2,0.9L90.9,307z M85.7,293.6
		c-1.4,0.1-2.9,0.4-4.3,0.8c-1.5,0.4-3,0.8-4.5,1.5c-3.9,1.6-6.6,3.5-8.1,6.1c-1.1,2-1.4,3.7-0.7,5.5c0.7,1.6,1.8,2.8,3.5,3.3
		c1.7,0.6,3.8,0.5,6.1-0.5c2.4-0.9,4.3-2.2,5.9-3.8c1.6-1.6,3.2-4,4.5-6.8L85.7,293.6z"/>
	<path class="st3" d="M131.6,291.3l-1.6-3.9c-2.4,4.7-5.7,7.9-10,9.5c-2.6,1-4.8,1.1-6.8,0.1c-2.5-1.2-4.2-3-5.1-5.5l-6.7-17.3
		l-3.6,1.4c-0.7,0.3-1.2,0.3-1.5,0.1c-0.4-0.1-0.7-0.4-0.8-0.8c-0.1-0.4-0.1-0.8,0-1.1c0.1-0.4,0.6-0.7,1.2-0.9l6.3-2.4l7.7,20
		c0.7,1.7,1.8,2.9,3.3,3.7c1.5,0.7,3.1,0.7,4.8,0.1c4.3-1.6,7.6-5.3,9.7-10.6l-6.7-17.3l-5,1.9c-0.7,0.3-1.2,0.3-1.5,0.1
		c-0.4-0.1-0.7-0.4-0.8-0.8s-0.1-0.8,0-1.1c0.1-0.4,0.6-0.7,1.2-0.9l7.7-2.9l9.6,25l2.3-0.9c0.7-0.3,1.2-0.3,1.5-0.1
		c0.4,0.1,0.7,0.4,0.8,0.8c0.1,0.4,0.1,0.8,0,1.1c-0.1,0.4-0.6,0.7-1.2,0.9L131.6,291.3z"/>
	<path class="st3" d="M145.5,254.3l14.6-5.6c0.7-0.3,1.2-0.3,1.5-0.1c0.4,0.1,0.7,0.4,0.8,0.8s0.1,0.8,0,1.1
		c-0.1,0.4-0.6,0.7-1.2,0.9l-14.6,5.6l6.9,17.9c0.6,1.6,1.7,2.6,3.4,3.2c1.6,0.6,3.7,0.4,6.1-0.6c1.8-0.7,3.6-1.7,5.6-3.1
		c1.9-1.3,3.3-2.6,4.2-3.8c0.3-0.5,0.6-0.7,0.9-0.8c0.3-0.1,0.7-0.1,1,0c0.4,0.1,0.7,0.4,0.7,0.8c0.1,0.3,0.1,0.7,0,1
		c-0.5,1-1.8,2.4-4.1,4.2s-4.6,3.2-7.1,4.1c-3.2,1.2-5.9,1.4-8.3,0.6c-2.4-0.7-4.1-2.4-5.1-4.9l-6.9-17.9l-5,1.9
		c-0.7,0.3-1.2,0.3-1.5,0.1c-0.4-0.1-0.7-0.4-0.8-0.8s-0.1-0.8,0-1.1s0.6-0.7,1.2-0.9l5-1.9l-3.1-7.9c-0.3-0.7-0.3-1.2-0.1-1.5
		c0.2-0.4,0.4-0.7,0.8-0.8c0.4-0.1,0.7-0.2,1.1,0c0.4,0.2,0.7,0.6,0.9,1.2L145.5,254.3z"/>
	<path class="st3" d="M210.7,245.2c1.6,4.1,1.5,8.1-0.4,12.2c-1.8,4-4.8,6.8-8.9,8.4c-4.2,1.6-8.3,1.5-12.3-0.3
		c-4-1.8-6.8-4.7-8.4-8.7c-1.6-4.1-1.5-8.1,0.3-12.2c1.8-4,4.8-6.8,9-8.4c4.1-1.6,8.2-1.5,12.3,0.3
		C206.2,238.2,209.1,241,210.7,245.2z M208,246.2c-1.3-3.3-3.6-5.7-6.9-7.2c-3.3-1.4-6.7-1.5-10.1-0.2c-3.4,1.3-5.9,3.6-7.3,6.9
		s-1.6,6.6-0.3,9.9c1.3,3.3,3.5,5.7,6.8,7.2c3.3,1.4,6.7,1.6,10.1,0.3c3.4-1.3,5.9-3.6,7.3-6.9C209.1,252.9,209.2,249.5,208,246.2z"
		/>
</g>
<g>
	<path class="st3" d="M497,219.3l-5.4,19.5c4.8-3.6,9.7-4.7,14.7-3.4c4.3,1.1,7.5,3.8,9.7,7.8c2.2,4,2.6,8.1,1.4,12.7
		c-1.2,4.5-3.9,8-7.8,10.3c-4,2.3-8,2.8-12.3,1.7c-5.1-1.4-8.7-4.9-10.9-10.5l-1.6,5.8l-6.8-1.9c-0.7-0.2-1.1-0.5-1.4-0.9
		c-0.3-0.3-0.3-0.8-0.2-1.1s0.4-0.8,0.8-0.9c0.4-0.2,0.9-0.2,1.6,0l4,1l10.6-37.9l-4-1c-0.7-0.2-1.1-0.5-1.4-0.9
		c-0.3-0.3-0.3-0.8-0.2-1.2c0.1-0.4,0.3-0.8,0.8-0.9c0.4-0.2,0.9-0.2,1.6,0L497,219.3z M514.4,255.1c1-3.7,0.7-7.2-1.1-10.5
		s-4.4-5.4-7.8-6.3c-3.4-0.9-6.7-0.5-9.9,1.4c-3.2,1.9-5.4,4.6-6.4,8.3c-1,3.7-0.7,7.2,1.1,10.5c1.8,3.3,4.4,5.4,7.8,6.3
		c3.4,0.9,6.7,0.5,9.9-1.4C511.2,261.6,513.4,258.8,514.4,255.1z"/>
	<path class="st3" d="M559.3,267.6c-1.2,4.4-3.9,7.8-8,10.1c-4.2,2.3-8.4,2.8-12.9,1.5c-4.5-1.2-8-4-10.3-8s-2.8-8.3-1.6-12.8
		s3.9-7.8,8-10.1c4.1-2.3,8.4-2.8,13-1.6c4.5,1.2,7.9,3.9,10.2,8C559.9,258.9,560.5,263.2,559.3,267.6z M556.2,266.8
		c0.9-3.7,0.6-7.2-1.3-10.5c-1.9-3.3-4.7-5.5-8.4-6.5c-3.7-1-7.3-0.7-10.6,1.2c-3.4,1.9-5.5,4.6-6.5,8.2c-0.9,3.6-0.6,7.1,1.3,10.5
		c1.9,3.4,4.7,5.5,8.4,6.6c3.7,1.1,7.3,0.7,10.6-1.2C553.1,273.2,555.2,270.4,556.2,266.8z"/>
	<path class="st3" d="M602.1,279.5c-1.2,4.4-3.9,7.8-8,10.1c-4.1,2.3-8.4,2.8-12.9,1.5c-4.5-1.2-8-4-10.3-8s-2.8-8.3-1.6-12.8
		c1.2-4.4,3.9-7.8,8-10.1c4.1-2.3,8.4-2.8,13-1.6c4.5,1.2,7.9,3.9,10.2,8C602.9,270.8,603.3,275.1,602.1,279.5z M599.1,278.7
		c0.9-3.7,0.6-7.2-1.3-10.5c-1.9-3.3-4.7-5.5-8.4-6.5c-3.7-0.9-7.3-0.7-10.6,1.2c-3.4,1.9-5.5,4.6-6.5,8.2s-0.6,7.1,1.3,10.5
		c1.9,3.3,4.7,5.5,8.4,6.6c3.7,1,7.3,0.7,10.6-1.2C596,285.1,598.1,282.4,599.1,278.7z"/>
	<path class="st3" d="M641.9,276.4c0.2-0.7,0.5-1.1,0.9-1.3c0.3-0.3,0.8-0.3,1.1-0.2c0.4,0.2,0.8,0.4,0.9,0.8c0.2,0.4,0.2,0.9,0,1.6
		l-1.4,5c-0.2,0.7-0.5,1.1-0.9,1.4c-0.3,0.3-0.8,0.3-1.2,0.2c-0.4-0.1-0.7-0.3-0.9-0.7c-0.2-0.3-0.3-0.9-0.1-1.4
		c0.3-1.4-0.2-2.8-1.2-4.1c-1.6-1.8-3.9-3.2-7-4.1c-3.3-0.9-6.1-0.9-8.1-0.2c-1.6,0.7-2.6,1.6-2.9,2.8c-0.4,1.4,0.1,2.8,1.5,4.2
		c0.9,0.9,2.8,2.1,6,3.3c4,1.6,6.7,2.8,8,3.9c2.1,1.5,3.4,3,4.2,4.8c0.8,1.7,0.9,3.5,0.3,5.1c-0.7,2.5-2.5,4.3-5.4,5.7
		c-2.9,1.3-6.7,1.2-11.3,0c-4.6-1.3-8-3.5-10.4-6.7c-0.3,0.9-0.4,1.3-0.6,1.5c-0.2,0.3-0.4,0.3-0.7,0.4s-0.6,0.1-0.9,0
		c-0.4-0.1-0.8-0.3-0.9-0.8c-0.2-0.5-0.2-0.9,0-1.6l1.6-6.1c0.2-0.7,0.5-1.1,0.9-1.4c0.3-0.3,0.8-0.3,1.1-0.2
		c0.4,0.1,0.8,0.3,0.9,0.8c0.3,0.4,0.3,0.9,0.1,1.3c-0.3,1-0.3,2.1,0.1,2.8c0.5,1.3,1.6,2.6,3.1,3.9c1.6,1.2,3.6,2.3,6.2,2.8
		c3.8,1,6.8,1.1,9.1,0.3c2.3-0.9,3.6-2.2,4.1-3.7c0.5-1.8,0-3.5-1.6-5.1c-1.6-1.6-4.2-3.1-7.8-4.5s-6.1-2.6-7.4-3.6
		c-1.4-0.9-2.4-2.3-2.9-3.8c-0.6-1.5-0.7-2.8-0.3-4.3c0.7-2.5,2.5-4.2,5.4-4.9c2.8-0.9,6.1-0.8,9.5,0.3
		C636.9,271.8,640,273.7,641.9,276.4z"/>
	<path class="st3" d="M669.6,282l15.9,4.4c0.7,0.2,1.1,0.5,1.4,0.9c0.3,0.3,0.3,0.8,0.2,1.2c-0.1,0.4-0.3,0.8-0.8,0.9
		c-0.4,0.2-0.9,0.2-1.6,0l-15.9-4.4l-5.4,19.5c-0.5,1.7-0.2,3.3,0.9,4.8c1,1.5,2.8,2.6,5.5,3.4c2,0.6,4.2,0.9,6.7,0.9
		c2.5,0.1,4.4-0.1,6-0.5c0.6-0.2,0.9-0.3,1.3-0.2c0.4,0.1,0.7,0.3,0.9,0.8c0.2,0.3,0.3,0.8,0.2,1.1c-0.1,0.3-0.3,0.7-0.8,0.9
		c-0.9,0.6-2.9,0.9-6.1,0.9c-3.1,0.1-6.1-0.3-8.6-0.9c-3.4-0.9-6-2.5-7.5-4.7s-2-4.6-1.2-7.4l5.4-19.5l-5.4-1.5
		c-0.7-0.2-1.1-0.5-1.4-0.9c-0.3-0.3-0.3-0.8-0.2-1.2c0.1-0.4,0.3-0.8,0.8-0.9c0.4-0.2,0.9-0.2,1.6,0l5.4,1.5l2.4-8.6
		c0.2-0.7,0.5-1.1,0.9-1.4c0.3-0.3,0.8-0.3,1.1-0.2c0.4,0.1,0.8,0.4,0.9,0.8s0.2,0.9,0,1.6L669.6,282z"/>
</g>
<g class="st2">
	<path class="st3" d="M269.6,222.6c-12.2,17.4-19.8,34.2-22.7,50.4c-7.2-4.6-10.7-9.2-10.7-13.9c0-9.6,9.4-24.7,28.1-45.4
		c-4.3-7.4-8.3-16.6-12-27.3c-3.7-10.8-5.6-18.5-5.6-23.3c0-5.1,6-8.7,17.9-10.8c-0.4,1.4-0.6,2.6-0.6,3.7c0,11.3,4.6,26.3,13.9,45
		c15.5-18.6,23.3-33.4,23.3-44.4l-0.1-1.2c0.7-0.1,2.4-0.2,4.9-0.4h1.1c6.4,0,9.7,1.8,9.7,5.4c0,8.9-11.4,25.2-34.3,48.8
		c8.9,14.4,18.4,21.6,28.5,21.6c18,0,37.1-19.3,57.5-57.8l7.5,4.5c-13.3,24.7-25.5,42.6-36.7,53.8s-22.4,16.8-33.8,16.8
		C291.9,247.9,280,239.4,269.6,222.6z"/>
	<path class="st3" d="M424.3,197.7c-5.8,12.4-14.2,23.3-25.2,32.7c-11,9.4-20.8,14.1-29.5,14.1c-6.5,0-11.8-2.3-15.9-6.9
		c-4.1-4.6-6.2-10.6-6.2-17.9c0-17.1,6.3-33,18.8-47.5c12.5-14.6,26.2-21.8,41-21.8c7.6,0,15.9,2.3,24.7,6.8c1.2-6,2.9-9.7,5.2-11.3
		c2.3-1.6,8-2.8,17.3-3.8c-4.7,9.7-9.1,33-13.3,69.6l-1.2,9.5c12.6-6.1,21.2-11.8,30-19.4l5.6,8.5c-4.3,5.8-19.7,14.4-36.3,25.1
		c-0.2,2.4-0.3,4.2-0.4,5.4c-0.9,15.6-2.5,27.1-4.7,34.5c-2.3,7.4-6.4,14.4-12.3,21c-11.6,13-25.7,19.5-42.3,19.5
		c-8.9,0-16.1-2.2-21.7-6.6c-5.6-4.4-8.3-10-8.3-17c0-6.8,2.4-12.7,7.2-17.8c4.8-5.1,13.8-11.3,27.1-18.6
		c8.8-4.8,21.2-11.9,37.2-21.4L424.3,197.7z M428.9,173.5c-7.8-8.6-16.3-12.8-25.6-12.8c-8.8,0-17.2,5.8-25,17.3
		c-7.8,11.5-11.7,23.8-11.7,36.7c0,9.2,3.3,13.8,9.8,13.8c6.3,0,14.7-5.5,25.2-16.4C412,201,421.1,188.2,428.9,173.5z M420.3,246.7
		c-3.5,2.2-10.5,6.3-21,12.5c-20.7,12.1-31,22.8-31,32c0,4.1,1.7,7.5,5,10.1c3.3,2.7,7.6,4,12.8,4
		C408.9,305.3,420.3,285.8,420.3,246.7z"/>
</g>
<g>
	<g>
		<g>
			<path class="st4" d="M344.8,481.3c0,0-8.3,5.1-14-1.4c-2.5,2.1-5.5,1.4-8.7-2c-4.3,3.3-18.7,5.3-22.5-8.6
				c-10.6,1.2-17.8-4.6-17.6-12c-5-0.5-9.8-5.4-3.8-10.7c-2.1-10.2,4.1-12.3,6.1-12.9c-0.7-3.3,0.6-7.1,2.9-7.6
				c-3.4-1.8-3.9-5.3-3.7-7.3c-8.1,2.4-9.3-5.9-5.1-8.2c-1.8-4.6-0.5-9.1,3.2-12c-1-2.4-1.2-5.9,1.7-7.4c-0.6-4.2-0.5-11.6,9.3-12.5
				c-0.6-3.5,2.7-7,8.3-3.9c3.9-3.8,9.4-2.5,14-1.1c-1.4-6,1.9-11.3,6.5-12.2c-2-14.7,9.9-20.6,19-17.6c0.6-9.8,8.7-12.1,14.3-4.4
				c11.6-5.9,26.1,1.5,26.5,12.8c8.9-2,15.8,5.9,16.4,10.7c1.6-1,3.5-1,4.5,0.1c1.5-8,13.7-8.9,17.2-3.3c2-4.7,10-4.7,9.6,2.5
				c10.8-1.8,13.2,12,12.4,17.4c6.5,5,7.3,10.9,1.2,17.6c4.2,3.4,3.6,11.8,3.5,14.2c9.8,3.5,8.7,10.5,8.3,15.5
				c6.1,5.2,7.1,10.6,1.4,16.4c8.1,15.5-6.1,34.1-23.9,16c-1.6,1.5-4.4,2-6.3,2.5c-0.6,10.5-9.5,12.8-15.5,6.9
				c-4.5,2.4-8.7,3.2-14.7,1.1s-6.5-2.7-7.2-5c-2.8,2.7-5.1,3.2-9.3,2.5c-5.8,1.7-14.1-0.3-17.6-5.1c-4.1,5.2-2.9,7.1-9.1,6.8
				C351.9,475,344.8,481.3,344.8,481.3z"/>
			<path class="st5" d="M278.2,446.7c-7.4,5.3,0.8,11.8,3,11.4c-3.8,11.3,12.2,14.8,17.7,13c-0.3,4,10.2,15.7,22.1,10.3
				c1.1,1.5,6.6,4.3,10.1,0.6c13.4,6.2,22.2-6.5,21-12.9c-1,5.4-16.3,14.6-21.3,10.9c-3.7,2.3-7-1.1-8.7-2c-8,4.3-22.2-5.3-22.5-8.6
				c-12.1,1.7-17.8-10.5-17.6-12C275.7,454.6,276.6,449.6,278.2,446.7z"/>
			<path class="st5" d="M361.3,462.2c-0.5,2.6,16.5,13.4,26.9,2.6c3.3,7.6,15.1,12.9,21.7,2.6c3.3,8.3,16.4,12.3,16.2-3.5
				c0,0,3.8,3.4,6.7-1c2.4,5.9,15.5,8.6,18.4,2.4c-3.7,0.7-15.5-1.8-19.7-7.2c-1.8,2-2.5,3.2-6.4,2.9c-2,6.3-7.9,12.6-15.6,5.3
				c-5.1,3.1-12.5,4.7-21.9-3.1c-5.6,2.6-10.5,6.4-14.2,1.9C370.8,465.9,362.4,463.3,361.3,462.2z"/>
			<path class="st6" d="M320.9,559.6c0,0,14,3.2,20.9,1.7c6.9-1.6,16.2-12.6,22.8-12.1c6.5,0.5,9,6.7,14,7.3
				c5,0.7,23.1,4.3,27.5,9.3c-1.5-14-10.3-16.2-16.8-25.7c-4.2-10.8,2.9-64.8,6.5-67.5c4.1-2.7,10.5-2.7,14.8-3.3
				c4.3-0.6,13.7-10.2,13-12.1c-0.7-1.9-10.2,6-12.5,6.7s-10.2,1.9-10.2,0.3s8.9-9.8,7.9-10.5c-1-0.7-2-2.3-7.4,2.7
				c-5.4,5-11.7,18.6-17.9,17.7s-7.8-8.1-9.4-14.4c-1.6-6.3-6.5-6.8-6.5-9s4.3-4.2,7.6-6.1c3.4-1.9,9.4-7.4,8.2-11.3
				c-1-3.8-7.6,11.2-20.3,10.5c-6.2-1-14.9-19.5-16.8-24c-2.4,0.3-2.9,13.8,21.4,43.9c-1.6,9.8-3,15.1-8.2,16.5
				c-23.2-4.2-28.4-21.6-32.5-20.6c-2.6-0.7-3.3,4.6-1.8,6.5c2.7,7.9,24,20.8,27.2,32.4c-0.3,4.5,2.8,37.9-8.3,50.8
				C340.8,552.6,320.3,557.8,320.9,559.6z"/>
			<path class="st5" d="M377.3,377c-2.6,5.8-2,17.7,7.4,12.6c-6,10.5,3.5,16.9,9.4,15.6c-0.6,3.9,10.7,9,16.7,4.9
				c2.4,2.8,11.4,4.3,14-1c5.1,3.6,19.4-0.3,17.6-11.8c-2.9,9.3-11.7,15.3-17.2,9.5c-5.2,4.1-10.5,5.8-13.5,0.9
				c-8.3,3.7-15-2.4-15-5.8c-10.9,0.7-9-13.2-6.4-16.4C381.4,389,377.2,386.5,377.3,377z"/>
			<path class="st5" d="M279.9,436.2c-0.7,6.2,8,18.7,15.5,10.8c-2.3,11.8,10.5,14.3,15.5,11.2c0.7,3.9,11.6,7.6,16,1.7
				c3.2,1.9,16.9,2.7,17.7-3.2c6,1.8,13.2-4.6,7.9-15c0.2,9.7-3.9,13.1-9.7,10.7c-3.7,5.5-11.1,6-15.5,2.5
				c-6.8,6.1-14.4,2.9-15.5-0.2c-10.2,4.2-16.5-7.3-15-11.3C289.5,449.6,282.8,445.2,279.9,436.2z"/>
			<path class="st5" d="M325,402.1c-2.5,6.3,7.3,18.1,18.1,15.8c-0.3,4.3,12.5,16.5,20.8,12.9c0.1,3.9,15.1,6.4,23,0.1
				c4.2,1.8,17.9-0.5,20.5-6.3c8.5,1.4,30.1-5.1,24.7-15.2c-2,9.8-15.2,16.2-24.6,12.9c-6.8,5.8-14.1,9.4-19.9,6.1
				c-11.5,6.7-20.8,0.9-21.6-2.3c-16,4.9-17.5-8.6-14.4-12.5C339.4,417.9,327.2,411,325,402.1z"/>
			<path class="st7" d="M397.5,362.8c-2.4-1-8.9-13-18.3-6c-1-16.7-24.6-17.5-24.6-17.5c15.9-8.2,27.9,6.4,26.5,12.8
				C383.7,350.4,396.3,352.6,397.5,362.8z"/>
			<path class="st7" d="M338.5,380.2c-9.6-3.6-12.2-7.8-23.2-2.4c-8.5-4.9-14.3-2.9-14.3-2.9c5.4-4.9,11.4-2.3,14-1.1
				C316.3,371,334.7,367.8,338.5,380.2z"/>
			<path class="st7" d="M442.4,397.2c0.1-6.4,2.4-12.1-3.6-17.2c0.1-13.1-10-17.9-10-17.9c6.2-1.8,13.4,4.2,12.4,17.4
				C444.2,379.1,451.3,389.5,442.4,397.2z"/>
			<path class="st7" d="M419.1,359.7c1.1-3.9,10.2-6.7,9.6,2.5C426.6,360.9,424.2,356.1,419.1,359.7z"/>
			<path class="st7" d="M346.7,429.5c-6.1-5.1-11.6-12.9-20.9-9.4c-6.4-9.6-14.9-11.8-14.9-11.8c11.4-2.4,14,6.3,15.6,7.8
				C328.2,413.7,346.9,416.9,346.7,429.5z"/>
			<path class="st5" d="M331.7,398.8c-1.5,6.9-20.2,16.9-26.1,6.4c0,0-6,11.3-14.9,9c-8.9-2.1-14-6.5-13.1-9.3
				c2.3,1.1,19.9,9.5,28.4-3.7C310.6,411.6,331.7,398.8,331.7,398.8z"/>
			<path class="st7" d="M455.6,443.3c0.1-6.4,3.3-11.1-2.6-16.1c0.1-13.1-7.1-15.8-7.1-15.8c6.2-1.8,9.4,2.3,8.3,15.5
				C457.3,426.5,464.4,435.5,455.6,443.3z"/>
		</g>
		<g>
			<path class="st4" d="M145.6,481.3c0,0-8.3,5.1-14-1.4c-2.5,2.1-5.5,1.4-8.7-2c-4.3,3.3-18.7,5.3-22.5-8.6
				c-10.6,1.2-17.8-4.6-17.6-12c-5-0.5-9.8-5.4-3.8-10.7c-2.1-10.2,4.1-12.3,6.1-12.9c-0.7-3.3,0.6-7.1,2.9-7.6
				c-3.4-1.8-3.9-5.3-3.7-7.3c-8.1,2.4-9.3-5.9-5.1-8.2c-1.8-4.6-0.5-9.1,3.2-12c-1-2.4-1.2-5.9,1.7-7.4c-0.6-4.2-0.5-11.6,9.3-12.5
				c-0.6-3.5,2.7-7,8.3-3.9c3.9-3.8,9.4-2.5,14-1.1c-1.4-6,1.9-11.3,6.5-12.2c-2-14.7,9.9-20.6,19-17.6c0.6-9.8,8.7-12.1,14.3-4.4
				c11.6-5.9,26.1,1.5,26.5,12.8c8.9-2,15.8,5.9,16.4,10.7c1.6-1,3.5-1,4.5,0.1c1.5-8,13.7-8.9,17.2-3.3c2-4.7,10-4.7,9.6,2.5
				c10.8-1.8,13.2,12,12.4,17.4c6.5,5,7.3,10.9,1.2,17.6c4.2,3.4,3.6,11.8,3.5,14.2c9.8,3.5,8.7,10.5,8.3,15.5
				c6.1,5.2,7.1,10.6,1.4,16.4c8.1,15.5-6.1,34.1-23.9,16c-1.6,1.5-4.4,2-6.3,2.5c-0.6,10.5-9.5,12.8-15.5,6.9
				c-4.5,2.4-8.7,3.2-14.7,1.1c-6-2-6.5-2.7-7.2-5c-2.8,2.7-5.1,3.2-9.3,2.5c-5.8,1.7-14.1-0.3-17.6-5.1c-4.1,5.2-2.9,7.1-9.1,6.8
				C152.7,475,145.6,481.3,145.6,481.3z"/>
			<path class="st5" d="M79,446.7c-7.4,5.3,0.8,11.8,3,11.4c-3.8,11.3,12.2,14.8,17.7,13c-0.3,4,10.2,15.7,22.1,10.3
				c1.1,1.5,6.6,4.3,10.1,0.6c13.4,6.2,22.2-6.5,21-12.9c-1,5.4-16.3,14.6-21.3,10.9c-3.7,2.3-7-1.1-8.7-2c-8,4.3-22.2-5.3-22.5-8.6
				c-12.2,1.7-17.8-10.5-17.6-12C76.5,454.6,77.3,449.6,79,446.7z"/>
			<path class="st5" d="M162,462.2c-0.5,2.6,16.5,13.4,26.9,2.6c3.3,7.6,15.1,12.9,21.7,2.6c3.3,8.3,16.4,12.3,16.2-3.5
				c0,0,3.8,3.4,6.7-1c2.4,5.9,15.5,8.6,18.4,2.4c-3.7,0.7-15.5-1.8-19.7-7.2c-1.8,2-2.5,3.2-6.4,2.9c-2,6.3-7.9,12.6-15.6,5.3
				c-5.1,3.1-12.5,4.7-21.9-3.1c-5.6,2.6-10.5,6.4-14.2,1.9C171.6,465.9,163.2,463.3,162,462.2z"/>
			<path class="st6" d="M121.6,559.6c0,0,14,3.2,20.9,1.7c6.9-1.6,16.2-12.6,22.8-12.1c6.5,0.5,9,6.7,14,7.3
				c5,0.7,23.1,4.3,27.5,9.3c-1.5-14-10.3-16.2-16.8-25.7c-4.2-10.8,2.9-64.8,6.5-67.5c4.1-2.7,10.5-2.7,14.8-3.3
				c4.3-0.6,13.7-10.2,13-12.1c-0.7-1.9-10.2,6-12.5,6.7c-2.4,0.7-10.2,1.9-10.2,0.3s8.9-9.8,7.9-10.5c-1-0.7-2-2.3-7.4,2.7
				c-5.4,5-11.7,18.6-17.9,17.7s-7.8-8.1-9.4-14.4c-1.6-6.3-6.5-6.8-6.5-9s4.3-4.2,7.6-6.1c3.4-1.9,9.4-7.4,8.2-11.3
				c-1-3.8-7.6,11.2-20.3,10.5c-6.2-1-14.9-19.5-16.8-24c-2.4,0.3-2.9,13.8,21.4,43.9c-1.6,9.8-3,15.1-8.2,16.5
				c-23.2-4.2-28.4-21.6-32.5-20.6c-2.6-0.7-3.3,4.6-1.8,6.5c2.7,7.9,24,20.8,27.2,32.4c-0.3,4.5,2.8,37.9-8.3,50.8
				C141.6,552.6,121.1,557.8,121.6,559.6z"/>
			<path class="st5" d="M178,377c-2.6,5.8-2,17.7,7.4,12.6c-6,10.5,3.5,16.9,9.4,15.6c-0.6,3.9,10.7,9,16.7,4.9
				c2.4,2.8,11.4,4.3,14-1c5.1,3.6,19.4-0.3,17.6-11.8c-2.9,9.3-11.7,15.3-17.2,9.5c-5.2,4.1-10.5,5.8-13.5,0.9
				c-8.3,3.7-15-2.4-15-5.8c-10.9,0.7-9-13.2-6.4-16.4C182.2,389,177.9,386.5,178,377z"/>
			<path class="st5" d="M80.7,436.2c-0.7,6.2,8,18.7,15.5,10.8c-2.3,11.8,10.5,14.3,15.5,11.2c0.7,3.9,11.6,7.6,16,1.7
				c3.2,1.9,16.9,2.7,17.7-3.2c6,1.8,13.2-4.6,7.9-15c0.2,9.7-3.9,13.1-9.7,10.7c-3.7,5.5-11.1,6-15.5,2.5
				c-6.8,6.1-14.4,2.9-15.5-0.2c-10.2,4.2-16.5-7.3-15-11.3C90.3,449.6,83.6,445.2,80.7,436.2z"/>
			<path class="st5" d="M125.8,402.1c-2.5,6.3,7.3,18.1,18.1,15.8c-0.3,4.3,12.5,16.5,20.8,12.9c0.1,3.9,15.1,6.4,23,0.1
				c4.2,1.8,17.9-0.5,20.5-6.3c8.5,1.4,30.1-5.1,24.7-15.2c-2,9.8-15.2,16.2-24.6,12.9c-6.8,5.8-14.1,9.4-19.9,6.1
				c-11.5,6.7-20.8,0.9-21.6-2.3c-16,4.9-17.5-8.6-14.4-12.5C140.1,417.9,128,411,125.8,402.1z"/>
			<path class="st7" d="M198.2,362.8c-2.4-1-8.9-13-18.3-6c-1-16.7-24.6-17.5-24.6-17.5c15.9-8.2,27.9,6.4,26.5,12.8
				C184.5,350.4,197.1,352.6,198.2,362.8z"/>
			<path class="st7" d="M139.2,380.2c-9.6-3.6-12.2-7.8-23.2-2.4c-8.5-4.9-14.3-2.9-14.3-2.9c5.4-4.9,11.4-2.3,14-1.1
				C117.1,371,135.5,367.8,139.2,380.2z"/>
			<path class="st7" d="M243.2,397.2c0.1-6.4,2.4-12.1-3.6-17.2c0.1-13.1-10-17.9-10-17.9c6.2-1.8,13.4,4.2,12.4,17.4
				C245,379.1,252.1,389.5,243.2,397.2z"/>
			<path class="st7" d="M219.9,359.7c1.1-3.9,10.2-6.7,9.6,2.5C227.4,360.9,225,356.1,219.9,359.7z"/>
			<path class="st7" d="M147.5,429.5c-6.1-5.1-11.6-12.9-20.9-9.4c-6.4-9.6-14.9-11.8-14.9-11.8c11.4-2.4,14,6.3,15.6,7.8
				C129,413.7,147.7,416.9,147.5,429.5z"/>
			<path class="st5" d="M132.5,398.8c-1.5,6.9-20.2,16.9-26.1,6.4c0,0-6,11.3-14.9,9c-8.9-2.1-14-6.5-13.1-9.3
				c2.3,1.1,19.9,9.5,28.4-3.7C111.4,411.6,132.5,398.8,132.5,398.8z"/>
			<path class="st7" d="M256.4,443.3c0.1-6.4,3.3-11.1-2.6-16.1c0.1-13.1-7.1-15.8-7.1-15.8c6.2-1.8,9.4,2.3,8.3,15.5
				C258,426.5,265.2,435.5,256.4,443.3z"/>
		</g>
		<g>
			<path class="st4" d="M544,481.3c0,0-8.3,5.1-14-1.4c-2.5,2.1-5.5,1.4-8.7-2c-4.3,3.3-18.7,5.3-22.5-8.6
				c-10.6,1.2-17.8-4.6-17.6-12c-5-0.5-9.8-5.4-3.8-10.7c-2.1-10.2,4.1-12.3,6.1-12.9c-0.7-3.3,0.6-7.1,2.9-7.6
				c-3.4-1.8-3.9-5.3-3.7-7.3c-8.1,2.4-9.3-5.9-5.1-8.2c-1.8-4.6-0.5-9.1,3.2-12c-1-2.4-1.2-5.9,1.7-7.4c-0.6-4.2-0.5-11.6,9.3-12.5
				c-0.6-3.5,2.7-7,8.3-3.9c3.9-3.8,9.4-2.5,14-1.1c-1.4-6,1.9-11.3,6.5-12.2c-2-14.7,9.9-20.6,19-17.6c0.6-9.8,8.7-12.1,14.3-4.4
				c11.6-5.9,26.1,1.5,26.5,12.8c8.9-2,15.8,5.9,16.4,10.7c1.6-1,3.5-1,4.5,0.1c1.5-8,13.7-8.9,17.2-3.3c2-4.7,10-4.7,9.6,2.5
				c10.8-1.8,13.2,12,12.4,17.4c6.5,5,7.3,10.9,1.2,17.6c4.2,3.4,3.6,11.8,3.5,14.2c9.8,3.5,8.7,10.5,8.3,15.5
				c6.1,5.2,7.1,10.6,1.4,16.4c8.1,15.5-6.1,34.1-23.9,16c-1.6,1.5-4.4,2-6.3,2.5c-0.6,10.5-9.5,12.8-15.5,6.9
				c-4.5,2.4-8.7,3.2-14.7,1.1c-6-2-6.5-2.7-7.2-5c-2.8,2.7-5.1,3.2-9.3,2.5c-5.8,1.7-14.1-0.3-17.6-5.1c-4.1,5.2-2.9,7.1-9.1,6.8
				C551.1,475,544,481.3,544,481.3z"/>
			<path class="st5" d="M477.4,446.7c-7.4,5.3,0.8,11.8,3,11.4c-3.8,11.3,12.2,14.8,17.7,13c-0.3,4,10.2,15.7,22.1,10.3
				c1.1,1.5,6.6,4.3,10.1,0.6c13.4,6.2,22.2-6.5,21-12.9c-1,5.4-16.3,14.6-21.3,10.9c-3.7,2.3-7-1.1-8.7-2c-8,4.3-22.2-5.3-22.5-8.6
				c-12.1,1.7-17.8-10.5-17.6-12C474.9,454.6,475.8,449.6,477.4,446.7z"/>
			<path class="st5" d="M560.5,462.2c-0.5,2.6,16.5,13.4,26.9,2.6c3.3,7.6,15.1,12.9,21.7,2.6c3.3,8.3,16.4,12.3,16.2-3.5
				c0,0,3.8,3.4,6.7-1c2.4,5.9,15.5,8.6,18.4,2.4c-3.7,0.7-15.5-1.8-19.7-7.2c-1.8,2-2.5,3.2-6.4,2.9c-2,6.3-7.9,12.6-15.6,5.3
				c-5.1,3.1-12.5,4.7-21.9-3.1c-5.6,2.6-10.5,6.4-14.2,1.9C570,465.9,561.6,463.3,560.5,462.2z"/>
			<path class="st6" d="M520.1,559.6c0,0,14,3.2,20.9,1.7c6.9-1.6,16.2-12.6,22.8-12.1c6.5,0.5,9,6.7,14,7.3
				c5,0.7,23.1,4.3,27.5,9.3c-1.5-14-10.3-16.2-16.8-25.7c-4.2-10.8,2.9-64.8,6.5-67.5c4.1-2.7,10.5-2.7,14.8-3.3
				c4.3-0.6,13.7-10.2,13-12.1c-0.7-1.9-10.2,6-12.5,6.7s-10.2,1.9-10.2,0.3s8.9-9.8,7.9-10.5c-1-0.7-2-2.3-7.4,2.7
				c-5.4,5-11.7,18.6-17.9,17.7s-7.8-8.1-9.4-14.4c-1.6-6.3-6.5-6.8-6.5-9s4.3-4.2,7.6-6.1c3.4-1.9,9.4-7.4,8.2-11.3
				c-1-3.8-7.6,11.2-20.3,10.5c-6.2-1-14.9-19.5-16.8-24c-2.4,0.3-2.9,13.8,21.4,43.9c-1.6,9.8-3,15.1-8.2,16.5
				c-23.2-4.2-28.4-21.6-32.5-20.6c-2.6-0.7-3.3,4.6-1.8,6.5c2.7,7.9,24,20.8,27.2,32.4c-0.3,4.5,2.8,37.9-8.3,50.8
				C540.1,552.6,519.5,557.8,520.1,559.6z"/>
			<path class="st5" d="M576.5,377c-2.6,5.8-2,17.7,7.4,12.6c-6,10.5,3.5,16.9,9.4,15.6c-0.6,3.9,10.7,9,16.7,4.9
				c2.4,2.8,11.4,4.3,14-1c5.1,3.6,19.4-0.3,17.6-11.8c-2.9,9.3-11.7,15.3-17.2,9.5c-5.2,4.1-10.5,5.8-13.5,0.9
				c-8.3,3.7-15-2.4-15-5.8c-10.9,0.7-9-13.2-6.4-16.4C580.7,389,576.4,386.5,576.5,377z"/>
			<path class="st5" d="M479.1,436.2c-0.7,6.2,8,18.7,15.5,10.8c-2.3,11.8,10.5,14.3,15.5,11.2c0.7,3.9,11.6,7.6,16,1.7
				c3.2,1.9,16.9,2.7,17.7-3.2c6,1.8,13.2-4.6,7.9-15c0.2,9.7-3.9,13.1-9.7,10.7c-3.7,5.5-11.1,6-15.5,2.5
				c-6.8,6.1-14.4,2.9-15.5-0.2c-10.2,4.2-16.5-7.3-15-11.3C488.7,449.6,482.1,445.2,479.1,436.2z"/>
			<path class="st5" d="M524.3,402.1c-2.5,6.3,7.3,18.1,18.1,15.8c-0.3,4.3,12.5,16.5,20.8,12.9c0.1,3.9,15.1,6.4,23,0.1
				c4.2,1.8,17.9-0.5,20.5-6.3c8.5,1.4,30.1-5.1,24.7-15.2c-2,9.8-15.2,16.2-24.6,12.9c-6.8,5.8-14.1,9.4-19.9,6.1
				c-11.5,6.7-20.8,0.9-21.6-2.3c-16,4.9-17.5-8.6-14.4-12.5C538.6,417.9,526.4,411,524.3,402.1z"/>
			<path class="st7" d="M596.7,362.8c-2.4-1-8.9-13-18.3-6c-1-16.7-24.6-17.5-24.6-17.5c15.9-8.2,27.9,6.4,26.5,12.8
				C582.9,350.4,595.6,352.6,596.7,362.8z"/>
			<path class="st7" d="M537.7,380.2c-9.6-3.6-12.2-7.8-23.2-2.4c-8.5-4.9-14.3-2.9-14.3-2.9c5.4-4.9,11.4-2.3,14-1.1
				C515.6,371,534,367.8,537.7,380.2z"/>
			<path class="st7" d="M641.6,397.2c0.1-6.4,2.4-12.1-3.6-17.2c0.1-13.1-10-17.9-10-17.9c6.2-1.8,13.4,4.2,12.4,17.4
				C643.4,379.1,650.5,389.5,641.6,397.2z"/>
			<path class="st7" d="M618.4,359.7c1.1-3.9,10.2-6.7,9.6,2.5C625.8,360.9,623.4,356.1,618.4,359.7z"/>
			<path class="st7" d="M545.9,429.5c-6.1-5.1-11.6-12.9-20.9-9.4c-6.4-9.6-14.9-11.8-14.9-11.8c11.4-2.4,14,6.3,15.6,7.8
				C527.4,413.7,546.1,416.9,545.9,429.5z"/>
			<path class="st5" d="M530.9,398.8c-1.5,6.9-20.2,16.9-26.1,6.4c0,0-6,11.3-14.9,9c-8.9-2.1-14-6.5-13.1-9.3
				c2.3,1.1,19.9,9.5,28.4-3.7C509.8,411.6,530.9,398.8,530.9,398.8z"/>
			<path class="st7" d="M654.8,443.3c0.1-6.4,3.3-11.1-2.6-16.1c0.1-13.1-7.1-15.8-7.1-15.8c6.2-1.8,9.4,2.3,8.3,15.5
				C656.5,426.5,663.6,435.5,654.8,443.3z"/>
		</g>
	</g>
	<g>
		<path class="st1" d="M632.7,581.4H102.8c-5.3,0-9.6-4.3-9.6-9.6l0,0c0-5.3,4.3-9.6,9.6-9.6h530c5.3,0,9.6,4.3,9.6,9.6l0,0
			C642.3,577,638,581.4,632.7,581.4z"/>
		<circle class="st8" cx="109.1" cy="571.8" r="5.1"/>
		<circle class="st8" cx="206.1" cy="571.8" r="5.1"/>
		<circle class="st8" cx="173.7" cy="571.8" r="5.1"/>
		<circle class="st8" cx="141.4" cy="571.8" r="5.1"/>
		<circle class="st8" cx="238.5" cy="571.8" r="5.1"/>
		<circle class="st8" cx="270.7" cy="571.8" r="5.1"/>
		<circle class="st8" cx="303.1" cy="571.8" r="5.1"/>
		<circle class="st8" cx="335.4" cy="571.8" r="5.1"/>
		<circle class="st8" cx="367.8" cy="571.8" r="5.1"/>
		<circle class="st8" cx="464.8" cy="571.8" r="5.1"/>
		<circle class="st8" cx="432.4" cy="571.8" r="5.1"/>
		<circle class="st8" cx="400.1" cy="571.8" r="5.1"/>
		<circle class="st8" cx="497.1" cy="571.8" r="5.1"/>
		<circle class="st8" cx="529.5" cy="571.8" r="5.1"/>
		<circle class="st8" cx="561.7" cy="571.8" r="5.1"/>
		<circle class="st8" cx="594.1" cy="571.8" r="5.1"/>
		<circle class="st8" cx="626.5" cy="571.8" r="5.1"/>
		<ellipse class="st9" cx="109.1" cy="571.8" rx="7.5" ry="7"/>
		
			<ellipse transform="matrix(0.9798 -0.2001 0.2001 0.9798 -111.5874 39.8789)" class="st9" cx="141.4" cy="571.8" rx="7.5" ry="7"/>
		
			<ellipse transform="matrix(0.3226 -0.9466 0.9466 0.3226 -423.5815 551.8004)" class="st9" cx="173.7" cy="571.8" rx="7" ry="7.5"/>
		<ellipse class="st9" cx="206.1" cy="571.8" rx="7.5" ry="7"/>
		
			<ellipse transform="matrix(0.9798 -0.2001 0.2001 0.9798 -109.6239 59.3006)" class="st9" cx="238.5" cy="571.8" rx="7.5" ry="7"/>
		<ellipse transform="matrix(0.706 -0.7082 0.7082 0.706 -325.3689 359.8493)" class="st9" cx="270.7" cy="571.8" rx="7.5" ry="7"/>
		<ellipse transform="matrix(0.2348 -0.972 0.972 0.2348 -323.8865 732.1997)" class="st9" cx="303.1" cy="571.8" rx="7" ry="7.5"/>
		
			<ellipse transform="matrix(0.9798 -0.2001 0.2001 0.9798 -107.6627 78.6997)" class="st9" cx="335.4" cy="571.8" rx="7.5" ry="7"/>
		
			<ellipse transform="matrix(0.3423 -0.9396 0.9396 0.3423 -295.3548 721.6949)" class="st9" cx="367.8" cy="571.8" rx="7.5" ry="7"/>
		
			<ellipse transform="matrix(0.1801 -0.9836 0.9836 0.1801 -234.4706 862.3465)" class="st9" cx="400.1" cy="571.8" rx="7.5" ry="7"/>
		
			<ellipse transform="matrix(0.8211 -0.5708 0.5708 0.8211 -249.0335 349.1514)" class="st9" cx="432.4" cy="571.8" rx="7.1" ry="7"/>
		
			<ellipse transform="matrix(0.5648 -0.8252 0.8252 0.5648 -269.5962 632.4293)" class="st9" cx="464.8" cy="571.8" rx="7.1" ry="7"/>
		
			<ellipse transform="matrix(0.9987 -5.105620e-02 5.105620e-02 0.9987 -28.5468 26.1251)" class="st9" cx="497.1" cy="571.8" rx="7.1" ry="7"/>
		
			<ellipse transform="matrix(0.5838 -0.8119 0.8119 0.5838 -243.9016 667.8208)" class="st9" cx="529.5" cy="571.8" rx="7.1" ry="7"/>
		
			<ellipse transform="matrix(0.9841 -0.1779 0.1779 0.9841 -92.7565 109.0406)" class="st9" cx="561.7" cy="571.8" rx="7" ry="7.1"/>
		
			<ellipse transform="matrix(0.8211 -0.5708 0.5708 0.8211 -220.1037 441.4464)" class="st9" cx="594.1" cy="571.8" rx="7.1" ry="7"/>
		
			<ellipse transform="matrix(0.6656 -0.7463 0.7463 0.6656 -217.2578 658.7319)" class="st9" cx="626.5" cy="571.8" rx="7.1" ry="7"/>
	</g>
	<g>
		<g>
			<path class="st10" d="M113.2,653.6c0,0,0-10.1,3.7-10.1h47.8c5,0,5,10.1,5,10.1H113.2z"/>
			<rect x="136.1" y="588.9" class="st1" width="10.7" height="54.5"/>
			<path class="st11" d="M155.6,581.8c0,0,0,7-1.9,7h-23.9c-2.5,0-2.5-7-2.5-7H155.6z"/>
		</g>
		<g>
			<path class="st10" d="M339.6,653.6c0,0,0-10.1,3.7-10.1h47.8c5,0,5,10.1,5,10.1H339.6z"/>
			<rect x="362.5" y="588.9" class="st1" width="10.7" height="54.5"/>
			<path class="st11" d="M382,581.8c0,0,0,7-1.9,7h-23.9c-2.5,0-2.5-7-2.5-7H382z"/>
		</g>
		<g>
			<path class="st10" d="M468.8,653.6c0,0,0-10.1,3.7-10.1h47.8c5,0,5,10.1,5,10.1H468.8z"/>
			<rect x="491.7" y="588.9" class="st1" width="10.7" height="54.5"/>
			<path class="st11" d="M511.2,581.8c0,0,0,7-1.9,7h-23.9c-2.5,0-2.5-7-2.5-7H511.2z"/>
		</g>
		<g>
			<path class="st10" d="M210.2,653.6c0,0,0-10.1,3.7-10.1h47.8c5,0,5,10.1,5,10.1H210.2z"/>
			<rect x="233.1" y="588.9" class="st1" width="10.7" height="54.5"/>
			<path class="st11" d="M252.6,581.8c0,0,0,7-1.9,7h-23.9c-2.5,0-2.5-7-2.5-7H252.6z"/>
		</g>
		<g>
			<path class="st10" d="M565.9,653.6c0,0,0-10.1,3.7-10.1h47.8c5,0,5,10.1,5,10.1H565.9z"/>
			<rect x="588.7" y="588.9" class="st1" width="10.7" height="54.5"/>
			<path class="st11" d="M608.3,581.8c0,0,0,7-1.9,7h-23.9c-2.5,0-2.5-7-2.5-7H608.3z"/>
		</g>
	</g>
</g>
</svg>
