<?xml version="1.0" encoding="utf-8"?>
<!-- Generator: Adobe Illustrator 22.1.0, SVG Export Plug-In . SVG Version: 6.00 Build 0)  -->
<svg version="1.1" id="Layer_1" xmlns="http://www.w3.org/2000/svg" xmlns:xlink="http://www.w3.org/1999/xlink" x="0px" y="0px"
	 viewBox="0 0 735 852" style="enable-background:new 0 0 735 852;" xml:space="preserve">
<style type="text/css">
	.st0{fill:#1E7B42;}
	.st1{clip-path:url(#SVGID_2_);}
	.st2{fill:#009E45;}
	.st3{fill:#E6B35A;}
	.st4{fill:#606060;}
	.st5{enable-background:new    ;}
	.st6{fill:#FFFFFF;}
	.st7{fill:#FFFFFF;stroke:#FFFFFF;stroke-width:2.7387;stroke-miterlimit:10;}
	.st8{fill:#6CC900;}
	.st9{fill:#745C00;}
	.st10{fill:#6CA800;}
	.st11{fill:#AAD646;}
	.st12{fill:#969696;stroke:#000000;stroke-width:2.3395;stroke-miterlimit:10;}
	.st13{fill:#646464;stroke:#000000;stroke-width:2.3395;stroke-miterlimit:10;}
	.st14{fill:#C8C8C8;stroke:#000000;stroke-width:2.3395;stroke-miterlimit:10;}
	.st15{fill:none;stroke:#000000;stroke-width:2.3395;stroke-miterlimit:10;}
	.st16{fill:#E6E6E6;stroke:#000000;stroke-width:2.3395;stroke-miterlimit:10;}
</style>
<title></title>
<polygon class="st0" points="369.5,7.4 728.2,214.5 728.2,636.6 369.5,845 2.8,636.6 2.8,214.5 "/>
<g>
	<g>
		<g>
			<defs>
				<polygon id="SVGID_1_" points="369.5,7.4 728.2,214.5 728.2,636.6 369.5,845 2.8,636.6 2.8,214.5 				"/>
			</defs>
			<clipPath id="SVGID_2_">
				<use xlink:href="#SVGID_1_"  style="overflow:visible;"/>
			</clipPath>
			<g class="st1">
				<circle class="st2" cx="365.5" cy="437.5" r="442.1"/>
				<ellipse class="st2" cx="366.9" cy="105.8" rx="315.2" ry="234.6"/>
			</g>
		</g>
	</g>
</g>
<path class="st3" d="M367,633.9c0.3-0.3,0.6-0.6,0.9-0.9h-0.3L367,633.9z"/>
<path class="st4" d="M705.6,196.2L427.8,35.8L367.5,1l-60.3,34.8L29.4,196.2L0.1,213.1v424.3l29.3,16.9l281.3,162.4l56.9,32.8
	l56.9-32.8l281.3-162.4l29.3-16.9V213.1L705.6,196.2z M705.6,621.5L367.5,816.7L29.4,621.5V231L367.5,35.8l0,0L705.6,231V621.5z"/>
<g class="st5">
	<path class="st6" d="M376.8,806.8l0.8-0.6c0.4,0.6,0.7,0.9,1,1c0.3,0.1,0.6,0.1,1-0.1c0.2-0.1,0.4-0.3,0.5-0.5
		c0.1-0.2,0.1-0.4,0.1-0.7c0-0.2-0.2-0.6-0.4-1l-3-5.1l1-0.6l2.9,5.1c0.4,0.6,0.6,1.1,0.6,1.6c0,0.4,0,0.8-0.3,1.2
		c-0.2,0.4-0.6,0.7-1,0.9c-0.7,0.4-1.3,0.5-1.8,0.3C377.7,808,377.2,807.5,376.8,806.8z"/>
	<path class="st6" d="M386.7,802.9c-0.2,0.5-0.4,0.9-0.6,1.2c-0.2,0.3-0.5,0.6-0.9,0.8c-0.6,0.3-1.1,0.5-1.6,0.4
		c-0.5-0.1-0.9-0.4-1.1-0.8c-0.2-0.3-0.2-0.5-0.2-0.8c0-0.3,0.1-0.6,0.2-0.8s0.3-0.5,0.5-0.7c0.2-0.2,0.4-0.4,0.7-0.6
		c0.7-0.5,1.2-0.9,1.4-1.3c-0.1-0.1-0.1-0.2-0.1-0.2c-0.2-0.4-0.5-0.6-0.7-0.6c-0.4-0.1-0.8,0-1.2,0.3c-0.4,0.2-0.7,0.5-0.8,0.8
		c-0.1,0.3-0.1,0.6,0,1.1l-1,0.4c-0.1-0.4-0.2-0.8-0.1-1.2c0.1-0.3,0.2-0.7,0.5-1c0.3-0.3,0.6-0.6,1.1-0.9c0.5-0.3,0.9-0.4,1.2-0.5
		c0.4-0.1,0.6,0,0.9,0c0.2,0.1,0.4,0.2,0.6,0.5c0.1,0.1,0.3,0.4,0.5,0.8l0.7,1.2c0.5,0.8,0.8,1.4,1,1.6c0.2,0.2,0.4,0.4,0.6,0.5
		l-1,0.6C387,803.4,386.9,803.2,386.7,802.9z M385.4,801c-0.3,0.3-0.7,0.7-1.3,1.2c-0.3,0.3-0.6,0.5-0.7,0.6
		c-0.1,0.2-0.2,0.3-0.2,0.5c0,0.2,0,0.3,0.1,0.5c0.1,0.2,0.3,0.4,0.6,0.4c0.3,0.1,0.6,0,1-0.2c0.4-0.2,0.6-0.5,0.8-0.8
		c0.2-0.3,0.3-0.6,0.2-1c0-0.3-0.1-0.6-0.4-1L385.4,801z"/>
	<path class="st6" d="M389.3,802.3l-3.1-5.4l0.8-0.5l0.4,0.8c0.1-0.8,0.5-1.4,1.2-1.9c0.3-0.2,0.7-0.3,1-0.3s0.6,0,0.9,0.1
		c0.2,0.1,0.5,0.3,0.7,0.5c0.1,0.2,0.3,0.4,0.6,0.9l1.9,3.3l-0.9,0.5l-1.9-3.3c-0.2-0.4-0.4-0.6-0.6-0.8c-0.2-0.1-0.4-0.2-0.6-0.2
		c-0.2,0-0.5,0.1-0.7,0.2c-0.4,0.2-0.7,0.5-0.8,1c-0.1,0.4,0,1,0.4,1.7l1.7,2.9L389.3,802.3z"/>
	<path class="st6" d="M397.8,795.1l1-0.4c0.2,0.6,0.1,1.2-0.1,1.8s-0.7,1-1.3,1.3c-0.8,0.5-1.6,0.6-2.3,0.4
		c-0.7-0.2-1.4-0.8-1.9-1.6c-0.5-0.9-0.7-1.7-0.5-2.5c0.2-0.8,0.6-1.4,1.4-1.8c0.7-0.4,1.5-0.5,2.2-0.3c0.7,0.2,1.4,0.8,1.9,1.7
		c0,0.1,0.1,0.1,0.1,0.2l-4,2.3c0.4,0.6,0.8,0.9,1.3,1.1s0.9,0.1,1.4-0.2c0.3-0.2,0.6-0.4,0.7-0.8
		C397.9,796,397.9,795.6,397.8,795.1z M394,795.4l3-1.7c-0.3-0.4-0.6-0.7-0.9-0.8c-0.5-0.2-1-0.1-1.4,0.1c-0.4,0.2-0.7,0.6-0.8,1
		C393.7,794.4,393.7,794.9,394,795.4z"/>
	<path class="st6" d="M400.9,795.6l-4.3-7.4l0.9-0.5l2.4,4.2l0.9-3.4l1.2-0.7l-0.9,3.2l4.2,2.1l-1.1,0.7l-3.4-1.7l-0.3,1l1.2,2.1
		L400.9,795.6z"/>
	<path class="st6" d="M410.8,789.9l-3.8-6.6l-2.5,1.4l-0.5-0.9l5.9-3.4l0.5,0.9l-2.5,1.4l3.8,6.6L410.8,789.9z"/>
	<path class="st6" d="M415.1,787.4l-4.3-7.4l0.9-0.5l1.5,2.7c0.1-0.7,0.5-1.3,1.2-1.7c0.4-0.2,0.8-0.4,1.2-0.4c0.4,0,0.7,0.1,1,0.3
		c0.3,0.2,0.6,0.6,0.9,1.1l2,3.4l-0.9,0.5l-2-3.4c-0.3-0.5-0.6-0.7-0.9-0.8c-0.3-0.1-0.7,0-1,0.2c-0.3,0.2-0.5,0.4-0.6,0.7
		c-0.2,0.3-0.2,0.6-0.2,0.9s0.2,0.7,0.4,1.1l1.7,2.9L415.1,787.4z"/>
	<path class="st6" d="M419,781.6c-0.6-1-0.7-1.9-0.4-2.7c0.2-0.7,0.7-1.2,1.3-1.6c0.7-0.4,1.5-0.5,2.2-0.3c0.8,0.2,1.4,0.8,1.9,1.6
		c0.4,0.7,0.6,1.3,0.6,1.8s-0.1,1-0.4,1.5c-0.3,0.4-0.6,0.8-1.1,1.1c-0.8,0.4-1.5,0.5-2.2,0.3C420.2,783.1,419.6,782.5,419,781.6z
		 M420,781c0.4,0.7,0.8,1.1,1.3,1.3c0.5,0.2,1,0.1,1.4-0.1c0.5-0.3,0.7-0.7,0.8-1.2c0.1-0.5-0.1-1.1-0.5-1.8
		c-0.4-0.7-0.8-1.1-1.3-1.3c-0.5-0.2-1-0.1-1.4,0.1c-0.5,0.3-0.7,0.7-0.8,1.2C419.4,779.7,419.6,780.3,420,781z"/>
	<path class="st6" d="M426.7,780.7l-3.1-5.4l0.8-0.5l0.4,0.8c0-0.4,0.1-0.7,0.3-1c0.2-0.3,0.5-0.6,0.8-0.8c0.4-0.2,0.8-0.3,1.1-0.3
		c0.4,0,0.7,0.1,0.9,0.4c0.1-0.9,0.4-1.5,1.1-1.9c0.5-0.3,1-0.4,1.5-0.3c0.5,0.1,0.9,0.5,1.2,1.1l2.1,3.7l-0.9,0.5l-2-3.4
		c-0.2-0.4-0.4-0.6-0.5-0.7c-0.2-0.1-0.3-0.2-0.5-0.2c-0.2,0-0.4,0-0.6,0.2c-0.4,0.2-0.6,0.5-0.7,0.9c-0.1,0.4,0,0.9,0.3,1.4
		l1.8,3.1l-0.9,0.5l-2-3.5c-0.2-0.4-0.5-0.7-0.8-0.8c-0.3-0.1-0.6-0.1-0.9,0.1c-0.3,0.1-0.5,0.4-0.6,0.6c-0.1,0.3-0.2,0.6-0.1,0.9
		s0.2,0.7,0.5,1.2l1.6,2.8L426.7,780.7z"/>
	<path class="st6" d="M438.5,773.1c-0.2,0.5-0.4,0.9-0.6,1.2c-0.2,0.3-0.5,0.6-0.9,0.8c-0.6,0.3-1.1,0.5-1.6,0.4
		c-0.5-0.1-0.9-0.4-1.1-0.8c-0.2-0.3-0.2-0.5-0.2-0.8c0-0.3,0.1-0.6,0.2-0.8c0.1-0.2,0.3-0.5,0.5-0.7c0.2-0.2,0.4-0.4,0.7-0.6
		c0.7-0.5,1.2-0.9,1.4-1.3c-0.1-0.1-0.1-0.2-0.1-0.2c-0.2-0.4-0.5-0.6-0.7-0.6c-0.4-0.1-0.8,0-1.2,0.3c-0.4,0.2-0.7,0.5-0.8,0.8
		c-0.1,0.3-0.1,0.6,0,1.1l-1,0.4c-0.1-0.4-0.2-0.8-0.1-1.2c0.1-0.3,0.2-0.7,0.5-1c0.3-0.3,0.6-0.6,1.1-0.9c0.5-0.3,0.9-0.4,1.2-0.5
		c0.4-0.1,0.6,0,0.9,0c0.2,0.1,0.4,0.2,0.6,0.5c0.1,0.1,0.3,0.4,0.5,0.8l0.7,1.2c0.5,0.8,0.8,1.4,1,1.6c0.2,0.2,0.4,0.4,0.6,0.5
		l-1,0.6C438.9,773.5,438.7,773.3,438.5,773.1z M437.2,771.1c-0.3,0.3-0.7,0.7-1.3,1.2c-0.3,0.3-0.6,0.5-0.7,0.6
		c-0.1,0.2-0.2,0.3-0.2,0.5c0,0.2,0,0.3,0.1,0.5c0.1,0.2,0.3,0.4,0.6,0.4c0.3,0.1,0.6,0,1-0.2c0.4-0.2,0.6-0.5,0.8-0.8
		c0.2-0.3,0.3-0.6,0.2-1c0-0.3-0.1-0.6-0.4-1L437.2,771.1z"/>
	<path class="st6" d="M439.9,771l0.8-0.7c0.3,0.3,0.6,0.5,0.9,0.6c0.3,0.1,0.7,0,1.1-0.3c0.4-0.2,0.7-0.5,0.8-0.8
		c0.1-0.3,0.1-0.5,0-0.8c-0.1-0.2-0.3-0.3-0.5-0.3c-0.2,0-0.5,0.1-1.1,0.2c-0.8,0.2-1.3,0.3-1.6,0.4c-0.3,0-0.6,0-0.9-0.2
		c-0.3-0.1-0.5-0.3-0.6-0.6c-0.1-0.2-0.2-0.5-0.2-0.8c0-0.3,0-0.5,0.2-0.8c0.1-0.2,0.2-0.4,0.4-0.6c0.2-0.2,0.4-0.4,0.7-0.6
		c0.4-0.2,0.8-0.4,1.2-0.5c0.4-0.1,0.7,0,1,0.1s0.5,0.3,0.8,0.7l-0.8,0.6c-0.2-0.3-0.4-0.4-0.7-0.4c-0.3,0-0.6,0-1,0.2
		c-0.4,0.2-0.7,0.5-0.8,0.7c-0.1,0.2-0.1,0.5,0,0.6c0.1,0.1,0.2,0.2,0.3,0.3c0.1,0.1,0.3,0.1,0.5,0c0.1,0,0.4-0.1,0.9-0.2
		c0.7-0.2,1.3-0.3,1.6-0.4s0.6,0,0.9,0.1c0.3,0.1,0.5,0.3,0.7,0.7c0.2,0.3,0.3,0.6,0.2,1s-0.2,0.7-0.4,1.1c-0.3,0.3-0.6,0.6-1,0.9
		c-0.7,0.4-1.3,0.6-1.9,0.5S440.3,771.5,439.9,771z"/>
	<path class="st6" d="M446.6,769.3l-0.6-1l1-0.6l0.6,1c0.2,0.4,0.3,0.7,0.3,1c0,0.3-0.1,0.6-0.3,0.9l-0.5-0.2
		c0.1-0.2,0.2-0.4,0.2-0.6s-0.1-0.5-0.3-0.8L446.6,769.3z"/>
	<path class="st6" d="M450.5,763.8l0.9-0.6c0.3,0.3,0.5,0.6,0.8,0.7s0.7,0.2,1.1,0.1c0.4,0,0.8-0.2,1.3-0.4c0.4-0.2,0.7-0.5,0.9-0.7
		s0.3-0.6,0.4-0.8c0-0.3,0-0.5-0.2-0.8c-0.1-0.2-0.3-0.4-0.6-0.5c-0.2-0.1-0.5-0.1-0.9-0.1c-0.2,0-0.8,0.2-1.5,0.4s-1.3,0.4-1.7,0.4
		c-0.5,0-0.9-0.1-1.2-0.2c-0.3-0.2-0.6-0.4-0.8-0.8c-0.2-0.4-0.3-0.8-0.3-1.2s0.2-0.9,0.5-1.3s0.7-0.8,1.2-1
		c0.6-0.3,1.1-0.5,1.6-0.6s1,0,1.4,0.2c0.4,0.2,0.8,0.5,1,1l-0.9,0.6c-0.3-0.4-0.7-0.7-1.1-0.8c-0.4-0.1-0.9,0.1-1.5,0.4
		c-0.6,0.3-1,0.7-1.1,1.1c-0.1,0.4-0.1,0.7,0,1c0.2,0.3,0.4,0.4,0.7,0.5c0.3,0.1,0.9,0,1.8-0.3c0.9-0.3,1.5-0.4,1.9-0.5
		c0.5-0.1,1,0,1.4,0.2c0.4,0.2,0.7,0.5,0.9,0.9c0.2,0.4,0.3,0.8,0.3,1.3c0,0.5-0.2,0.9-0.5,1.4s-0.7,0.8-1.3,1.1
		c-0.7,0.4-1.3,0.6-1.9,0.7c-0.6,0.1-1.1,0-1.6-0.3C451.2,764.7,450.8,764.3,450.5,763.8z"/>
	<path class="st6" d="M460.6,760.1l0.6,0.7c-0.2,0.2-0.4,0.4-0.6,0.5c-0.3,0.2-0.6,0.3-0.9,0.3c-0.2,0-0.5-0.1-0.6-0.2
		c-0.2-0.1-0.4-0.5-0.7-1l-1.8-3.1l-0.7,0.4l-0.4-0.7l0.7-0.4l-0.8-1.3l0.6-1.1l1.1,1.9l0.9-0.5l0.4,0.7l-0.9,0.5l1.8,3.2
		c0.2,0.3,0.3,0.4,0.3,0.5s0.2,0.1,0.3,0.1c0.1,0,0.2,0,0.4-0.1C460.3,760.3,460.4,760.2,460.6,760.1z"/>
	<path class="st6" d="M464.6,756.5l1-0.4c0.2,0.6,0.1,1.2-0.1,1.8c-0.2,0.5-0.7,1-1.3,1.3c-0.8,0.5-1.6,0.6-2.3,0.4
		s-1.4-0.8-1.9-1.6c-0.5-0.9-0.7-1.7-0.5-2.5s0.6-1.4,1.4-1.8c0.7-0.4,1.5-0.5,2.2-0.3c0.7,0.2,1.4,0.8,1.9,1.7
		c0,0.1,0.1,0.1,0.1,0.2l-4,2.3c0.4,0.6,0.8,0.9,1.3,1.1c0.5,0.1,0.9,0.1,1.4-0.2c0.3-0.2,0.6-0.4,0.7-0.8S464.7,757,464.6,756.5z
		 M460.8,756.8l3-1.7c-0.3-0.4-0.6-0.7-0.9-0.8c-0.5-0.2-1-0.1-1.4,0.1c-0.4,0.2-0.7,0.6-0.8,1C460.5,755.8,460.5,756.3,460.8,756.8
		z"/>
	<path class="st6" d="M467.9,757l-2.7-4.7l-0.8,0.5L464,752l0.8-0.5l-0.3-0.6c-0.2-0.4-0.3-0.7-0.4-0.9c0-0.3,0-0.6,0.1-0.8
		s0.4-0.5,0.8-0.8c0.3-0.1,0.6-0.3,0.9-0.4l0.3,0.9c-0.2,0.1-0.4,0.2-0.6,0.3c-0.3,0.2-0.4,0.3-0.5,0.5c0,0.2,0,0.4,0.2,0.8l0.3,0.5
		l1.1-0.6l0.4,0.7l-1.1,0.6l2.7,4.7L467.9,757z"/>
	<path class="st6" d="M473.7,752.7c-0.2,0.5-0.4,0.9-0.6,1.2c-0.2,0.3-0.5,0.6-0.9,0.8c-0.6,0.3-1.1,0.5-1.6,0.4
		c-0.5-0.1-0.9-0.4-1.1-0.8c-0.2-0.3-0.2-0.5-0.2-0.8c0-0.3,0-0.6,0.2-0.8c0.1-0.2,0.3-0.5,0.5-0.7c0.2-0.2,0.4-0.4,0.7-0.6
		c0.7-0.5,1.2-0.9,1.4-1.3c-0.1-0.1-0.1-0.2-0.1-0.2c-0.2-0.4-0.5-0.6-0.7-0.6c-0.4-0.1-0.8,0-1.2,0.3c-0.4,0.2-0.7,0.5-0.8,0.8
		c-0.1,0.3-0.1,0.6,0,1.1l-1,0.4c-0.1-0.4-0.2-0.8-0.1-1.2c0.1-0.3,0.2-0.7,0.5-1c0.3-0.3,0.6-0.6,1.1-0.9c0.5-0.3,0.9-0.4,1.2-0.5
		c0.3-0.1,0.6,0,0.9,0c0.2,0.1,0.4,0.2,0.6,0.5c0.1,0.1,0.3,0.4,0.5,0.8l0.7,1.2c0.5,0.8,0.8,1.4,1,1.6c0.2,0.2,0.4,0.4,0.6,0.5
		l-1,0.6C474.1,753.1,473.9,753,473.7,752.7z M472.5,750.7c-0.3,0.3-0.7,0.7-1.3,1.2c-0.3,0.3-0.6,0.5-0.7,0.6
		c-0.1,0.2-0.2,0.3-0.2,0.5s0,0.3,0.1,0.5c0.1,0.2,0.4,0.4,0.6,0.4c0.3,0.1,0.6,0,1-0.2c0.4-0.2,0.6-0.5,0.8-0.8
		c0.2-0.3,0.3-0.6,0.2-1c0-0.3-0.1-0.6-0.4-1L472.5,750.7z"/>
	<path class="st6" d="M476.4,752.1l-3.1-5.4l0.8-0.5l0.4,0.8c0.1-0.8,0.5-1.4,1.2-1.9c0.3-0.2,0.7-0.3,1-0.3c0.3,0,0.6,0,0.9,0.1
		c0.2,0.1,0.5,0.3,0.7,0.5c0.1,0.2,0.3,0.4,0.6,0.9l1.9,3.3l-0.9,0.5l-1.9-3.3c-0.2-0.4-0.4-0.6-0.6-0.8c-0.2-0.1-0.4-0.2-0.6-0.2
		c-0.2,0-0.5,0.1-0.7,0.2c-0.4,0.2-0.7,0.5-0.8,1c-0.1,0.4,0,1,0.4,1.7l1.7,2.9L476.4,752.1z"/>
	<path class="st6" d="M489,741.3l1.1-0.3c0.3,0.9,0.2,1.8,0,2.5c-0.3,0.7-0.8,1.3-1.6,1.8c-0.8,0.5-1.5,0.7-2.2,0.6
		c-0.7,0-1.3-0.3-2-0.8s-1.1-1.1-1.5-1.8c-0.4-0.8-0.7-1.5-0.7-2.3c0-0.7,0.1-1.4,0.5-2c0.4-0.6,0.9-1.1,1.5-1.5
		c0.7-0.4,1.5-0.6,2.2-0.5c0.7,0.1,1.4,0.4,2,1l-0.8,0.8c-0.5-0.4-1-0.7-1.4-0.7c-0.5-0.1-1,0.1-1.5,0.3c-0.6,0.3-1,0.7-1.2,1.2
		s-0.3,1-0.2,1.6c0.1,0.6,0.3,1.1,0.6,1.6c0.4,0.6,0.8,1.1,1.2,1.5s0.9,0.6,1.5,0.6s1-0.1,1.5-0.4c0.6-0.3,0.9-0.7,1.1-1.3
		C489.2,742.7,489.2,742,489,741.3z"/>
	<path class="st6" d="M490.7,740.2c-0.6-1-0.7-1.9-0.4-2.7c0.2-0.7,0.7-1.2,1.3-1.6c0.7-0.4,1.5-0.5,2.2-0.3
		c0.8,0.2,1.4,0.8,1.9,1.6c0.4,0.7,0.6,1.3,0.6,1.8s-0.1,1-0.4,1.5c-0.3,0.4-0.6,0.8-1.1,1.1c-0.8,0.4-1.5,0.5-2.2,0.3
		C491.8,741.7,491.2,741.2,490.7,740.2z M491.6,739.7c0.4,0.7,0.8,1.1,1.3,1.3s1,0.1,1.4-0.1c0.5-0.3,0.7-0.7,0.8-1.2
		c0.1-0.5-0.1-1.1-0.5-1.8c-0.4-0.7-0.8-1.1-1.3-1.3c-0.5-0.2-1-0.1-1.4,0.1c-0.5,0.3-0.7,0.7-0.8,1.2
		C491.1,738.4,491.2,739,491.6,739.7z"/>
	<path class="st6" d="M496.5,736.9c-0.6-1-0.7-1.9-0.4-2.7c0.2-0.7,0.7-1.2,1.3-1.6c0.7-0.4,1.5-0.5,2.2-0.3
		c0.8,0.2,1.4,0.8,1.9,1.6c0.4,0.7,0.6,1.3,0.6,1.8s-0.1,1-0.4,1.5c-0.3,0.4-0.6,0.8-1.1,1.1c-0.8,0.4-1.5,0.5-2.2,0.3
		C497.6,738.4,497,737.8,496.5,736.9z M497.4,736.4c0.4,0.7,0.8,1.1,1.3,1.3s1,0.1,1.4-0.1c0.5-0.3,0.7-0.7,0.8-1.2
		c0.1-0.5-0.1-1.1-0.5-1.8c-0.4-0.7-0.8-1.1-1.3-1.3c-0.5-0.2-1-0.1-1.4,0.1c-0.5,0.3-0.7,0.7-0.8,1.2
		C496.8,735.1,497,735.7,497.4,736.4z"/>
	<path class="st6" d="M504.1,736.1l-3.1-5.4l0.8-0.5l0.5,0.8c0-0.5,0-0.9,0.1-1.1s0.3-0.4,0.5-0.5c0.3-0.2,0.7-0.3,1.1-0.2l0.2,1
		c-0.3,0-0.6,0.1-0.8,0.2c-0.2,0.1-0.3,0.3-0.4,0.5c-0.1,0.2-0.1,0.4-0.1,0.7c0.1,0.4,0.2,0.8,0.5,1.2l1.6,2.8L504.1,736.1z"/>
	<path class="st6" d="M506.3,732.7l0.8-0.7c0.3,0.3,0.6,0.5,0.9,0.6c0.3,0.1,0.7,0,1.1-0.3c0.4-0.2,0.7-0.5,0.8-0.8
		c0.1-0.3,0.1-0.5,0-0.8c-0.1-0.2-0.3-0.3-0.5-0.3c-0.2,0-0.5,0.1-1.1,0.2c-0.8,0.2-1.3,0.3-1.6,0.4s-0.6,0-0.9-0.2
		c-0.3-0.1-0.5-0.3-0.6-0.6c-0.1-0.2-0.2-0.5-0.2-0.8c0-0.3,0-0.5,0.2-0.8c0.1-0.2,0.2-0.4,0.4-0.6c0.2-0.2,0.4-0.4,0.7-0.6
		c0.4-0.2,0.8-0.4,1.2-0.5c0.4-0.1,0.7,0,1,0.1s0.5,0.3,0.8,0.7l-0.8,0.6c-0.2-0.3-0.4-0.4-0.7-0.4c-0.3,0-0.6,0-1,0.2
		c-0.4,0.2-0.7,0.5-0.8,0.7c-0.1,0.2-0.1,0.5,0,0.6c0.1,0.1,0.2,0.2,0.3,0.3c0.1,0.1,0.3,0.1,0.5,0c0.1,0,0.4-0.1,0.9-0.2
		c0.7-0.2,1.3-0.3,1.6-0.4c0.3,0,0.6,0,0.9,0.1c0.3,0.1,0.5,0.3,0.7,0.7c0.2,0.3,0.3,0.6,0.2,1c0,0.4-0.2,0.7-0.4,1.1
		s-0.6,0.6-1,0.9c-0.7,0.4-1.3,0.6-1.9,0.5C507.2,733.5,506.7,733.2,506.3,732.7z"/>
	<path class="st6" d="M513,730.9l-0.6-1l1-0.6l0.6,1c0.2,0.4,0.3,0.7,0.3,1c0,0.3-0.1,0.6-0.3,0.9l-0.5-0.2c0.1-0.2,0.2-0.4,0.2-0.6
		s-0.1-0.5-0.3-0.8L513,730.9z"/>
	<path class="st6" d="M518.6,727.7l-4.3-7.4l2.8-1.6c0.6-0.3,1.1-0.5,1.5-0.6c0.4,0,0.8,0,1.2,0.2c0.4,0.2,0.7,0.5,0.9,0.8
		c0.2,0.3,0.3,0.7,0.3,1c0,0.4-0.1,0.8-0.4,1.1c0.5-0.1,1-0.1,1.4,0.1c0.4,0.2,0.8,0.5,1,0.9c0.2,0.3,0.3,0.7,0.3,1.1
		c0,0.4,0,0.7-0.1,1c-0.1,0.3-0.3,0.6-0.6,0.8c-0.3,0.3-0.7,0.5-1.1,0.8L518.6,727.7z M517.1,722.8l1.6-0.9c0.4-0.3,0.7-0.5,0.9-0.6
		c0.2-0.2,0.3-0.5,0.4-0.7c0-0.2,0-0.5-0.2-0.8c-0.1-0.2-0.3-0.4-0.6-0.5c-0.2-0.1-0.5-0.2-0.7-0.1s-0.7,0.2-1.2,0.5l-1.5,0.9
		L517.1,722.8z M519.1,726.3l1.9-1.1c0.3-0.2,0.5-0.3,0.7-0.4c0.2-0.2,0.4-0.3,0.5-0.5s0.1-0.4,0.1-0.6c0-0.2-0.1-0.5-0.2-0.7
		c-0.2-0.3-0.4-0.5-0.6-0.6c-0.3-0.1-0.5-0.2-0.8-0.1c-0.3,0.1-0.7,0.2-1.2,0.5l-1.7,1L519.1,726.3z"/>
	<path class="st6" d="M528.2,719.9l1-0.4c0.2,0.6,0.1,1.2-0.1,1.8s-0.7,1-1.3,1.3c-0.8,0.5-1.6,0.6-2.3,0.4s-1.4-0.8-1.9-1.6
		c-0.5-0.9-0.7-1.7-0.5-2.5c0.2-0.8,0.6-1.4,1.4-1.8c0.7-0.4,1.5-0.5,2.2-0.3c0.7,0.2,1.4,0.8,1.9,1.7c0,0.1,0.1,0.1,0.1,0.2l-4,2.3
		c0.4,0.6,0.8,0.9,1.3,1.1c0.5,0.1,0.9,0.1,1.4-0.2c0.3-0.2,0.6-0.4,0.7-0.8C528.2,720.7,528.3,720.3,528.2,719.9z M524.3,720.1
		l3-1.7c-0.3-0.4-0.6-0.7-0.9-0.8c-0.5-0.2-1-0.1-1.4,0.1c-0.4,0.2-0.7,0.6-0.8,1C524,719.2,524.1,719.6,524.3,720.1z"/>
	<path class="st6" d="M531.3,720.4l-3.1-5.4l0.8-0.5l0.5,0.8c0-0.5,0-0.9,0.1-1.1s0.3-0.4,0.5-0.5c0.3-0.2,0.7-0.3,1.1-0.2l0.2,1
		c-0.3,0-0.6,0.1-0.8,0.2c-0.2,0.1-0.3,0.3-0.4,0.5c-0.1,0.2-0.1,0.4-0.1,0.7c0.1,0.4,0.2,0.8,0.5,1.2l1.6,2.8L531.3,720.4z"/>
	<path class="st6" d="M534.7,718.4l-3.1-5.4l0.8-0.5l0.4,0.8c0.1-0.8,0.5-1.4,1.2-1.9c0.3-0.2,0.7-0.3,1-0.3c0.3,0,0.6,0,0.9,0.1
		c0.2,0.1,0.5,0.3,0.7,0.5c0.1,0.2,0.3,0.4,0.6,0.9l1.9,3.3l-0.9,0.5l-1.9-3.3c-0.2-0.4-0.4-0.6-0.6-0.8c-0.2-0.1-0.4-0.2-0.6-0.2
		s-0.5,0.1-0.7,0.2c-0.4,0.2-0.7,0.5-0.8,1c-0.1,0.4,0,1,0.4,1.7l1.7,2.9L534.7,718.4z"/>
	<path class="st6" d="M544,713.1l-0.4-0.7c0,0.7-0.4,1.3-1,1.7c-0.4,0.2-0.9,0.4-1.4,0.3c-0.5,0-1-0.2-1.4-0.5s-0.8-0.7-1.1-1.3
		c-0.3-0.5-0.5-1.1-0.6-1.6c-0.1-0.5,0-1,0.2-1.5c0.2-0.4,0.6-0.8,1-1c0.3-0.2,0.7-0.3,1-0.3c0.3,0,0.6,0,0.9,0.2l-1.5-2.7l0.9-0.5
		l4.3,7.4L544,713.1z M539.6,712c0.4,0.7,0.8,1.1,1.3,1.3c0.5,0.2,0.9,0.1,1.3-0.1c0.4-0.2,0.6-0.6,0.7-1.1s-0.1-1.1-0.4-1.7
		c-0.4-0.7-0.9-1.2-1.4-1.4c-0.5-0.2-0.9-0.2-1.3,0.1c-0.4,0.2-0.6,0.6-0.7,1.1C539,710.7,539.2,711.3,539.6,712z"/>
	<path class="st6" d="M549.3,710l-4.3-7.4l2.8-1.6c0.6-0.3,1.1-0.5,1.5-0.6c0.4,0,0.8,0,1.2,0.2c0.4,0.2,0.7,0.5,0.9,0.8
		c0.2,0.3,0.3,0.7,0.3,1s-0.1,0.8-0.4,1.1c0.5-0.1,1-0.1,1.4,0.1c0.4,0.2,0.8,0.5,1,0.9c0.2,0.3,0.3,0.7,0.3,1.1c0,0.4,0,0.7-0.1,1
		c-0.1,0.3-0.3,0.6-0.6,0.8c-0.3,0.3-0.7,0.5-1.1,0.8L549.3,710z M547.8,705.1l1.6-0.9c0.4-0.3,0.7-0.5,0.9-0.6
		c0.2-0.2,0.3-0.5,0.4-0.7c0-0.2,0-0.5-0.2-0.8c-0.1-0.2-0.3-0.4-0.6-0.6c-0.2-0.1-0.5-0.2-0.7-0.1c-0.3,0.1-0.7,0.2-1.2,0.5
		l-1.5,0.9L547.8,705.1z M549.7,708.6l1.9-1.1c0.3-0.2,0.5-0.3,0.6-0.4c0.2-0.2,0.4-0.3,0.5-0.5c0.1-0.2,0.1-0.4,0.1-0.6
		c0-0.2-0.1-0.5-0.2-0.7c-0.2-0.3-0.4-0.5-0.6-0.6c-0.3-0.1-0.5-0.2-0.8-0.1c-0.3,0.1-0.7,0.2-1.2,0.5l-1.7,1L549.7,708.6z"/>
	<path class="st6" d="M552.4,699.7l-0.6-1.1l0.9-0.5l0.6,1.1L552.4,699.7z M556.1,706.1l-3.1-5.4l0.9-0.5l3.1,5.4L556.1,706.1z"/>
	<path class="st6" d="M557.1,703.3l0.8-0.7c0.3,0.3,0.6,0.5,0.9,0.6c0.3,0.1,0.7,0,1.1-0.3c0.4-0.2,0.7-0.5,0.8-0.8
		c0.1-0.3,0.1-0.5,0-0.8c-0.1-0.2-0.3-0.3-0.5-0.3c-0.2,0-0.5,0.1-1.1,0.2c-0.8,0.2-1.3,0.3-1.6,0.4c-0.3,0-0.6,0-0.9-0.2
		c-0.3-0.1-0.5-0.3-0.6-0.6c-0.1-0.2-0.2-0.5-0.2-0.8s0-0.5,0.2-0.8c0.1-0.2,0.2-0.4,0.4-0.6c0.2-0.2,0.4-0.4,0.7-0.6
		c0.4-0.2,0.8-0.4,1.2-0.5c0.4-0.1,0.7,0,1,0.1s0.5,0.3,0.8,0.7l-0.8,0.6c-0.2-0.3-0.4-0.4-0.7-0.4c-0.3,0-0.6,0-1,0.2
		c-0.4,0.2-0.7,0.5-0.8,0.7c-0.1,0.2-0.1,0.5,0,0.6c0.1,0.1,0.2,0.2,0.3,0.3c0.1,0.1,0.3,0.1,0.5,0c0.1,0,0.4-0.1,0.9-0.2
		c0.7-0.2,1.3-0.3,1.6-0.4c0.3,0,0.6,0,0.9,0.1c0.3,0.1,0.5,0.3,0.7,0.7c0.2,0.3,0.3,0.6,0.2,1c0,0.4-0.2,0.7-0.4,1.1
		c-0.3,0.3-0.6,0.6-1,0.9c-0.7,0.4-1.3,0.6-1.9,0.5S557.6,703.9,557.1,703.3z"/>
	<path class="st6" d="M566,697.7l1-0.4c0.3,0.7,0.3,1.3,0.1,1.9c-0.2,0.6-0.6,1-1.2,1.4c-0.7,0.4-1.5,0.5-2.2,0.3s-1.3-0.8-1.9-1.7
		c-0.3-0.6-0.5-1.1-0.6-1.7c-0.1-0.5,0-1,0.3-1.5c0.3-0.4,0.6-0.8,1.1-1.1c0.6-0.3,1.2-0.5,1.7-0.4c0.5,0.1,1,0.4,1.4,0.8l-0.8,0.6
		c-0.3-0.3-0.6-0.5-0.9-0.6c-0.3-0.1-0.6,0-0.9,0.2c-0.5,0.3-0.7,0.6-0.8,1.1c-0.1,0.5,0.1,1.1,0.5,1.8c0.4,0.7,0.9,1.2,1.3,1.3
		c0.5,0.2,0.9,0.1,1.4-0.1c0.4-0.2,0.6-0.5,0.7-0.8C566.3,698.7,566.2,698.2,566,697.7z"/>
	<path class="st6" d="M568.8,698.7l-4.3-7.4l0.9-0.5l1.5,2.7c0.1-0.7,0.5-1.3,1.2-1.7c0.4-0.2,0.8-0.4,1.2-0.4c0.4,0,0.7,0.1,1,0.3
		c0.3,0.2,0.6,0.6,0.9,1.1l2,3.4l-0.9,0.5l-2-3.4c-0.3-0.5-0.6-0.7-0.9-0.8c-0.3-0.1-0.7,0-1,0.2c-0.3,0.2-0.5,0.4-0.6,0.7
		c-0.2,0.3-0.2,0.6-0.2,0.9s0.2,0.7,0.4,1.1l1.7,2.9L568.8,698.7z"/>
	<path class="st6" d="M574.6,695.4l-4.3-7.4l0.9-0.5l4.3,7.4L574.6,695.4z"/>
</g>
<g>
	<path class="st6" d="M98.4,294.6l-1.1-4.6c-3.7,5-8.3,8.2-13.6,9.4c-3.8,0.9-7.1,0.6-9.7-0.8s-4.3-3.6-4.9-6.4
		c-0.7-3.1,0.1-6.2,2.4-9.1c2.3-3,6.2-5.1,11.7-6.4c1.5-0.3,3.1-0.6,4.9-0.8c1.8-0.2,3.7-0.4,5.8-0.4l-1.2-5.2
		c-0.4-1.8-1.6-3.1-3.5-4s-4.5-1-7.8-0.2c-2.5,0.6-5.8,2.1-10,4.7c-0.8,0.4-1.2,0.7-1.5,0.8c-0.4,0.1-0.8,0-1.2-0.2
		c-0.4-0.2-0.6-0.6-0.7-1s-0.1-0.8,0.1-1.1c0.3-0.5,1.6-1.3,3.9-2.6c3.7-2,6.6-3.2,8.6-3.7c4.1-1,7.4-0.7,10.2,0.8
		c2.7,1.5,4.4,3.5,5,6l5,21.2l4.3-1c0.8-0.2,1.4-0.2,1.8,0s0.7,0.6,0.8,1c0.1,0.5,0,0.9-0.2,1.3c-0.3,0.4-0.8,0.7-1.6,0.9
		L98.4,294.6z M94.6,278.7c-1.6-0.1-3.3,0-5,0.2s-3.5,0.5-5.4,0.9c-4.7,1.1-8.1,3-10.2,5.6c-1.6,2-2.2,4-1.7,6.1
		c0.5,1.9,1.6,3.4,3.4,4.4s4.2,1.1,7.1,0.4c2.8-0.7,5.2-1.8,7.3-3.5c2.1-1.7,4.2-4,6.1-7L94.6,278.7z"/>
	<path class="st6" d="M147.1,283.2l-1.1-4.7c-3.4,5-7.7,8.1-12.8,9.3c-3.1,0.7-5.7,0.4-7.7-0.9c-2.6-1.7-4.3-4.1-5-7.1l-4.9-20.7
		l-4.3,1c-0.8,0.2-1.3,0.2-1.8-0.1c-0.4-0.2-0.7-0.6-0.8-1.1c-0.1-0.5,0-0.9,0.2-1.3s0.8-0.7,1.5-0.8l7.5-1.8l5.6,24
		c0.5,2.1,1.6,3.7,3.2,4.7c1.6,1,3.5,1.3,5.4,0.9c5.2-1.2,9.4-4.8,12.7-10.6l-4.9-20.7l-5.9,1.4c-0.8,0.2-1.3,0.2-1.8-0.1
		c-0.4-0.2-0.7-0.6-0.8-1.1s0-0.9,0.2-1.3c0.3-0.4,0.8-0.7,1.5-0.8l9.1-2.2l7,29.9l2.7-0.6c0.8-0.2,1.3-0.2,1.7,0.1
		c0.4,0.2,0.7,0.6,0.8,1c0.1,0.5,0,0.9-0.2,1.3s-0.8,0.7-1.5,0.8L147.1,283.2z"/>
	<path class="st6" d="M168.7,243.1l17.4-4.1c0.8-0.2,1.3-0.2,1.8,0.1c0.4,0.2,0.7,0.6,0.8,1.1s0,0.9-0.2,1.3
		c-0.3,0.4-0.8,0.7-1.5,0.8l-17.4,4.1l5,21.4c0.4,1.9,1.5,3.2,3.3,4.1s4.1,1,7,0.3c2.2-0.5,4.4-1.4,6.8-2.6c2.4-1.2,4.2-2.4,5.4-3.6
		c0.4-0.5,0.8-0.7,1.1-0.8c0.4-0.1,0.8,0,1.2,0.2s0.6,0.6,0.7,1c0.1,0.4,0,0.8-0.2,1.2c-0.6,1-2.4,2.4-5.3,4.1
		c-2.9,1.7-5.8,2.9-8.7,3.6c-3.7,0.9-6.9,0.7-9.6-0.5c-2.6-1.2-4.3-3.3-5-6.3l-5-21.4l-5.9,1.4c-0.8,0.2-1.3,0.2-1.8-0.1
		c-0.4-0.2-0.7-0.6-0.8-1.1s0-0.9,0.2-1.3c0.3-0.4,0.8-0.7,1.5-0.8l5.9-1.4l-2.2-9.5c-0.2-0.8-0.2-1.3,0.1-1.8
		c0.2-0.4,0.6-0.7,1-0.8c0.5-0.1,0.9,0,1.3,0.2c0.4,0.3,0.7,0.8,0.8,1.5L168.7,243.1z"/>
	<path class="st6" d="M244.1,242.9c1.2,4.9,0.4,9.5-2.3,13.8s-6.5,7-11.4,8.2c-5,1.2-9.6,0.4-14-2.2c-4.3-2.7-7-6.4-8.2-11.3
		c-1.2-4.9-0.4-9.5,2.3-13.8s6.5-7,11.5-8.2c4.9-1.2,9.6-0.4,13.9,2.2C240.2,234.2,243,238,244.1,242.9z M240.9,243.7
		c-0.9-4-3.2-7.1-6.7-9.3s-7.3-2.7-11.4-1.8c-4.1,1-7.2,3.2-9.4,6.7s-2.8,7.3-1.9,11.3c0.9,4,3.2,7.1,6.7,9.2
		c3.5,2.2,7.3,2.8,11.4,1.8c4.1-1,7.2-3.2,9.4-6.7C241.2,251.5,241.8,247.7,240.9,243.7z"/>
</g>
<g>
	<path class="st7" d="M346,253.1c-0.6,0.6-1.2,1-1.9,1.1c-0.5,0-1.1,0-1.8-0.3l-2.6,1.2l-1.8-0.6l-2.3-0.3l-3.3-1.8
		c-0.5-0.3-1.2-0.4-1.9-0.4l-3.1-0.3L323,249l-5.5-5l-5-3.6l-0.4-1.1l-0.9-0.6l-3.6-4l-0.9-1.4l-1.5-1.1c-1.3-2.1-2.6-3.1-3.9-3.3
		c-0.5,0.4-1.5,0.8-3,1l-1.3,2.2c-1.5,2.1-2.1,3.3-1.9,3.5l-2.2,1.3L291,240c-1.4,1.1-2.3,1.8-2.7,2.1c-0.4,0.3-0.7,0.9-0.9,1.7
		c-0.2,0.8-0.4,1.3-0.5,1.6l-2.9,1.1c0,1.8-0.5,3.2-1.5,4.1l-4,3.4v0.5l-4.4,4.2l-3.7,5.3l-1.1,0.7l0.1,1.5l-1.4,1
		c-0.6,0.3-1,0.8-1.3,1.3l-1.2,2l-2-1l1.3-2.2l1.6-0.3l1-2.6c1.3-0.6,2-1.1,2.2-1.5l1.9-4l1.4-0.8c1.3-2.5,2.2-3.9,2.6-4.2l-0.1-1.9
		l2.8-0.7l-0.2-0.8c0-0.6,0.3-1.3,0.9-1.9c0.7-0.6,1-1,1-1.2c0-0.1-0.3-0.5-0.9-1h1.4c-0.2-0.2-0.4-0.4-0.4-0.5
		c0-0.3,0.2-0.6,0.6-0.9c1.5-0.3,2.4-0.7,2.9-1.3c0.4-0.5,0.6-1.3,0.5-2.4l0.9-0.5l0.3-0.9l1.2-0.3v-0.3c-0.1-0.9,0.7-1.8,2.4-2.5
		l1.1-3.3l1.9-0.8l-0.2-2l1.1-0.5l0.6-1.6l0.5,0.1l1.2-0.7c-0.1-1.8,0.7-2.7,2.6-2.9h0.6l-0.8-2.2l-1.4-1.3
		c-0.4-0.4-0.8-1.1-1.1-2.1l-1.5-0.5l-3-4.1l-3.2-3.9l-2.4-3.5l-2.7-2.2l0.6-1.2l-0.8-2.1l2.1-0.6l2.6,0.2l0.4,1
		c0.1,0.2,1.2,1.1,3.2,2.7l-0.4,1.8l1.4,0.5l1.2,2.1c0.1,0.3,0.4,0.6,0.8,0.8l1.8,1l-1,0.1l1.6,0.8l0.1,1.5l3.4,3.1l0.6,1.8l2.2,1.3
		v-0.4c-0.1-1.2,0.7-2.1,2.3-2.8l1,0.8l-0.1-1.8c1-0.5,1.9-1.4,2.5-2.8l1.1-0.1l-0.1-1l1.6-0.8l0.7-0.1l-0.4-1.1
		c0.5-0.6,1-0.9,1.4-0.9s0.7,0.1,1,0.4l-0.1-1.7l2.3-0.3l-0.1-1l1.4-0.9l0.4-1.6c1.5-0.4,2.5-1.3,2.9-2.9l0.1,1.4
		c0.4-0.5,0.6-1,0.6-1.3c0-0.1-0.1-0.2-0.4-0.4l3.7-1.5l0.9-1.1c0.9-0.2,2.6-0.6,5-1.3c0.9,1.1,1.7,1.8,2.2,2.1c0,1-0.6,1.6-1.6,2
		s-1.8,0.8-2.5,1.3l-10.1,8.3l-1.1,1.7l-2.7,1.1c-1.1,2.5-2.2,4.3-3.2,5.4l-2.7,1.1L307,222l-2.6,1.8v0.6c-0.1,0.2-0.1,0.4-0.1,0.5
		c0,0.6,1.1,1.3,3.1,2l-0.1,1.4c1,1.1,1.5,1.8,1.5,2.2l2,0.6c1,1.8,1.7,2.9,2.1,3.3c0.3,0.4,1.6,1.2,3.8,2.2l1.3,3.3l3.1,1.7
		l1.7,1.9c0.2,0.2,1.1,0.6,2.8,1.3l0.4,0.9c1.4,0.5,2.4,1.1,2.9,1.9l1.9,0.2l1.9,2c0.4,0.8,1.2,1.2,2.3,1.1l1.7-0.5l2.3,0.9l7.1,0.2
		L346,253.1z"/>
	<path class="st7" d="M432,229.6l-1,5.1l0.4,1.1l-0.6,0.7c0.7,0.9,1.1,1.8,1.2,2.8l-0.2,1.3l0.4,2.6c0.1,1.6,0,3.7-0.3,6.3
		s-0.5,4.3-0.5,5.2l-0.1,2c0,0.6-0.5,1.8-1.6,3.7l0.9-0.1l-0.3,2l-0.9,1c-0.3,0.3-0.6,1.1-1,2.3s-0.7,2.2-1.2,3s-1.1,1.8-1.9,2.9
		s-1.7,2.1-2.7,2.8c-1,0.7-2.4,1.9-4.3,3.3l-2.5,1.1c-1.3,1-2.3,1.5-3,1.6l-0.8,0.8c-4,0.9-6,1.4-6.1,1.4h-0.3l-0.3,0.5
		c-1.5,0.6-3.3,1-5.5,1.2l-6.1,0.5l-4.5-0.4l-2.7,0.6l-1.3-0.7l-5-0.1l-2.1-1.3c-0.6-0.4-2.2-1-4.5-1.8c-3.1-0.7-5-2-5.8-3.8
		l0.6-0.7l-0.9-2.3c0.4-0.5,0.8-0.7,1.5-0.8c0.3-0.4,0.6-0.6,1-0.6c0.2,0,0.8,0,2,0.1s2.5,0.1,4.1,0.1l-0.1,1.4
		c0.6,0,1.4,0.1,2.5,0.6c0,0.3-0.1,0.7-0.3,1.1l-0.3,0.7c0.1,1,0.6,1.5,1.6,1.6c0,0.6,0.2,0.9,0.4,0.9c0.2,0,0.6,0.1,1.2,0.2
		l7.3,1.3l1.9-0.4l0.4,0.5l3.8-0.3c0.9-0.1,1.9,0,3,0.2c1-0.7,4-1.4,8.9-2.2c1-0.2,1.9-0.6,2.7-1.2c2.1-0.3,3.3-0.8,3.7-1.4h0.5
		c0.6,0,1.1-0.2,1.6-0.4c0.5-0.2,1-0.5,1.3-0.9l5.4-5.1l3-4.1v-1.8l1.7-2.3l0.2-2l0.8-1.7l0.7-4l1-4l-0.4-2.8l-0.1-1
		c-0.1-1.9,0.2-3.6,0.9-4.9l-1.3-2.8l-0.5-6.8l-1.4-2.4l-0.3-4l-1.7-2.7v-4.5l-2.5-4.7c-0.4-0.2-0.8-0.3-1.2-0.3
		c-0.7,0.1-1.4,0.5-2.2,1.5l0.4,1.3l-2.3,1l-1.1,2.6l-2.1,1.8l-2.8,4.1l-3.9,2.6l-4.5,4.6c-1.4,1.1-2.6,2.1-3.8,3
		c-1.1,0.9-2.3,1.7-3.5,2.5s-1.9,1.3-2.1,1.6l-0.8,1c-0.3,0.3-1,0.8-2.2,1.5l-2.7,1.2l-1.4,1.3c-0.5,0.4-1.7,1.1-3.5,2.1
		c-0.4,0.6-1.1,1-2.1,1.1h-0.5c-2.2,1.7-4.6,2.6-7.4,2.8c-1.1,0.1-1.9,0.1-2.4,0.1l-1.4,0.8c-0.6-0.2-1.9-0.3-3.7-0.4
		c-4.5-2.9-7-5.4-7.6-7.4l-1.4-5.1l0.1-3.3l1.5-5.2l-0.3-1.5l0.5-2.2c0.4-1.5,0.8-2.7,1.3-3.5s0.8-1.9,0.8-3.3v-2.1l3-5.4
		c0.1-0.2,0.4-0.5,0.9-1s1.4-1.7,2.7-3.7l1.7-1.7c0.8-1.7,1.6-2.8,2.6-3.3c0.9-0.5,1.6-1.6,2-3.2c0.5-0.6,1.7-1,3.4-1.4
		c1.8-0.4,2.9-1.3,3.5-2.8l1.2,0.2l3-1.9c1-1.1,2-1.6,3-1.7c0.2,0,0.7,0,1.4,0.2l4.9-1.8l3.2,0.3l2.3-0.2l1.8,0.8l1-0.1
		c0.3,0.4,1.5,1.2,3.5,2.5s3.2,2.1,3.4,2.4c0,1.2-0.3,2.2-0.9,3.1l-2.7,0.2l-2.5-2.6c-2.1-0.5-3.4-1-3.7-1.4l-0.8,0.3
		c-1.6-0.4-2.8-0.6-3.7-0.6c-1.9,0.1-3.8,0.9-5.7,2.2h-1.2l-0.3,0.9l-1.6,0.1l-2.1,0.6c-0.5,1.3-1.4,2-2.8,2.1
		c-1.3,1.2-2.3,2-3.1,2.4l-0.9,1.8l-1.6,0.4l-0.1,0.9l-1.5,0.1l-2.5,3.9l-2.2,1.4l-0.8,2.5l-2.1,3c-0.3,0.4-0.4,1.4-0.4,3.1
		l-1.7,1.7l-1.5,6.1l-1.6,1.6l0.3,2.4l-1.7,5.6l0.8,1.8l-0.1,2.5c0.5,0.3,1,0.9,1.5,1.9s1.1,1.5,1.9,1.7l0.6,1.3
		c1.2,0.2,2,0.4,2.3,0.6c0.8-0.3,1.6-0.5,2.4-0.6l1.7,0.1c0.2,0,0.9-0.2,2.1-0.4c0.7-0.8,3.4-1.6,8.1-2.3c0.5-0.5,1.1-1.2,1.9-2
		c0.7-0.8,1.4-1.4,2.2-1.9c0.7-0.4,1.6-1,2.7-1.7s1.9-1.1,2.4-1.3c2-0.5,2.9-1.4,2.8-2.7c2.7-1.1,4.2-2.1,4.5-3.1l1.3-0.4
		c0.3-0.1,0.9-0.5,1.7-1.2c0.8-0.7,2-2,3.6-4.1l1,0.4l0.6-1.3l1.9-0.7c-0.1-0.1-0.2-0.3-0.2-0.6c0-0.6,0.3-1.1,0.9-1.7
		c0.4,0,0.8-0.1,1.2-0.3c0.4-0.1,0.6-0.4,0.7-0.7l0.5-1l3-3.5l0.7-0.1l0.3-2.7c0.6-0.4,2-3.3,4-8.8l1.2-0.4l-1.1-2l-0.7-2.1
		c-0.3-0.8-0.8-1.4-1.2-1.9l-1.9-2.1l0.9-2.1l-0.9-2.3c0.5-0.9,1.1-1.4,1.8-1.5c0.3,0,0.6,0,0.9,0.1s1,0.8,2,2.1l1.7,0.5v2.4
		l0.9,1.7c0.3,0.5,0.4,0.9,0.5,1.3c0.1,0.4,0.4,1,0.8,1.8c0.5,0.8,0.7,1.4,0.7,1.8c0,0.3-0.1,0.5-0.5,0.6c0.6,1.2,1.4,2.3,2.4,3.2
		l-0.3,2.7c1.4,1.2,2.1,1.9,2.1,2.2c0,0.5-0.3,1.1-1,1.7l0.5,1.6l1.2,0.3l-0.4,1.8l0.9,3.4c0.6,0.9,1,1.9,1.1,2.8c0,0,0,0.1-0.1,0.3
		c-0.3,0.5-0.4,1.5-0.3,3.1l1.2,0.6L432,229.6z"/>
</g>
<g>
	<path class="st6" d="M478.5,208.1l-5.7,20.4c5.1-3.8,10.2-5,15.4-3.5c4.5,1.3,7.9,3.9,10.2,8.1c2.3,4.1,2.8,8.6,1.5,13.3
		c-1.3,4.8-4.1,8.4-8.2,10.8c-4.2,2.4-8.4,3-12.9,1.8c-5.4-1.5-9.2-5.2-11.4-11l-1.7,6l-7.2-2c-0.7-0.2-1.2-0.5-1.5-0.9
		c-0.2-0.4-0.3-0.8-0.2-1.2c0.1-0.5,0.4-0.8,0.8-1s1-0.2,1.7,0l4.1,1.2l11.1-39.7l-4.1-1.2c-0.7-0.2-1.2-0.5-1.5-0.9
		c-0.2-0.4-0.3-0.8-0.2-1.3c0.1-0.4,0.4-0.8,0.8-1s1-0.2,1.7,0L478.5,208.1z M496.8,245.7c1.1-3.9,0.7-7.5-1.2-11
		c-1.9-3.4-4.6-5.6-8.2-6.6s-7-0.5-10.5,1.4c-3.4,2-5.7,4.9-6.7,8.7c-1.1,3.9-0.7,7.5,1.2,11c1.9,3.4,4.6,5.6,8.2,6.6
		s7,0.5,10.5-1.4C493.5,252.5,495.7,249.6,496.8,245.7z"/>
	<path class="st6" d="M543.8,258.8c-1.3,4.7-4.1,8.2-8.4,10.6c-4.3,2.4-8.8,2.9-13.5,1.6c-4.8-1.3-8.4-4.1-10.8-8.4
		c-2.4-4.3-3-8.7-1.7-13.4s4.1-8.2,8.4-10.6c4.3-2.4,8.8-2.9,13.6-1.6c4.7,1.3,8.3,4.1,10.7,8.4
		C544.6,249.6,545.2,254.1,543.8,258.8z M540.7,257.9c1.1-3.9,0.6-7.5-1.4-11s-4.9-5.7-8.8-6.8c-3.9-1.1-7.6-0.7-11.1,1.3
		s-5.8,4.8-6.9,8.7c-1.1,3.8-0.6,7.5,1.4,10.9c2,3.5,4.9,5.8,8.8,6.9c3.9,1.1,7.6,0.7,11.1-1.3C537.4,264.7,539.7,261.8,540.7,257.9
		z"/>
	<path class="st6" d="M588.8,271.3c-1.3,4.7-4.1,8.2-8.4,10.6c-4.3,2.4-8.8,2.9-13.5,1.6c-4.8-1.3-8.4-4.1-10.8-8.4
		c-2.4-4.3-3-8.7-1.7-13.4c1.3-4.7,4.1-8.2,8.4-10.6c4.3-2.4,8.8-2.9,13.6-1.6c4.7,1.3,8.3,4.1,10.7,8.4
		C589.5,262.1,590.1,266.6,588.8,271.3z M585.7,270.5c1.1-3.9,0.6-7.5-1.4-11s-4.9-5.7-8.8-6.8c-3.9-1.1-7.6-0.7-11.1,1.3
		s-5.8,4.8-6.9,8.7c-1.1,3.8-0.6,7.5,1.4,10.9c2,3.5,4.9,5.8,8.8,6.9c3.9,1.1,7.6,0.7,11.1-1.3S584.6,274.3,585.7,270.5z"/>
	<path class="st6" d="M630.6,268c0.2-0.7,0.5-1.2,0.9-1.4c0.4-0.2,0.8-0.3,1.2-0.2c0.5,0.1,0.8,0.4,1,0.8s0.2,1,0,1.7l-1.5,5.3
		c-0.2,0.7-0.5,1.2-0.9,1.5c-0.4,0.2-0.8,0.3-1.3,0.2c-0.4-0.1-0.7-0.3-0.9-0.7c-0.2-0.3-0.2-0.8-0.1-1.5c0.3-1.5-0.2-2.9-1.3-4.3
		c-1.6-1.9-4.1-3.3-7.4-4.3c-3.4-1-6.3-1-8.6-0.1c-1.7,0.6-2.8,1.6-3.1,2.9c-0.4,1.5,0.1,2.9,1.5,4.4c1,1,3.1,2.2,6.2,3.4
		c4.1,1.7,7,3,8.5,4c2.1,1.5,3.6,3.2,4.3,5s0.9,3.6,0.4,5.4c-0.7,2.6-2.6,4.6-5.7,5.9c-3.1,1.3-7,1.3-11.9,0
		c-4.9-1.4-8.5-3.7-10.9-7c-0.2,0.8-0.4,1.4-0.6,1.6c-0.2,0.2-0.4,0.4-0.7,0.5s-0.6,0.1-0.9,0c-0.4-0.1-0.8-0.4-1-0.8s-0.2-1,0-1.7
		l1.8-6.3c0.2-0.7,0.5-1.2,0.9-1.5c0.4-0.2,0.8-0.3,1.2-0.2c0.4,0.1,0.8,0.4,1,0.8s0.3,0.8,0.1,1.4c-0.3,1.1-0.3,2.1,0.1,3.1
		c0.5,1.4,1.6,2.8,3.3,4c1.7,1.3,3.8,2.3,6.5,3.1c4,1.1,7.2,1.2,9.5,0.3c2.4-0.9,3.8-2.2,4.2-3.9c0.5-1.9,0-3.7-1.7-5.4
		c-1.7-1.7-4.4-3.3-8.1-4.7c-3.7-1.5-6.3-2.7-7.8-3.8c-1.5-1.1-2.5-2.4-3.1-3.9s-0.7-3-0.2-4.5c0.7-2.6,2.6-4.4,5.6-5.2
		c3-0.8,6.3-0.7,9.9,0.3C625.4,263.2,628.5,265.2,630.6,268z"/>
	<path class="st6" d="M659.7,273.9l16.7,4.6c0.7,0.2,1.2,0.5,1.5,0.9c0.2,0.4,0.3,0.8,0.2,1.3c-0.1,0.4-0.4,0.8-0.8,1
		c-0.4,0.2-1,0.2-1.7,0l-16.7-4.6l-5.7,20.4c-0.5,1.8-0.2,3.5,0.9,5.1c1.1,1.6,3,2.8,5.8,3.5c2.1,0.6,4.4,0.9,7,0.9
		c2.6,0.1,4.7-0.1,6.2-0.5c0.6-0.2,1-0.2,1.3-0.1c0.4,0.1,0.7,0.4,0.9,0.7c0.2,0.4,0.3,0.8,0.1,1.2c-0.1,0.4-0.4,0.7-0.8,0.9
		c-1,0.6-3.1,0.9-6.4,1c-3.3,0.1-6.3-0.2-9-1c-3.6-1-6.2-2.6-7.9-4.9s-2.1-4.8-1.3-7.7l5.7-20.4l-5.7-1.6c-0.7-0.2-1.2-0.5-1.5-0.9
		c-0.2-0.4-0.3-0.8-0.2-1.3c0.1-0.4,0.4-0.8,0.8-1c0.4-0.2,1-0.2,1.7,0l5.7,1.6l2.5-9.1c0.2-0.7,0.5-1.2,0.9-1.5
		c0.4-0.2,0.8-0.3,1.2-0.2c0.5,0.1,0.8,0.4,1,0.8s0.2,1,0,1.7L659.7,273.9z"/>
</g>
<g>
	<path class="st8" d="M345.3,503c0,0-7.4,4.5-12.4-1.2c-2.2,1.9-4.9,1.2-7.7-1.8c-3.8,2.9-16.6,4.7-19.9-7.6
		c-9.4,1.1-15.8-4.1-15.6-10.6c-4.4-0.4-8.7-4.8-3.4-9.5c-1.9-9,3.6-10.9,5.4-11.4c-0.6-2.9,0.5-6.3,2.6-6.7c-3-1.6-3.5-4.7-3.3-6.5
		c-7.2,2.1-8.2-5.2-4.5-7.3c-1.6-4.1-0.4-8.1,2.8-10.6c-0.9-2.1-1.1-5.2,1.5-6.6c-0.5-3.7-0.4-10.3,8.2-11.1
		c-0.5-3.1,2.4-6.2,7.4-3.5c3.5-3.4,8.3-2.2,12.4-1c-1.2-5.3,1.7-10,5.8-10.8c-1.8-13,8.8-18.3,16.8-15.6c0.5-8.7,7.7-10.7,12.7-3.9
		c10.3-5.2,23.1,1.3,23.5,11.3c7.9-1.8,14,5.2,14.5,9.5c1.4-0.9,3.1-0.9,4,0.1c1.3-7.1,12.1-7.9,15.2-2.9c1.8-4.2,8.9-4.2,8.5,2.2
		c9.6-1.6,11.7,10.6,11,15.4c5.8,4.4,6.5,9.7,1.1,15.6c3.7,3,3.2,10.5,3.1,12.6c8.7,3.1,7.7,9.3,7.4,13.7c5.4,4.6,6.3,9.4,1.2,14.5
		c7.2,13.7-5.4,30.2-21.2,14.2c-1.4,1.3-3.9,1.8-5.6,2.2c-0.5,9.3-8.4,11.3-13.7,6.1c-4,2.1-7.7,2.8-13,1s-5.8-2.4-6.4-4.4
		c-2.5,2.4-4.5,2.8-8.2,2.2c-5.1,1.5-12.5-0.3-15.6-4.5c-3.6,4.6-2.6,6.3-8.1,6C351.6,497.4,345.3,503,345.3,503z"/>
	<path class="st9" d="M324.1,572.4c0,0,12.4,2.8,18.5,1.5c6.1-1.4,14.4-11.2,20.2-10.7c5.8,0.4,8,5.9,12.4,6.5s20.5,3.8,24.4,8.2
		c-1.3-12.4-9.1-14.4-14.9-22.8c-3.7-9.6,2.6-57.4,5.8-59.8c3.6-2.4,9.3-2.4,13.1-2.9c3.8-0.5,12.1-9,11.5-10.7s-9,5.3-11.1,5.9
		s-9,1.7-9,0.3s7.9-8.7,7-9.3c-0.9-0.6-1.8-2-6.6,2.4c-4.8,4.4-10.4,16.5-15.9,15.7s-6.9-7.2-8.3-12.8c-1.4-5.6-5.8-6-5.8-8
		s3.8-3.7,6.7-5.4c3-1.7,8.3-6.6,7.3-10c-0.9-3.4-6.7,9.9-18,9.3c-5.5-0.9-13.2-17.3-14.9-21.3c-2.1,0.3-2.6,12.2,19,38.9
		c-1.4,8.7-2.7,13.4-7.3,14.6c-20.6-3.7-25.2-19.1-28.8-18.3c-2.3-0.6-2.9,4.1-1.6,5.8c2.4,7,21.3,18.4,24.1,28.7
		c-0.3,4,2.5,33.6-7.4,45C341.8,566.2,323.6,570.8,324.1,572.4z"/>
	<path class="st10" d="M374.1,410.6c-2.3,5.1-1.8,15.7,6.6,11.2c-5.3,9.3,3.1,15,8.3,13.8c-0.5,3.5,9.5,8,14.8,4.3
		c2.1,2.5,10.1,3.8,12.4-0.9c4.5,3.2,17.2-0.3,15.6-10.5c-2.6,8.2-10.4,13.6-15.2,8.4c-4.6,3.6-9.3,5.1-12,0.8
		c-7.4,3.3-13.3-2.1-13.3-5.1c-9.7,0.6-8-11.7-5.7-14.5C377.8,421.2,374,419,374.1,410.6z"/>
	<path class="st10" d="M287.8,463c-0.6,5.5,7.1,16.6,13.7,9.6c-2,10.5,9.3,12.7,13.7,9.9c0.6,3.5,10.3,6.7,14.2,1.5
		c2.8,1.7,15,2.4,15.7-2.8c5.3,1.6,11.7-4.1,7-13.3c0.2,8.6-3.5,11.6-8.6,9.5c-3.3,4.9-9.8,5.3-13.7,2.2c-6,5.4-12.8,2.6-13.7-0.2
		c-9,3.7-14.6-6.5-13.3-10C296.3,474.9,290.4,471,287.8,463z"/>
	<path class="st10" d="M327.8,432.8c-2.2,5.6,6.5,16,16,14c-0.3,3.8,11.1,14.6,18.4,11.4c0.1,3.5,13.4,5.7,20.4,0.1
		c3.7,1.6,15.9-0.4,18.2-5.6c7.5,1.2,26.7-4.5,21.9-13.5c-1.8,8.7-13.5,14.4-21.8,11.4c-6,5.1-12.5,8.3-17.6,5.4
		c-10.2,5.9-18.4,0.8-19.1-2c-14.2,4.3-15.5-7.6-12.8-11.1C340.5,446.8,329.7,440.7,327.8,432.8z"/>
	<path class="st11" d="M392,398c-2.1-0.9-7.9-11.5-16.2-5.3c-0.9-14.8-21.8-15.5-21.8-15.5c14.1-7.3,24.7,5.7,23.5,11.3
		C379.8,387,391,388.9,392,398z"/>
	<path class="st11" d="M339.7,413.4c-8.5-3.2-10.8-6.9-20.6-2.1c-7.5-4.3-12.7-2.6-12.7-2.6c4.8-4.3,10.1-2,12.4-1
		C320.1,405.2,336.4,402.4,339.7,413.4z"/>
	<path class="st11" d="M431.8,428.5c0.1-5.7,2.1-10.7-3.2-15.2c0.1-11.6-8.9-15.9-8.9-15.9c5.5-1.6,11.9,3.7,11,15.4
		C433.4,412.4,439.7,421.6,431.8,428.5z"/>
	<path class="st11" d="M411.2,395.2c1-3.5,9-5.9,8.5,2.2C417.8,396.3,415.7,392,411.2,395.2z"/>
	<path class="st11" d="M347,457.1c-5.4-4.5-10.3-11.4-18.5-8.3c-5.7-8.5-13.2-10.5-13.2-10.5c10.1-2.1,12.4,5.6,13.8,6.9
		C330.6,443.1,347.2,445.9,347,457.1z"/>
	<path class="st10" d="M333.7,429.9c-1.3,6.1-17.9,15-23.1,5.7c0,0-5.3,10-13.2,8c-7.9-1.9-12.4-5.8-11.6-8.2c2,1,17.6,8.4,25.2-3.3
		C315,441.2,333.7,429.9,333.7,429.9z"/>
	<path class="st11" d="M443.5,469.3c0.1-5.7,2.9-9.8-2.3-14.3c0.1-11.6-6.3-14-6.3-14c5.5-1.6,8.3,2,7.4,13.7
		C445,454.4,451.3,462.4,443.5,469.3z"/>
</g>
<g>
	<path class="st8" d="M166.3,503c0,0-7.4,4.5-12.4-1.2c-2.2,1.9-4.9,1.2-7.7-1.8c-3.8,2.9-16.6,4.7-19.9-7.6
		c-9.4,1.1-15.8-4.1-15.6-10.6c-4.4-0.4-8.7-4.8-3.4-9.5c-1.9-9,3.6-10.9,5.4-11.4c-0.6-2.9,0.5-6.3,2.6-6.7c-3-1.6-3.5-4.7-3.3-6.5
		c-7.2,2.1-8.2-5.2-4.5-7.3c-1.6-4.1-0.4-8.1,2.8-10.6c-0.9-2.1-1.1-5.2,1.5-6.6c-0.5-3.7-0.4-10.3,8.2-11.1
		c-0.5-3.1,2.4-6.2,7.4-3.5c3.5-3.4,8.3-2.2,12.4-1c-1.2-5.3,1.7-10,5.8-10.8c-1.8-13,8.8-18.3,16.8-15.6c0.5-8.7,7.7-10.7,12.7-3.9
		c10.3-5.2,23.1,1.3,23.5,11.3c7.9-1.8,14,5.2,14.5,9.5c1.4-0.9,3.1-0.9,4,0.1c1.3-7.1,12.1-7.9,15.2-2.9c1.8-4.2,8.9-4.2,8.5,2.2
		c9.6-1.6,11.7,10.6,11,15.4c5.8,4.4,6.5,9.7,1.1,15.6c3.7,3,3.2,10.5,3.1,12.6c8.7,3.1,7.7,9.3,7.4,13.7c5.4,4.6,6.3,9.4,1.2,14.5
		c7.2,13.7-5.4,30.2-21.2,14.2c-1.4,1.3-3.9,1.8-5.6,2.2c-0.5,9.3-8.4,11.3-13.7,6.1c-4,2.1-7.7,2.8-13,1s-5.8-2.4-6.4-4.4
		c-2.5,2.4-4.5,2.8-8.2,2.2c-5.1,1.5-12.5-0.3-15.6-4.5c-3.6,4.6-2.6,6.3-8.1,6C172.6,497.4,166.3,503,166.3,503z"/>
	<path class="st9" d="M145.2,572.4c0,0,12.4,2.8,18.5,1.5s14.4-11.2,20.2-10.7s8,5.9,12.4,6.5s20.5,3.8,24.4,8.2
		c-1.3-12.4-9.1-14.4-14.9-22.8c-3.7-9.6,2.6-57.4,5.8-59.8c3.6-2.4,9.3-2.4,13.1-2.9s12.1-9,11.5-10.7s-9,5.3-11.1,5.9
		s-9,1.7-9,0.3s7.9-8.7,7-9.3c-0.9-0.6-1.8-2-6.6,2.4s-10.4,16.5-15.9,15.7s-6.9-7.2-8.3-12.8c-1.4-5.6-5.8-6-5.8-8s3.8-3.7,6.7-5.4
		c3-1.7,8.3-6.6,7.3-10c-0.9-3.4-6.7,9.9-18,9.3c-5.5-0.9-13.2-17.3-14.9-21.3c-2.1,0.3-2.6,12.2,19,38.9
		c-1.4,8.7-2.7,13.4-7.3,14.6c-20.6-3.7-25.2-19.1-28.8-18.3c-2.3-0.6-2.9,4.1-1.6,5.8c2.4,7,21.3,18.4,24.1,28.7
		c-0.3,4,2.5,33.6-7.4,45C162.8,566.2,144.6,570.8,145.2,572.4z"/>
	<path class="st10" d="M195.1,410.6c-2.3,5.1-1.8,15.7,6.6,11.2c-5.3,9.3,3.1,15,8.3,13.8c-0.5,3.5,9.5,8,14.8,4.3
		c2.1,2.5,10.1,3.8,12.4-0.9c4.5,3.2,17.2-0.3,15.6-10.5c-2.6,8.2-10.4,13.6-15.2,8.4c-4.6,3.6-9.3,5.1-12,0.8
		c-7.4,3.3-13.3-2.1-13.3-5.1c-9.7,0.6-8-11.7-5.7-14.5C198.9,421.2,195,419,195.1,410.6z"/>
	<path class="st10" d="M108.9,463c-0.6,5.5,7.1,16.6,13.7,9.6c-2,10.5,9.3,12.7,13.7,9.9c0.6,3.5,10.3,6.7,14.2,1.5
		c2.8,1.7,15,2.4,15.7-2.8c5.3,1.6,11.7-4.1,7-13.3c0.2,8.6-3.5,11.6-8.6,9.5c-3.3,4.9-9.8,5.3-13.7,2.2c-6,5.4-12.8,2.6-13.7-0.2
		c-9,3.7-14.6-6.5-13.3-10C117.4,474.9,111.5,471,108.9,463z"/>
	<path class="st10" d="M148.8,432.8c-2.2,5.6,6.5,16,16,14c-0.3,3.8,11.1,14.6,18.4,11.4c0.1,3.5,13.4,5.7,20.4,0.1
		c3.7,1.6,15.9-0.4,18.2-5.6c7.5,1.2,26.7-4.5,21.9-13.5c-1.8,8.7-13.5,14.4-21.8,11.4c-6,5.1-12.5,8.3-17.6,5.4
		c-10.2,5.9-18.4,0.8-19.1-2c-14.2,4.3-15.5-7.6-12.8-11.1C161.6,446.8,150.7,440.7,148.8,432.8z"/>
	<path class="st11" d="M213,398c-2.1-0.9-7.9-11.5-16.2-5.3c-0.9-14.8-21.8-15.5-21.8-15.5c14.1-7.3,24.7,5.7,23.5,11.3
		C200.8,387,212.1,388.9,213,398z"/>
	<path class="st11" d="M160.7,413.4c-8.5-3.2-10.8-6.9-20.6-2.1c-7.5-4.3-12.7-2.6-12.7-2.6c4.8-4.3,10.1-2,12.4-1
		C141.1,405.2,157.5,402.4,160.7,413.4z"/>
	<path class="st11" d="M252.8,428.5c0.1-5.7,2.1-10.7-3.2-15.2c0.1-11.6-8.9-15.9-8.9-15.9c5.5-1.6,11.9,3.7,11,15.4
		C254.4,412.4,260.7,421.6,252.8,428.5z"/>
	<path class="st11" d="M232.2,395.2c1-3.5,9-5.9,8.5,2.2C238.8,396.3,236.7,392,232.2,395.2z"/>
	<path class="st11" d="M168,457.1c-5.4-4.5-10.3-11.4-18.5-8.3c-5.7-8.5-13.2-10.5-13.2-10.5c10.1-2.1,12.4,5.6,13.8,6.9
		C151.6,443.1,168.3,445.9,168,457.1z"/>
	<path class="st10" d="M154.8,429.9c-1.3,6.1-17.9,15-23.1,5.7c0,0-5.3,10-13.2,8c-7.9-1.9-12.4-5.8-11.6-8.2c2,1,17.6,8.4,25.2-3.3
		C136.1,441.2,154.8,429.9,154.8,429.9z"/>
	<path class="st11" d="M264.5,469.3c0.1-5.7,2.9-9.8-2.3-14.3c0.1-11.6-6.3-14-6.3-14c5.5-1.6,8.3,2,7.4,13.7
		C266,454.4,272.4,462.4,264.5,469.3z"/>
</g>
<g>
	<path class="st8" d="M524.3,503c0,0-7.4,4.5-12.4-1.2c-2.2,1.9-4.9,1.2-7.7-1.8c-3.8,2.9-16.6,4.7-19.9-7.6
		c-9.4,1.1-15.8-4.1-15.6-10.6c-4.4-0.4-8.7-4.8-3.4-9.5c-1.9-9,3.6-10.9,5.4-11.4c-0.6-2.9,0.5-6.3,2.6-6.7c-3-1.6-3.5-4.7-3.3-6.5
		c-7.2,2.1-8.2-5.2-4.5-7.3c-1.6-4.1-0.4-8.1,2.8-10.6c-0.9-2.1-1.1-5.2,1.5-6.6c-0.5-3.7-0.4-10.3,8.2-11.1
		c-0.5-3.1,2.4-6.2,7.4-3.5c3.5-3.4,8.3-2.2,12.4-1c-1.2-5.3,1.7-10,5.8-10.8c-1.8-13,8.8-18.3,16.8-15.6c0.5-8.7,7.7-10.7,12.7-3.9
		c10.3-5.2,23.1,1.3,23.5,11.3c7.9-1.8,14,5.2,14.5,9.5c1.4-0.9,3.1-0.9,4,0.1c1.3-7.1,12.1-7.9,15.2-2.9c1.8-4.2,8.9-4.2,8.5,2.2
		c9.6-1.6,11.7,10.6,11,15.4c5.8,4.4,6.5,9.7,1.1,15.6c3.7,3,3.2,10.5,3.1,12.6c8.7,3.1,7.7,9.3,7.4,13.7c5.4,4.6,6.3,9.4,1.2,14.5
		c7.2,13.7-5.4,30.2-21.2,14.2c-1.4,1.3-3.9,1.8-5.6,2.2c-0.5,9.3-8.4,11.3-13.7,6.1c-4,2.1-7.7,2.8-13,1s-5.8-2.4-6.4-4.4
		c-2.5,2.4-4.5,2.8-8.2,2.2c-5.1,1.5-12.5-0.3-15.6-4.5c-3.6,4.6-2.6,6.3-8.1,6C530.5,497.4,524.3,503,524.3,503z"/>
	<path class="st9" d="M503.1,572.4c0,0,12.4,2.8,18.5,1.5s14.4-11.2,20.2-10.7c5.8,0.4,8,5.9,12.4,6.5s20.5,3.8,24.4,8.2
		c-1.3-12.4-9.1-14.4-14.9-22.8c-3.7-9.6,2.6-57.4,5.8-59.8c3.6-2.4,9.3-2.4,13.1-2.9s12.1-9,11.5-10.7s-9,5.3-11.1,5.9
		s-9,1.7-9,0.3s7.9-8.7,7-9.3c-0.9-0.6-1.8-2-6.6,2.4s-10.4,16.5-15.9,15.7s-6.9-7.2-8.3-12.8c-1.4-5.6-5.8-6-5.8-8s3.8-3.7,6.7-5.4
		c3-1.7,8.3-6.6,7.3-10c-0.9-3.4-6.7,9.9-18,9.3c-5.5-0.9-13.2-17.3-14.9-21.3c-2.1,0.3-2.6,12.2,19,38.9
		c-1.4,8.7-2.7,13.4-7.3,14.6c-20.6-3.7-25.2-19.1-28.8-18.3c-2.3-0.6-2.9,4.1-1.6,5.8c2.4,7,21.3,18.4,24.1,28.7
		c-0.3,4,2.5,33.6-7.4,45C520.8,566.2,502.6,570.8,503.1,572.4z"/>
	<path class="st10" d="M553,410.6c-2.3,5.1-1.8,15.7,6.6,11.2c-5.3,9.3,3.1,15,8.3,13.8c-0.5,3.5,9.5,8,14.8,4.3
		c2.1,2.5,10.1,3.8,12.4-0.9c4.5,3.2,17.2-0.3,15.6-10.5c-2.6,8.2-10.4,13.6-15.2,8.4c-4.6,3.6-9.3,5.1-12,0.8
		c-7.4,3.3-13.3-2.1-13.3-5.1c-9.7,0.6-8-11.7-5.7-14.5C556.8,421.2,552.9,419,553,410.6z"/>
	<path class="st10" d="M466.8,463c-0.6,5.5,7.1,16.6,13.7,9.6c-2,10.5,9.3,12.7,13.7,9.9c0.6,3.5,10.3,6.7,14.2,1.5
		c2.8,1.7,15,2.4,15.7-2.8c5.3,1.6,11.7-4.1,7-13.3c0.2,8.6-3.5,11.6-8.6,9.5c-3.3,4.9-9.8,5.3-13.7,2.2c-6,5.4-12.8,2.6-13.7-0.2
		c-9,3.7-14.6-6.5-13.3-10C475.3,474.9,469.4,471,466.8,463z"/>
	<path class="st10" d="M506.8,432.8c-2.2,5.6,6.5,16,16,14c-0.3,3.8,11.1,14.6,18.4,11.4c0.1,3.5,13.4,5.7,20.4,0.1
		c3.7,1.6,15.9-0.4,18.2-5.6c7.5,1.2,26.7-4.5,21.9-13.5c-1.8,8.7-13.5,14.4-21.8,11.4c-6,5.1-12.5,8.3-17.6,5.4
		c-10.2,5.9-18.4,0.8-19.1-2c-14.2,4.3-15.5-7.6-12.8-11.1C519.5,446.8,508.7,440.7,506.8,432.8z"/>
	<path class="st11" d="M570.9,398c-2.1-0.9-7.9-11.5-16.2-5.3c-0.9-14.8-21.8-15.5-21.8-15.5c14.1-7.3,24.7,5.7,23.5,11.3
		C558.7,387,570,388.9,570.9,398z"/>
	<path class="st11" d="M518.6,413.4c-8.5-3.2-10.8-6.9-20.6-2.1c-7.5-4.3-12.7-2.6-12.7-2.6c4.8-4.3,10.1-2,12.4-1
		C499,405.2,515.4,402.4,518.6,413.4z"/>
	<path class="st11" d="M610.7,428.5c0.1-5.7,2.1-10.7-3.2-15.2c0.1-11.6-8.9-15.9-8.9-15.9c5.5-1.6,11.9,3.7,11,15.4
		C612.3,412.4,618.6,421.6,610.7,428.5z"/>
	<path class="st11" d="M590.1,395.2c1-3.5,9-5.9,8.5,2.2C596.7,396.3,594.7,392,590.1,395.2z"/>
	<path class="st11" d="M525.9,457.1c-5.4-4.5-10.3-11.4-18.5-8.3c-5.7-8.5-13.2-10.5-13.2-10.5c10.1-2.1,12.4,5.6,13.8,6.9
		C509.6,443.1,526.2,445.9,525.9,457.1z"/>
	<path class="st10" d="M512.7,429.9c-1.3,6.1-17.9,15-23.1,5.7c0,0-5.3,10-13.2,8c-7.9-1.9-12.4-5.8-11.6-8.2c2,1,17.6,8.4,25.2-3.3
		C494,441.2,512.7,429.9,512.7,429.9z"/>
	<path class="st11" d="M622.4,469.3c0.1-5.7,2.9-9.8-2.3-14.3c0.1-11.6-6.3-14-6.3-14c5.5-1.6,8.3,2,7.4,13.7
		C623.9,454.4,630.3,462.4,622.4,469.3z"/>
</g>
<path class="st12" d="M596.2,589.6H126.6c-4.7,0-8.5-3.8-8.5-8.5l0,0c0-4.7,3.8-8.5,8.5-8.5h469.7c4.7,0,8.5,3.8,8.5,8.5l0,0
	C604.7,585.7,600.9,589.6,596.2,589.6z"/>
<circle class="st13" cx="132.1" cy="581.1" r="4.5"/>
<circle class="st13" cx="218.1" cy="581.1" r="4.5"/>
<circle class="st13" cx="189.4" cy="581.1" r="4.5"/>
<circle class="st13" cx="160.8" cy="581.1" r="4.5"/>
<circle class="st13" cx="246.8" cy="581.1" r="4.5"/>
<circle class="st13" cx="275.4" cy="581.1" r="4.5"/>
<circle class="st13" cx="304.1" cy="581.1" r="4.5"/>
<circle class="st13" cx="332.7" cy="581.1" r="4.5"/>
<circle class="st13" cx="361.4" cy="581.1" r="4.5"/>
<circle class="st13" cx="447.4" cy="581.1" r="4.5"/>
<circle class="st13" cx="418.7" cy="581.1" r="4.5"/>
<circle class="st13" cx="390" cy="581.1" r="4.5"/>
<circle class="st13" cx="476" cy="581.1" r="4.5"/>
<circle class="st13" cx="504.7" cy="581.1" r="4.5"/>
<circle class="st13" cx="533.3" cy="581.1" r="4.5"/>
<circle class="st13" cx="562" cy="581.1" r="4.5"/>
<circle class="st13" cx="590.7" cy="581.1" r="4.5"/>
<rect x="136.6" y="589.6" class="st14" width="449.5" height="58.1"/>
<line class="st15" x1="160.8" y1="609.8" x2="189.4" y2="609.8"/>
<line class="st15" x1="160.8" y1="614.1" x2="189.4" y2="614.1"/>
<line class="st15" x1="160.8" y1="618.4" x2="189.4" y2="618.4"/>
<line class="st15" x1="160.8" y1="622.7" x2="189.4" y2="622.7"/>
<line class="st15" x1="533" y1="609.8" x2="561.7" y2="609.8"/>
<line class="st15" x1="533" y1="614.1" x2="561.7" y2="614.1"/>
<line class="st15" x1="533" y1="618.4" x2="561.7" y2="618.4"/>
<line class="st15" x1="533" y1="622.7" x2="561.7" y2="622.7"/>
<path class="st16" d="M363.3,626.4h-28.6c-1.1,0-1.9-0.9-1.9-1.9v-12.7c0-1.1,0.9-1.9,1.9-1.9h28.6c1.1,0,1.9,0.9,1.9,1.9v12.7
	C365.2,625.5,364.4,626.4,363.3,626.4z"/>
<path class="st16" d="M229,647.7c0,0-1.2-10.1,17.8-10.1s228.9,0,229.3,0s23.7-2.8,24.2,10.1H229z"/>
</svg>
