<?xml version="1.0" encoding="utf-8"?>
<!-- Generator: Adobe Illustrator 22.1.0, SVG Export Plug-In . SVG Version: 6.00 Build 0)  -->
<svg version="1.1" id="Layer_1" xmlns="http://www.w3.org/2000/svg" xmlns:xlink="http://www.w3.org/1999/xlink" x="0px" y="0px"
	 viewBox="0 0 735 852" style="enable-background:new 0 0 735 852;" xml:space="preserve">
<style type="text/css">
	.st0{fill:#1E7B42;}
	.st1{clip-path:url(#SVGID_2_);}
	.st2{fill:#144F85;}
	.st3{fill:#E6B35A;}
	.st4{fill:#173E6C;}
	.st5{fill:#FFFFFF;}
	.st6{font-family:'MyriadPro-Regular';}
	.st7{font-size:12px;}
	.st8{fill:#FFFFFF;stroke:#FFFFFF;stroke-width:3;stroke-miterlimit:10;}
	.st9{fill:#6CC900;}
	.st10{fill:#745C00;}
	.st11{fill:#6CA800;}
	.st12{fill:#AAD646;}
	.st13{fill:#969696;stroke:#000000;stroke-width:2.3395;stroke-miterlimit:10;}
	.st14{fill:#646464;stroke:#000000;stroke-width:2.3395;stroke-miterlimit:10;}
	.st15{fill:#C8C8C8;stroke:#000000;stroke-width:2.3395;stroke-miterlimit:10;}
	.st16{fill:none;stroke:#000000;stroke-width:2.3395;stroke-miterlimit:10;}
	.st17{fill:#E6E6E6;stroke:#000000;stroke-width:2.3395;stroke-miterlimit:10;}
</style>
<title></title>
<polygon class="st0" points="369.5,7.4 728.2,214.5 728.2,636.6 369.5,845 2.8,636.6 2.8,214.5 "/>
<g>
	<defs>
		<polygon id="SVGID_1_" points="369.5,7.4 728.2,214.5 728.2,636.6 369.5,845 2.8,636.6 2.8,214.5 		"/>
	</defs>
	<clipPath id="SVGID_2_">
		<use xlink:href="#SVGID_1_"  style="overflow:visible;"/>
	</clipPath>
	<g class="st1">
		<circle class="st2" cx="365.5" cy="437.5" r="442.1"/>
		<ellipse class="st2" cx="366.9" cy="105.8" rx="315.2" ry="234.6"/>
	</g>
</g>
<path class="st3" d="M367,633.9c0.3-0.3,0.6-0.6,0.9-0.9h-0.3L367,633.9z"/>
<path class="st4" d="M705.6,196.2L427.8,35.8L367.5,1l-60.3,34.8L29.4,196.2L0.1,213.1v424.3l29.3,16.9l281.3,162.4l56.9,32.8
	l56.9-32.8l281.3-162.4l29.3-16.9V213.1L705.6,196.2z M705.6,621.5L367.5,816.7L29.4,621.5V231L367.5,35.8l0,0L705.6,231V621.5z"/>
<text transform="matrix(0.8662 -0.4998 0.4998 0.8662 377.6687 809.0386)" class="st5 st6 st7">Janek Thomas, Stefan Coors</text>
<g>
	<path class="st5" d="M70.1,299.5l-1.4-5.8c-4.6,6.2-10.3,10.1-16.9,11.7c-4.8,1.1-8.8,0.8-12.1-1c-3.3-1.8-5.3-4.4-6.1-8
		c-0.9-3.9,0.1-7.7,2.9-11.4c2.9-3.7,7.7-6.4,14.5-8c1.8-0.4,3.9-0.8,6.1-1.1c2.2-0.3,4.6-0.4,7.3-0.5l-1.5-6.5
		c-0.5-2.2-2-3.8-4.4-5c-2.4-1.1-5.6-1.2-9.7-0.3c-3.1,0.7-7.2,2.7-12.4,5.8c-0.9,0.6-1.6,0.9-1.8,0.9c-0.5,0.1-1,0-1.4-0.3
		c-0.5-0.3-0.7-0.7-0.9-1.3c-0.1-0.5-0.1-1,0.2-1.4c0.3-0.6,2-1.7,4.9-3.2c4.6-2.5,8.2-4,10.7-4.6c5-1.2,9.3-0.9,12.7,1
		c3.4,1.8,5.5,4.3,6.2,7.4l6.2,26.4l5.3-1.3c1-0.2,1.7-0.2,2.2,0.1c0.5,0.3,0.8,0.7,1,1.3c0.1,0.6,0,1.1-0.3,1.6
		c-0.3,0.5-1,0.8-2,1.1L70.1,299.5z M65.4,279.6c-2-0.1-4.1,0-6.2,0.2c-2.2,0.2-4.4,0.6-6.7,1.2c-5.8,1.4-10,3.7-12.7,7
		c-2,2.5-2.7,5-2.1,7.6c0.6,2.4,2,4.2,4.3,5.4s5.2,1.4,8.8,0.5c3.5-0.8,6.5-2.3,9.1-4.3s5.2-5,7.6-8.7L65.4,279.6z"/>
	<path class="st5" d="M130.6,285.2l-1.4-5.8c-4.3,6.2-9.6,10.1-15.9,11.6c-3.9,0.9-7.1,0.6-9.6-1.1c-3.3-2.2-5.4-5.1-6.2-8.8
		l-6.1-25.8l-5.4,1.3c-1,0.2-1.7,0.2-2.2-0.1c-0.5-0.3-0.8-0.7-1-1.3c-0.1-0.6,0-1.1,0.3-1.6s1-0.8,1.9-1.1l9.4-2.2l7,29.8
		c0.6,2.6,1.9,4.5,4,5.8c2,1.3,4.3,1.6,6.8,1.1c6.5-1.5,11.8-5.9,15.8-13.1l-6.1-25.8l-7.4,1.7c-1,0.2-1.7,0.2-2.2-0.1
		c-0.5-0.3-0.8-0.7-1-1.3c-0.1-0.6,0-1.1,0.3-1.6c0.3-0.5,1-0.8,1.9-1.1l11.4-2.7l8.8,37.2l3.4-0.8c1-0.2,1.7-0.2,2.2,0.1
		c0.5,0.3,0.8,0.7,1,1.3c0.1,0.6,0,1.1-0.3,1.6s-1,0.8-1.9,1.1L130.6,285.2z"/>
	<path class="st5" d="M157.5,235.5l21.7-5.1c1-0.2,1.7-0.2,2.2,0.1c0.5,0.3,0.8,0.7,1,1.3c0.1,0.6,0,1.1-0.3,1.6
		c-0.3,0.5-1,0.8-1.9,1.1l-21.7,5.1l6.3,26.6c0.5,2.3,1.9,4,4.1,5.1c2.2,1.1,5.1,1.3,8.7,0.4c2.7-0.6,5.5-1.7,8.5-3.3
		c2.9-1.5,5.2-3,6.7-4.5c0.5-0.6,1-0.9,1.4-1c0.5-0.1,1,0,1.5,0.3s0.8,0.7,0.9,1.3c0.1,0.5,0,1-0.3,1.5c-0.8,1.3-3,3-6.6,5.1
		s-7.2,3.6-10.8,4.5c-4.7,1.1-8.6,0.9-11.9-0.7c-3.3-1.5-5.3-4.2-6.2-7.9l-6.3-26.6l-7.4,1.7c-1,0.2-1.7,0.2-2.2-0.1
		c-0.5-0.3-0.8-0.7-1-1.3c-0.1-0.6,0-1.1,0.3-1.6c0.3-0.5,1-0.8,1.9-1.1l7.4-1.7l-2.8-11.8c-0.2-1-0.2-1.7,0.1-2.2s0.7-0.8,1.3-1
		c0.6-0.1,1.1-0.1,1.6,0.3s0.8,1,1.1,1.9L157.5,235.5z"/>
	<path class="st5" d="M251.3,235.2c1.4,6.1,0.5,11.8-2.9,17.1c-3.3,5.3-8.1,8.7-14.2,10.2c-6.2,1.5-12,0.5-17.4-2.8
		c-5.4-3.3-8.8-8-10.2-14c-1.4-6.1-0.5-11.8,2.8-17.1c3.3-5.3,8.1-8.8,14.3-10.2c6.1-1.4,11.9-0.5,17.3,2.8
		C246.4,224.4,249.9,229.1,251.3,235.2z M247.3,236.1c-1.2-5-4-8.8-8.4-11.5c-4.4-2.7-9.1-3.4-14.2-2.2c-5.1,1.2-9,4-11.7,8.4
		c-2.7,4.4-3.5,9-2.3,14c1.2,4.9,3.9,8.8,8.3,11.5c4.4,2.7,9.1,3.5,14.2,2.3c5.1-1.2,9-4,11.7-8.4
		C247.6,245.8,248.4,241.1,247.3,236.1z"/>
</g>
<g>
	<path class="st8" d="M345.7,260.8c-0.6,0.7-1.3,1.1-2.1,1.2c-0.6,0-1.2,0-2-0.3l-2.9,1.3l-2-0.6l-2.5-0.4l-3.7-2
		c-0.6-0.3-1.3-0.4-2.1-0.5l-3.3-0.3l-4.7-3l-6-5.5l-5.5-3.9l-0.5-1.2l-1-0.6l-3.9-4.4l-1-1.5l-1.7-1.2c-1.5-2.3-2.9-3.5-4.2-3.6
		c-0.6,0.5-1.7,0.8-3.2,1.1l-1.4,2.4c-1.6,2.3-2.3,3.6-2.1,3.8l-2.4,1.4l-2.1,3.4c-1.6,1.2-2.6,2-3,2.3c-0.4,0.3-0.7,0.9-1,1.8
		c-0.2,0.9-0.4,1.5-0.5,1.7l-3.1,1.2c0,2-0.5,3.5-1.7,4.5l-4.4,3.7l0,0.6l-4.8,4.6l-4.1,5.8l-1.2,0.8l0.1,1.6l-1.6,1
		c-0.6,0.4-1.1,0.9-1.5,1.5l-1.3,2.2l-2.2-1.1l1.5-2.5l1.7-0.3l1.1-2.8c1.4-0.6,2.2-1.2,2.4-1.6l2.1-4.4l1.5-0.8
		c1.5-2.8,2.4-4.3,2.9-4.6l-0.2-2.1l3.1-0.8l-0.3-0.9c-0.1-0.7,0.3-1.4,1-2.1c0.7-0.7,1.1-1.1,1.1-1.3c0-0.1-0.3-0.5-1-1.1l1.5,0
		c-0.3-0.2-0.4-0.4-0.4-0.5c0-0.3,0.2-0.7,0.7-1c1.6-0.4,2.7-0.8,3.1-1.4c0.5-0.6,0.6-1.4,0.5-2.7l1-0.5l0.3-1l1.3-0.4l0-0.4
		c-0.1-1,0.8-2,2.7-2.8l1.2-3.6l2.1-0.9l-0.2-2.2l1.3-0.5l0.6-1.8l0.6,0.1l1.3-0.8c-0.1-1.9,0.8-3,2.9-3.1l0.6,0l-0.8-2.4l-1.5-1.4
		c-0.5-0.4-0.9-1.2-1.2-2.3l-1.6-0.5l-3.3-4.5l-3.6-4.3l-2.6-3.8l-3-2.4l0.6-1.3l-0.9-2.3l2.4-0.6l2.9,0.2l0.5,1.1
		c0.1,0.3,1.3,1.3,3.5,2.9l-0.4,1.9l1.5,0.6l1.3,2.3c0.1,0.3,0.4,0.6,0.9,0.9l1.9,1.1l-1.1,0.1l1.7,0.9l0.1,1.6l3.7,3.3l0.7,1.9
		l2.4,1.5l0-0.4c-0.1-1.3,0.7-2.3,2.5-3.1l1.1,0.9l-0.2-2c1.1-0.5,2-1.5,2.7-3.1l1.2-0.1l-0.1-1.1l1.8-0.8l0.7-0.1l-0.5-1.2
		c0.6-0.7,1.1-1,1.5-1c0.4,0,0.8,0.1,1.1,0.5l-0.1-1.8l2.5-0.3l-0.1-1.1l1.6-1l0.4-1.7c1.7-0.4,2.8-1.5,3.2-3.2l0.1,1.6
		c0.4-0.6,0.7-1,0.6-1.5c0-0.1-0.1-0.3-0.4-0.4l4-1.7l1-1.2c1-0.2,2.8-0.7,5.4-1.5c1,1.2,1.8,2,2.4,2.3c0,1-0.6,1.8-1.7,2.2
		c-1.1,0.4-2,0.9-2.7,1.4l-11,9.1l-1.2,1.9l-3,1.2c-1.2,2.7-2.4,4.7-3.5,5.9l-3,1.2l-0.9,2.3l-2.9,1.9l0,0.6
		c-0.1,0.2-0.2,0.4-0.1,0.6c0,0.7,1.2,1.4,3.4,2.2l-0.1,1.6c1.1,1.2,1.7,2,1.7,2.4l2.2,0.7c1.1,2,1.9,3.1,2.3,3.6
		c0.4,0.4,1.8,1.3,4.2,2.5l1.5,3.6l3.4,1.9l1.9,2.1c0.2,0.2,1.2,0.7,3.1,1.5l0.4,1c1.6,0.5,2.6,1.2,3.2,2.1l2.1,0.3l2.1,2.2
		c0.4,0.9,1.3,1.3,2.5,1.2l1.9-0.6l2.5,0.9l7.8,0.2L345.7,260.8z"/>
	<path class="st8" d="M439.9,235.1l-1.1,5.6l0.5,1.2l-0.7,0.8c0.8,1,1.3,2,1.3,3l-0.3,1.4l0.4,2.9c0.1,1.8,0,4.1-0.3,6.9
		c-0.3,2.8-0.5,4.7-0.6,5.7l-0.1,2.1c0,0.6-0.6,2-1.7,4.1l1-0.1L438,271l-1,1.1c-0.3,0.4-0.7,1.2-1.1,2.5s-0.8,2.4-1.4,3.3
		c-0.5,0.9-1.3,2-2.1,3.2c-0.9,1.2-1.8,2.2-3,3.1c-1.1,0.8-2.7,2-4.7,3.7L422,289c-1.4,1.1-2.5,1.6-3.3,1.7l-0.9,0.9
		c-4.4,1-6.6,1.5-6.7,1.5l-0.4,0l-0.3,0.5c-1.7,0.7-3.7,1.1-6,1.3l-6.7,0.5l-4.9-0.5l-3,0.7l-1.4-0.8l-5.5-0.2l-2.3-1.4
		c-0.7-0.4-2.4-1.1-5-2c-3.4-0.8-5.5-2.2-6.3-4.2l0.7-0.8l-0.9-2.6c0.4-0.5,0.9-0.8,1.6-0.8c0.3-0.4,0.7-0.6,1.1-0.6
		c0.2,0,0.9,0,2.2,0.1c1.3,0.1,2.8,0.1,4.5,0.1l-0.1,1.5c0.7-0.1,1.6,0.2,2.7,0.6c0,0.4-0.1,0.8-0.3,1.2l-0.3,0.7
		c0.1,1.1,0.7,1.7,1.8,1.7c0,0.6,0.2,0.9,0.4,1c0.2,0,0.7,0.1,1.4,0.3l8,1.4l2.1-0.4l0.4,0.5l4.1-0.3c1-0.1,2.1,0,3.3,0.3
		c1.1-0.8,4.4-1.6,9.8-2.4c1.1-0.2,2.1-0.7,2.9-1.4c2.3-0.4,3.7-0.9,4-1.5l0.6,0c0.6,0,1.2-0.2,1.8-0.4c0.6-0.2,1-0.6,1.4-1l5.9-5.6
		l3.3-4.4l0-1.9l1.8-2.5l0.2-2.1l0.9-1.8l0.8-4.4l1.1-4.3l-0.4-3l-0.1-1.1c-0.2-2.1,0.2-3.9,1-5.3l-1.4-3.1l-0.6-7.5l-1.5-2.7
		l-0.3-4.4l-1.9-2.9l0-4.9l-2.7-5.2c-0.4-0.3-0.8-0.4-1.3-0.3c-0.7,0.1-1.5,0.6-2.4,1.6l0.5,1.5l-2.5,1l-1.2,2.9l-2.2,2l-3.1,4.5
		l-4.3,2.8l-5,5c-1.5,1.3-2.9,2.3-4.1,3.3c-1.3,0.9-2.5,1.9-3.9,2.7c-1.3,0.9-2.1,1.5-2.3,1.8l-0.8,1.1c-0.3,0.4-1.1,0.9-2.4,1.7
		l-2.9,1.3l-1.6,1.5c-0.5,0.5-1.8,1.2-3.9,2.3c-0.4,0.7-1.2,1.1-2.3,1.2l-0.5,0c-2.4,1.8-5.1,2.9-8.1,3.1c-1.2,0.1-2.1,0.1-2.7,0.1
		l-1.5,0.8c-0.7-0.2-2-0.4-4-0.4c-4.9-3.2-7.7-5.9-8.4-8.1l-1.5-5.6l0.1-3.6l1.7-5.7l-0.3-1.7l0.6-2.5c0.4-1.7,0.9-3,1.5-3.8
		c0.6-0.8,0.8-2.1,0.8-3.6l0-2.3l3.3-5.9c0.1-0.2,0.5-0.6,1-1.1c0.6-0.5,1.5-1.9,2.9-4l1.9-1.8c0.8-1.9,1.8-3.1,2.8-3.6
		c1-0.6,1.8-1.7,2.2-3.5c0.6-0.6,1.8-1.1,3.8-1.6c1.9-0.4,3.2-1.5,3.8-3.1l1.3,0.2l3.3-2.1c1.1-1.2,2.2-1.8,3.3-1.9
		c0.2,0,0.7,0,1.5,0.2l5.4-2l3.5,0.3l2.5-0.2l2,0.8l1.1-0.1c0.3,0.4,1.6,1.4,3.9,2.8c2.2,1.4,3.5,2.3,3.8,2.6c0,1.3-0.3,2.5-0.9,3.4
		l-2.9,0.2l-2.7-2.8c-2.3-0.5-3.7-1-4.1-1.5l-0.9,0.4c-1.8-0.5-3.1-0.7-4-0.6c-2.1,0.2-4.2,1-6.3,2.4l-1.3,0l-0.3,1l-1.7,0.1
		l-2.4,0.6c-0.6,1.4-1.6,2.2-3.1,2.3c-1.4,1.3-2.5,2.2-3.4,2.6l-1,1.9l-1.7,0.5l-0.1,1l-1.7,0.1l-2.7,4.3l-2.4,1.5l-0.9,2.7L367,221
		c-0.3,0.4-0.4,1.5-0.4,3.4l-1.9,1.8l-1.6,6.7l-1.7,1.8l0.4,2.6l-1.8,6.1l0.9,1.9l-0.2,2.8c0.6,0.3,1.1,1,1.6,2.1
		c0.5,1.1,1.2,1.7,2.1,1.9l0.7,1.4c1.3,0.2,2.2,0.4,2.5,0.7c0.9-0.4,1.8-0.6,2.6-0.6l1.9,0.1c0.2,0,1-0.2,2.3-0.5
		c0.8-0.9,3.7-1.7,8.9-2.5c0.6-0.6,1.3-1.3,2-2.2c0.8-0.9,1.6-1.6,2.4-2c0.8-0.4,1.8-1,3-1.8c1.2-0.8,2.1-1.3,2.6-1.4
		c2.2-0.6,3.2-1.6,3.1-2.9c3-1.2,4.6-2.3,4.9-3.4l1.4-0.5c0.4-0.1,1-0.5,1.9-1.3c0.9-0.7,2.2-2.2,4-4.5l1.1,0.5l0.6-1.4l2.1-0.7
		c-0.1-0.1-0.2-0.4-0.2-0.7c0-0.6,0.3-1.2,1-1.8c0.5,0,0.9-0.1,1.3-0.3c0.4-0.1,0.7-0.4,0.8-0.8l0.6-1.1l3.3-3.9l0.7-0.1l0.3-2.9
		c0.7-0.4,2.2-3.6,4.3-9.6l1.4-0.5l-1.2-2.2l-0.8-2.3c-0.4-0.9-0.8-1.6-1.4-2.1l-2.1-2.3l1-2.4l-1-2.5c0.5-1,1.2-1.6,2-1.6
		c0.4,0,0.7,0,1,0.1c0.3,0.1,1.1,0.9,2.2,2.2l1.9,0.6l0,2.6l1,1.8c0.3,0.5,0.5,1,0.6,1.4c0.1,0.4,0.4,1.1,0.9,2
		c0.5,0.9,0.8,1.5,0.8,2c0,0.4-0.1,0.6-0.5,0.6c0.7,1.3,1.5,2.5,2.7,3.6l-0.3,2.9c1.5,1.3,2.3,2.1,2.3,2.5c0,0.6-0.3,1.2-1.1,1.9
		l0.6,1.8l1.3,0.3l-0.4,1.9l1,3.7c0.7,1,1.1,2.1,1.2,3.1c0,0-0.1,0.1-0.2,0.3c-0.3,0.5-0.4,1.7-0.3,3.4l1.3,0.7L439.9,235.1z"/>
</g>
<g>
	<path class="st5" d="M477.3,194.1l-6.6,23.6c5.8-4.4,11.8-5.7,17.9-4.1c5.2,1.4,9.1,4.6,11.8,9.4c2.6,4.8,3.2,9.9,1.7,15.4
		c-1.5,5.5-4.7,9.7-9.5,12.5s-9.8,3.5-14.9,2.1c-6.2-1.7-10.6-6-13.2-12.7l-1.9,7l-8.3-2.3c-0.8-0.2-1.4-0.6-1.7-1
		c-0.3-0.4-0.3-0.9-0.2-1.4c0.1-0.5,0.5-0.9,0.9-1.1c0.5-0.2,1.1-0.2,2,0l4.8,1.3l12.8-46l-4.8-1.3c-0.8-0.2-1.4-0.6-1.7-1
		c-0.3-0.4-0.3-0.9-0.2-1.5c0.1-0.5,0.4-0.9,0.9-1.1c0.5-0.2,1.1-0.2,2,0L477.3,194.1z M498.4,237.6c1.3-4.5,0.8-8.7-1.4-12.7
		c-2.2-4-5.4-6.5-9.5-7.7c-4.1-1.1-8.2-0.6-12.1,1.7c-3.9,2.3-6.5,5.6-7.8,10.1c-1.3,4.5-0.8,8.7,1.4,12.7c2.2,4,5.4,6.5,9.5,7.7
		c4.1,1.1,8.2,0.6,12.1-1.7C494.6,245.4,497.2,242.1,498.4,237.6z"/>
	<path class="st5" d="M552.9,252.7c-1.5,5.4-4.7,9.5-9.7,12.3s-10.2,3.4-15.6,1.8c-5.5-1.5-9.7-4.8-12.5-9.7
		c-2.8-4.9-3.4-10.1-1.9-15.5c1.5-5.4,4.7-9.5,9.7-12.3c4.9-2.8,10.2-3.4,15.7-1.9c5.5,1.5,9.6,4.7,12.4,9.7
		S554.4,247.3,552.9,252.7z M549.3,251.7c1.2-4.5,0.7-8.7-1.6-12.7c-2.3-4-5.7-6.7-10.2-7.9c-4.5-1.3-8.8-0.8-12.8,1.5
		c-4.1,2.3-6.7,5.6-7.9,10c-1.2,4.4-0.7,8.6,1.6,12.7s5.7,6.7,10.2,8c4.5,1.3,8.8,0.8,12.9-1.5C545.4,259.5,548,256.2,549.3,251.7z"
		/>
	<path class="st5" d="M604.9,267.2c-1.5,5.4-4.7,9.5-9.7,12.3c-4.9,2.8-10.2,3.4-15.6,1.8c-5.5-1.5-9.7-4.8-12.5-9.7
		c-2.8-4.9-3.4-10.1-1.9-15.5c1.5-5.4,4.7-9.5,9.7-12.3c4.9-2.8,10.2-3.4,15.7-1.9c5.5,1.5,9.6,4.7,12.4,9.7
		C605.8,256.6,606.4,261.8,604.9,267.2z M601.3,266.2c1.2-4.5,0.7-8.7-1.6-12.7c-2.3-4-5.7-6.7-10.2-7.9s-8.8-0.8-12.9,1.5
		c-4.1,2.3-6.7,5.6-7.9,10c-1.2,4.4-0.7,8.6,1.6,12.7c2.3,4,5.7,6.7,10.2,8c4.5,1.3,8.8,0.8,12.9-1.5
		C597.4,274,600.1,270.6,601.3,266.2z"/>
	<path class="st5" d="M653.3,263.4c0.2-0.8,0.6-1.4,1-1.6c0.4-0.3,0.9-0.3,1.4-0.2c0.5,0.2,0.9,0.5,1.2,0.9c0.2,0.5,0.2,1.1,0,2
		l-1.7,6.1c-0.2,0.8-0.6,1.4-1,1.7c-0.4,0.3-0.9,0.3-1.5,0.2c-0.5-0.1-0.8-0.4-1.1-0.8c-0.2-0.4-0.3-1-0.1-1.7
		c0.3-1.7-0.2-3.4-1.5-4.9c-1.9-2.2-4.7-3.9-8.5-4.9c-4-1.1-7.3-1.2-9.9-0.2c-2,0.8-3.2,1.9-3.6,3.4c-0.5,1.7,0.1,3.4,1.8,5.1
		c1.1,1.2,3.5,2.5,7.2,4c4.8,1.9,8.1,3.5,9.8,4.7c2.5,1.8,4.1,3.7,5,5.8c0.9,2.1,1,4.2,0.4,6.2c-0.8,3-3,5.3-6.6,6.9
		s-8.2,1.5-13.8,0c-5.6-1.6-9.8-4.3-12.6-8.1c-0.3,1-0.5,1.6-0.7,1.8c-0.2,0.3-0.5,0.4-0.8,0.5c-0.4,0.1-0.7,0.1-1.1,0
		c-0.5-0.1-0.9-0.4-1.1-0.9s-0.2-1.1,0-2l2-7.3c0.2-0.8,0.6-1.4,1-1.7c0.4-0.3,0.9-0.3,1.4-0.2c0.5,0.1,0.9,0.4,1.1,0.9
		c0.3,0.5,0.3,1,0.1,1.6c-0.4,1.3-0.3,2.5,0.1,3.5c0.6,1.6,1.9,3.2,3.8,4.7c1.9,1.5,4.4,2.7,7.6,3.5c4.6,1.3,8.3,1.4,11,0.3
		s4.4-2.6,4.9-4.5c0.6-2.2,0-4.3-2-6.2c-1.9-2-5.1-3.8-9.4-5.5s-7.3-3.2-9-4.4s-2.9-2.8-3.6-4.6c-0.7-1.8-0.8-3.5-0.3-5.2
		c0.8-3,3-5.1,6.5-6c3.5-1,7.3-0.9,11.5,0.3C647.2,257.8,650.9,260.1,653.3,263.4z"/>
	<path class="st5" d="M686.9,270.2l19.3,5.4c0.8,0.2,1.4,0.6,1.7,1c0.3,0.4,0.3,0.9,0.2,1.5c-0.1,0.5-0.4,0.9-0.9,1.1
		c-0.5,0.2-1.1,0.2-2,0l-19.3-5.4l-6.6,23.7c-0.6,2.1-0.2,4,1,5.9c1.3,1.8,3.5,3.2,6.7,4.1c2.4,0.7,5.1,1,8.1,1.1
		c3,0.1,5.4-0.1,7.2-0.6c0.7-0.2,1.2-0.3,1.6-0.2c0.5,0.1,0.8,0.4,1,0.9c0.2,0.4,0.3,0.9,0.2,1.4c-0.1,0.4-0.4,0.8-0.9,1
		c-1.2,0.7-3.6,1.1-7.4,1.2c-3.8,0.1-7.3-0.3-10.5-1.2c-4.1-1.2-7.2-3-9.1-5.7s-2.4-5.6-1.5-8.9l6.6-23.7l-6.6-1.8
		c-0.8-0.2-1.4-0.6-1.7-1s-0.3-0.9-0.2-1.5c0.1-0.5,0.4-0.9,0.9-1.1c0.5-0.2,1.1-0.2,2,0l6.6,1.8l2.9-10.5c0.2-0.8,0.6-1.4,1-1.7
		c0.4-0.3,0.9-0.3,1.4-0.2c0.5,0.1,0.9,0.5,1.2,0.9c0.2,0.5,0.2,1.1,0,2L686.9,270.2z"/>
</g>
<g>
	<path class="st9" d="M345.3,503c0,0-7.4,4.5-12.4-1.2c-2.2,1.9-4.9,1.2-7.7-1.8c-3.8,2.9-16.6,4.7-19.9-7.6
		c-9.4,1.1-15.8-4.1-15.6-10.6c-4.4-0.4-8.7-4.8-3.4-9.5c-1.9-9,3.6-10.9,5.4-11.4c-0.6-2.9,0.5-6.3,2.6-6.7c-3-1.6-3.5-4.7-3.3-6.5
		c-7.2,2.1-8.2-5.2-4.5-7.3c-1.6-4.1-0.4-8.1,2.8-10.6c-0.9-2.1-1.1-5.2,1.5-6.6c-0.5-3.7-0.4-10.3,8.2-11.1
		c-0.5-3.1,2.4-6.2,7.4-3.5c3.5-3.4,8.3-2.2,12.4-1c-1.2-5.3,1.7-10,5.8-10.8c-1.8-13,8.8-18.3,16.8-15.6c0.5-8.7,7.7-10.7,12.7-3.9
		c10.3-5.2,23.1,1.3,23.5,11.3c7.9-1.8,14,5.2,14.5,9.5c1.4-0.9,3.1-0.9,4,0.1c1.3-7.1,12.1-7.9,15.2-2.9c1.8-4.2,8.9-4.2,8.5,2.2
		c9.6-1.6,11.7,10.6,11,15.4c5.8,4.4,6.5,9.7,1.1,15.6c3.7,3,3.2,10.5,3.1,12.6c8.7,3.1,7.7,9.3,7.4,13.7c5.4,4.6,6.3,9.4,1.2,14.5
		c7.2,13.7-5.4,30.2-21.2,14.2c-1.4,1.3-3.9,1.8-5.6,2.2c-0.5,9.3-8.4,11.3-13.7,6.1c-4,2.1-7.7,2.8-13,1s-5.8-2.4-6.4-4.4
		c-2.5,2.4-4.5,2.8-8.2,2.2c-5.1,1.5-12.5-0.3-15.6-4.5c-3.6,4.6-2.6,6.3-8.1,6C351.6,497.4,345.3,503,345.3,503z"/>
	<path class="st10" d="M324.1,572.4c0,0,12.4,2.8,18.5,1.5c6.1-1.4,14.4-11.2,20.2-10.7c5.8,0.4,8,5.9,12.4,6.5s20.5,3.8,24.4,8.2
		c-1.3-12.4-9.1-14.4-14.9-22.8c-3.7-9.6,2.6-57.4,5.8-59.8c3.6-2.4,9.3-2.4,13.1-2.9c3.8-0.5,12.1-9,11.5-10.7
		c-0.6-1.7-9,5.3-11.1,5.9c-2.1,0.6-9,1.7-9,0.3s7.9-8.7,7-9.3c-0.9-0.6-1.8-2-6.6,2.4c-4.8,4.4-10.4,16.5-15.9,15.7
		s-6.9-7.2-8.3-12.8c-1.4-5.6-5.8-6-5.8-8s3.8-3.7,6.7-5.4c3-1.7,8.3-6.6,7.3-10c-0.9-3.4-6.7,9.9-18,9.3
		c-5.5-0.9-13.2-17.3-14.9-21.3c-2.1,0.3-2.6,12.2,19,38.9c-1.4,8.7-2.7,13.4-7.3,14.6c-20.6-3.7-25.2-19.1-28.8-18.3
		c-2.3-0.6-2.9,4.1-1.6,5.8c2.4,7,21.3,18.4,24.1,28.7c-0.3,4,2.5,33.6-7.4,45C341.8,566.2,323.6,570.8,324.1,572.4z"/>
	<path class="st11" d="M374.1,410.6c-2.3,5.1-1.8,15.7,6.6,11.2c-5.3,9.3,3.1,15,8.3,13.8c-0.5,3.5,9.5,8,14.8,4.3
		c2.1,2.5,10.1,3.8,12.4-0.9c4.5,3.2,17.2-0.3,15.6-10.5c-2.6,8.2-10.4,13.6-15.2,8.4c-4.6,3.6-9.3,5.1-12,0.8
		c-7.4,3.3-13.3-2.1-13.3-5.1c-9.7,0.6-8-11.7-5.7-14.5C377.8,421.2,374,419,374.1,410.6z"/>
	<path class="st11" d="M287.8,463c-0.6,5.5,7.1,16.6,13.7,9.6c-2,10.5,9.3,12.7,13.7,9.9c0.6,3.5,10.3,6.7,14.2,1.5
		c2.8,1.7,15,2.4,15.7-2.8c5.3,1.6,11.7-4.1,7-13.3c0.2,8.6-3.5,11.6-8.6,9.5c-3.3,4.9-9.8,5.3-13.7,2.2c-6,5.4-12.8,2.6-13.7-0.2
		c-9,3.7-14.6-6.5-13.3-10C296.3,474.9,290.4,471,287.8,463z"/>
	<path class="st11" d="M327.8,432.8c-2.2,5.6,6.5,16,16,14c-0.3,3.8,11.1,14.6,18.4,11.4c0.1,3.5,13.4,5.7,20.4,0.1
		c3.7,1.6,15.9-0.4,18.2-5.6c7.5,1.2,26.7-4.5,21.9-13.5c-1.8,8.7-13.5,14.4-21.8,11.4c-6,5.1-12.5,8.3-17.6,5.4
		c-10.2,5.9-18.4,0.8-19.1-2c-14.2,4.3-15.5-7.6-12.8-11.1C340.5,446.8,329.7,440.7,327.8,432.8z"/>
	<path class="st12" d="M392,398c-2.1-0.9-7.9-11.5-16.2-5.3c-0.9-14.8-21.8-15.5-21.8-15.5c14.1-7.3,24.7,5.7,23.5,11.3
		C379.8,387,391,388.9,392,398z"/>
	<path class="st12" d="M339.7,413.4c-8.5-3.2-10.8-6.9-20.6-2.1c-7.5-4.3-12.7-2.6-12.7-2.6c4.8-4.3,10.1-2,12.4-1
		C320.1,405.2,336.4,402.4,339.7,413.4z"/>
	<path class="st12" d="M431.8,428.5c0.1-5.7,2.1-10.7-3.2-15.2c0.1-11.6-8.9-15.9-8.9-15.9c5.5-1.6,11.9,3.7,11,15.4
		C433.4,412.4,439.7,421.6,431.8,428.5z"/>
	<path class="st12" d="M411.2,395.2c1-3.5,9-5.9,8.5,2.2C417.8,396.3,415.7,392,411.2,395.2z"/>
	<path class="st12" d="M347,457.1c-5.4-4.5-10.3-11.4-18.5-8.3c-5.7-8.5-13.2-10.5-13.2-10.5c10.1-2.1,12.4,5.6,13.8,6.9
		C330.6,443.1,347.2,445.9,347,457.1z"/>
	<path class="st11" d="M333.7,429.9c-1.3,6.1-17.9,15-23.1,5.7c0,0-5.3,10-13.2,8c-7.9-1.9-12.4-5.8-11.6-8.2c2,1,17.6,8.4,25.2-3.3
		C315,441.2,333.7,429.9,333.7,429.9z"/>
	<path class="st12" d="M443.5,469.3c0.1-5.7,2.9-9.8-2.3-14.3c0.1-11.6-6.3-14-6.3-14c5.5-1.6,8.3,2,7.4,13.7
		C445,454.4,451.3,462.4,443.5,469.3z"/>
</g>
<g>
	<path class="st9" d="M166.3,503c0,0-7.4,4.5-12.4-1.2c-2.2,1.9-4.9,1.2-7.7-1.8c-3.8,2.9-16.6,4.7-19.9-7.6
		c-9.4,1.1-15.8-4.1-15.6-10.6c-4.4-0.4-8.7-4.8-3.4-9.5c-1.9-9,3.6-10.9,5.4-11.4c-0.6-2.9,0.5-6.3,2.6-6.7c-3-1.6-3.5-4.7-3.3-6.5
		c-7.2,2.1-8.2-5.2-4.5-7.3c-1.6-4.1-0.4-8.1,2.8-10.6c-0.9-2.1-1.1-5.2,1.5-6.6c-0.5-3.7-0.4-10.3,8.2-11.1
		c-0.5-3.1,2.4-6.2,7.4-3.5c3.5-3.4,8.3-2.2,12.4-1c-1.2-5.3,1.7-10,5.8-10.8c-1.8-13,8.8-18.3,16.8-15.6c0.5-8.7,7.7-10.7,12.7-3.9
		c10.3-5.2,23.1,1.3,23.5,11.3c7.9-1.8,14,5.2,14.5,9.5c1.4-0.9,3.1-0.9,4,0.1c1.3-7.1,12.1-7.9,15.2-2.9c1.8-4.2,8.9-4.2,8.5,2.2
		c9.6-1.6,11.7,10.6,11,15.4c5.8,4.4,6.5,9.7,1.1,15.6c3.7,3,3.2,10.5,3.1,12.6c8.7,3.1,7.7,9.3,7.4,13.7c5.4,4.6,6.3,9.4,1.2,14.5
		c7.2,13.7-5.4,30.2-21.2,14.2c-1.4,1.3-3.9,1.8-5.6,2.2c-0.5,9.3-8.4,11.3-13.7,6.1c-4,2.1-7.7,2.8-13,1s-5.8-2.4-6.4-4.4
		c-2.5,2.4-4.5,2.8-8.2,2.2c-5.1,1.5-12.5-0.3-15.6-4.5c-3.6,4.6-2.6,6.3-8.1,6C172.6,497.4,166.3,503,166.3,503z"/>
	<path class="st10" d="M145.2,572.4c0,0,12.4,2.8,18.5,1.5s14.4-11.2,20.2-10.7s8,5.9,12.4,6.5c4.4,0.6,20.5,3.8,24.4,8.2
		c-1.3-12.4-9.1-14.4-14.9-22.8c-3.7-9.6,2.6-57.4,5.8-59.8c3.6-2.4,9.3-2.4,13.1-2.9c3.8-0.5,12.1-9,11.5-10.7
		c-0.6-1.7-9,5.3-11.1,5.9c-2.1,0.6-9,1.7-9,0.3s7.9-8.7,7-9.3c-0.9-0.6-1.8-2-6.6,2.4c-4.8,4.4-10.4,16.5-15.9,15.7
		s-6.9-7.2-8.3-12.8c-1.4-5.6-5.8-6-5.8-8s3.8-3.7,6.7-5.4c3-1.7,8.3-6.6,7.3-10c-0.9-3.4-6.7,9.9-18,9.3
		c-5.5-0.9-13.2-17.3-14.9-21.3c-2.1,0.3-2.6,12.2,19,38.9c-1.4,8.7-2.7,13.4-7.3,14.6c-20.6-3.7-25.2-19.1-28.8-18.3
		c-2.3-0.6-2.9,4.1-1.6,5.8c2.4,7,21.3,18.4,24.1,28.7c-0.3,4,2.5,33.6-7.4,45C162.8,566.2,144.6,570.8,145.2,572.4z"/>
	<path class="st11" d="M195.1,410.6c-2.3,5.1-1.8,15.7,6.6,11.2c-5.3,9.3,3.1,15,8.3,13.8c-0.5,3.5,9.5,8,14.8,4.3
		c2.1,2.5,10.1,3.8,12.4-0.9c4.5,3.2,17.2-0.3,15.6-10.5c-2.6,8.2-10.4,13.6-15.2,8.4c-4.6,3.6-9.3,5.1-12,0.8
		c-7.4,3.3-13.3-2.1-13.3-5.1c-9.7,0.6-8-11.7-5.7-14.5C198.9,421.2,195,419,195.1,410.6z"/>
	<path class="st11" d="M108.9,463c-0.6,5.5,7.1,16.6,13.7,9.6c-2,10.5,9.3,12.7,13.7,9.9c0.6,3.5,10.3,6.7,14.2,1.5
		c2.8,1.7,15,2.4,15.7-2.8c5.3,1.6,11.7-4.1,7-13.3c0.2,8.6-3.5,11.6-8.6,9.5c-3.3,4.9-9.8,5.3-13.7,2.2c-6,5.4-12.8,2.6-13.7-0.2
		c-9,3.7-14.6-6.5-13.3-10C117.4,474.9,111.5,471,108.9,463z"/>
	<path class="st11" d="M148.8,432.8c-2.2,5.6,6.5,16,16,14c-0.3,3.8,11.1,14.6,18.4,11.4c0.1,3.5,13.4,5.7,20.4,0.1
		c3.7,1.6,15.9-0.4,18.2-5.6c7.5,1.2,26.7-4.5,21.9-13.5c-1.8,8.7-13.5,14.4-21.8,11.4c-6,5.1-12.5,8.3-17.6,5.4
		c-10.2,5.9-18.4,0.8-19.1-2c-14.2,4.3-15.5-7.6-12.8-11.1C161.6,446.8,150.7,440.7,148.8,432.8z"/>
	<path class="st12" d="M213,398c-2.1-0.9-7.9-11.5-16.2-5.3c-0.9-14.8-21.8-15.5-21.8-15.5c14.1-7.3,24.7,5.7,23.5,11.3
		C200.8,387,212.1,388.9,213,398z"/>
	<path class="st12" d="M160.7,413.4c-8.5-3.2-10.8-6.9-20.6-2.1c-7.5-4.3-12.7-2.6-12.7-2.6c4.8-4.3,10.1-2,12.4-1
		C141.1,405.2,157.5,402.4,160.7,413.4z"/>
	<path class="st12" d="M252.8,428.5c0.1-5.7,2.1-10.7-3.2-15.2c0.1-11.6-8.9-15.9-8.9-15.9c5.5-1.6,11.9,3.7,11,15.4
		C254.4,412.4,260.7,421.6,252.8,428.5z"/>
	<path class="st12" d="M232.2,395.2c1-3.5,9-5.9,8.5,2.2C238.8,396.3,236.7,392,232.2,395.2z"/>
	<path class="st12" d="M168,457.1c-5.4-4.5-10.3-11.4-18.5-8.3c-5.7-8.5-13.2-10.5-13.2-10.5c10.1-2.1,12.4,5.6,13.8,6.9
		C151.6,443.1,168.3,445.9,168,457.1z"/>
	<path class="st11" d="M154.8,429.9c-1.3,6.1-17.9,15-23.1,5.7c0,0-5.3,10-13.2,8c-7.9-1.9-12.4-5.8-11.6-8.2c2,1,17.6,8.4,25.2-3.3
		C136.1,441.2,154.8,429.9,154.8,429.9z"/>
	<path class="st12" d="M264.5,469.3c0.1-5.7,2.9-9.8-2.3-14.3c0.1-11.6-6.3-14-6.3-14c5.5-1.6,8.3,2,7.4,13.7
		C266,454.4,272.4,462.4,264.5,469.3z"/>
</g>
<g>
	<path class="st9" d="M524.3,503c0,0-7.4,4.5-12.4-1.2c-2.2,1.9-4.9,1.2-7.7-1.8c-3.8,2.9-16.6,4.7-19.9-7.6
		c-9.4,1.1-15.8-4.1-15.6-10.6c-4.4-0.4-8.7-4.8-3.4-9.5c-1.9-9,3.6-10.9,5.4-11.4c-0.6-2.9,0.5-6.3,2.6-6.7c-3-1.6-3.5-4.7-3.3-6.5
		c-7.2,2.1-8.2-5.2-4.5-7.3c-1.6-4.1-0.4-8.1,2.8-10.6c-0.9-2.1-1.1-5.2,1.5-6.6c-0.5-3.7-0.4-10.3,8.2-11.1
		c-0.5-3.1,2.4-6.2,7.4-3.5c3.5-3.4,8.3-2.2,12.4-1c-1.2-5.3,1.7-10,5.8-10.8c-1.8-13,8.8-18.3,16.8-15.6c0.5-8.7,7.7-10.7,12.7-3.9
		c10.3-5.2,23.1,1.3,23.5,11.3c7.9-1.8,14,5.2,14.5,9.5c1.4-0.9,3.1-0.9,4,0.1c1.3-7.1,12.1-7.9,15.2-2.9c1.8-4.2,8.9-4.2,8.5,2.2
		c9.6-1.6,11.7,10.6,11,15.4c5.8,4.4,6.5,9.7,1.1,15.6c3.7,3,3.2,10.5,3.1,12.6c8.7,3.1,7.7,9.3,7.4,13.7c5.4,4.6,6.3,9.4,1.2,14.5
		c7.2,13.7-5.4,30.2-21.2,14.2c-1.4,1.3-3.9,1.8-5.6,2.2c-0.5,9.3-8.4,11.3-13.7,6.1c-4,2.1-7.7,2.8-13,1s-5.8-2.4-6.4-4.4
		c-2.5,2.4-4.5,2.8-8.2,2.2c-5.1,1.5-12.5-0.3-15.6-4.5c-3.6,4.6-2.6,6.3-8.1,6C530.5,497.4,524.3,503,524.3,503z"/>
	<path class="st10" d="M503.1,572.4c0,0,12.4,2.8,18.5,1.5s14.4-11.2,20.2-10.7c5.8,0.4,8,5.9,12.4,6.5c4.4,0.6,20.5,3.8,24.4,8.2
		c-1.3-12.4-9.1-14.4-14.9-22.8c-3.7-9.6,2.6-57.4,5.8-59.8c3.6-2.4,9.3-2.4,13.1-2.9c3.8-0.5,12.1-9,11.5-10.7
		c-0.6-1.7-9,5.3-11.1,5.9c-2.1,0.6-9,1.7-9,0.3s7.9-8.7,7-9.3c-0.9-0.6-1.8-2-6.6,2.4c-4.8,4.4-10.4,16.5-15.9,15.7
		c-5.5-0.8-6.9-7.2-8.3-12.8c-1.4-5.6-5.8-6-5.8-8s3.8-3.7,6.7-5.4c3-1.7,8.3-6.6,7.3-10c-0.9-3.4-6.7,9.9-18,9.3
		c-5.5-0.9-13.2-17.3-14.9-21.3c-2.1,0.3-2.6,12.2,19,38.9c-1.4,8.7-2.7,13.4-7.3,14.6c-20.6-3.7-25.2-19.1-28.8-18.3
		c-2.3-0.6-2.9,4.1-1.6,5.8c2.4,7,21.3,18.4,24.1,28.7c-0.3,4,2.5,33.6-7.4,45C520.8,566.2,502.6,570.8,503.1,572.4z"/>
	<path class="st11" d="M553,410.6c-2.3,5.1-1.8,15.7,6.6,11.2c-5.3,9.3,3.1,15,8.3,13.8c-0.5,3.5,9.5,8,14.8,4.3
		c2.1,2.5,10.1,3.8,12.4-0.9c4.5,3.2,17.2-0.3,15.6-10.5c-2.6,8.2-10.4,13.6-15.2,8.4c-4.6,3.6-9.3,5.1-12,0.8
		c-7.4,3.3-13.3-2.1-13.3-5.1c-9.7,0.6-8-11.7-5.7-14.5C556.8,421.2,552.9,419,553,410.6z"/>
	<path class="st11" d="M466.8,463c-0.6,5.5,7.1,16.6,13.7,9.6c-2,10.5,9.3,12.7,13.7,9.9c0.6,3.5,10.3,6.7,14.2,1.5
		c2.8,1.7,15,2.4,15.7-2.8c5.3,1.6,11.7-4.1,7-13.3c0.2,8.6-3.5,11.6-8.6,9.5c-3.3,4.9-9.8,5.3-13.7,2.2c-6,5.4-12.8,2.6-13.7-0.2
		c-9,3.7-14.6-6.5-13.3-10C475.3,474.9,469.4,471,466.8,463z"/>
	<path class="st11" d="M506.8,432.8c-2.2,5.6,6.5,16,16,14c-0.3,3.8,11.1,14.6,18.4,11.4c0.1,3.5,13.4,5.7,20.4,0.1
		c3.7,1.6,15.9-0.4,18.2-5.6c7.5,1.2,26.7-4.5,21.9-13.5c-1.8,8.7-13.5,14.4-21.8,11.4c-6,5.1-12.5,8.3-17.6,5.4
		c-10.2,5.9-18.4,0.8-19.1-2c-14.2,4.3-15.5-7.6-12.8-11.1C519.5,446.8,508.7,440.7,506.8,432.8z"/>
	<path class="st12" d="M570.9,398c-2.1-0.9-7.9-11.5-16.2-5.3c-0.9-14.8-21.8-15.5-21.8-15.5c14.1-7.3,24.7,5.7,23.5,11.3
		C558.7,387,570,388.9,570.9,398z"/>
	<path class="st12" d="M518.6,413.4c-8.5-3.2-10.8-6.9-20.6-2.1c-7.5-4.3-12.7-2.6-12.7-2.6c4.8-4.3,10.1-2,12.4-1
		C499,405.2,515.4,402.4,518.6,413.4z"/>
	<path class="st12" d="M610.7,428.5c0.1-5.7,2.1-10.7-3.2-15.2c0.1-11.6-8.9-15.9-8.9-15.9c5.5-1.6,11.9,3.7,11,15.4
		C612.3,412.4,618.6,421.6,610.7,428.5z"/>
	<path class="st12" d="M590.1,395.2c1-3.5,9-5.9,8.5,2.2C596.7,396.3,594.7,392,590.1,395.2z"/>
	<path class="st12" d="M525.9,457.1c-5.4-4.5-10.3-11.4-18.5-8.3c-5.7-8.5-13.2-10.5-13.2-10.5c10.1-2.1,12.4,5.6,13.8,6.9
		C509.6,443.1,526.2,445.9,525.9,457.1z"/>
	<path class="st11" d="M512.7,429.9c-1.3,6.1-17.9,15-23.1,5.7c0,0-5.3,10-13.2,8c-7.9-1.9-12.4-5.8-11.6-8.2c2,1,17.6,8.4,25.2-3.3
		C494,441.2,512.7,429.9,512.7,429.9z"/>
	<path class="st12" d="M622.4,469.3c0.1-5.7,2.9-9.8-2.3-14.3c0.1-11.6-6.3-14-6.3-14c5.5-1.6,8.3,2,7.4,13.7
		C623.9,454.4,630.3,462.4,622.4,469.3z"/>
</g>
<path class="st13" d="M596.2,589.6H126.6c-4.7,0-8.5-3.8-8.5-8.5v0c0-4.7,3.8-8.5,8.5-8.5h469.7c4.7,0,8.5,3.8,8.5,8.5v0
	C604.7,585.7,600.9,589.6,596.2,589.6z"/>
<circle class="st14" cx="132.1" cy="581.1" r="4.5"/>
<circle class="st14" cx="218.1" cy="581.1" r="4.5"/>
<circle class="st14" cx="189.4" cy="581.1" r="4.5"/>
<circle class="st14" cx="160.8" cy="581.1" r="4.5"/>
<circle class="st14" cx="246.8" cy="581.1" r="4.5"/>
<circle class="st14" cx="275.4" cy="581.1" r="4.5"/>
<circle class="st14" cx="304.1" cy="581.1" r="4.5"/>
<circle class="st14" cx="332.7" cy="581.1" r="4.5"/>
<circle class="st14" cx="361.4" cy="581.1" r="4.5"/>
<circle class="st14" cx="447.4" cy="581.1" r="4.5"/>
<circle class="st14" cx="418.7" cy="581.1" r="4.5"/>
<circle class="st14" cx="390" cy="581.1" r="4.5"/>
<circle class="st14" cx="476" cy="581.1" r="4.5"/>
<circle class="st14" cx="504.7" cy="581.1" r="4.5"/>
<circle class="st14" cx="533.3" cy="581.1" r="4.5"/>
<circle class="st14" cx="562" cy="581.1" r="4.5"/>
<circle class="st14" cx="590.7" cy="581.1" r="4.5"/>
<rect x="136.6" y="589.6" class="st15" width="449.5" height="58.1"/>
<line class="st16" x1="160.8" y1="609.8" x2="189.4" y2="609.8"/>
<line class="st16" x1="160.8" y1="614.1" x2="189.4" y2="614.1"/>
<line class="st16" x1="160.8" y1="618.4" x2="189.4" y2="618.4"/>
<line class="st16" x1="160.8" y1="622.7" x2="189.4" y2="622.7"/>
<line class="st16" x1="533" y1="609.8" x2="561.7" y2="609.8"/>
<line class="st16" x1="533" y1="614.1" x2="561.7" y2="614.1"/>
<line class="st16" x1="533" y1="618.4" x2="561.7" y2="618.4"/>
<line class="st16" x1="533" y1="622.7" x2="561.7" y2="622.7"/>
<path class="st17" d="M363.3,626.4h-28.6c-1.1,0-1.9-0.9-1.9-1.9v-12.7c0-1.1,0.9-1.9,1.9-1.9h28.6c1.1,0,1.9,0.9,1.9,1.9v12.7
	C365.2,625.5,364.4,626.4,363.3,626.4z"/>
<path class="st17" d="M229,647.7c0,0-1.2-10.1,17.8-10.1s228.9,0,229.3,0s23.7-2.8,24.2,10.1H229z"/>
</svg>
